<?xml version="1.0" encoding="UTF-8" standalone="no"?><svg width="747" height="570" viewBox="0 0 747 570" fill="none" xmlns="http://www.w3.org/2000/svg">
<g opacity="0.3" filter="url(#filter0_f_4302_4186)">
<path d="M338 58V453" stroke="url(#paint0_linear_4302_4186)" stroke-width="6"/>
</g>
<g opacity="0.3" filter="url(#filter1_f_4302_4186)">
<path d="M677 165V560" stroke="url(#paint1_linear_4302_4186)" stroke-width="6"/>
</g>
<g opacity="0.5" filter="url(#filter2_f_4302_4186)">
<path d="M243 68V468" stroke="url(#paint2_linear_4302_4186)"/>
</g>
<g opacity="0.5" filter="url(#filter3_f_4302_4186)">
<path d="M40 93V493" stroke="url(#paint3_linear_4302_4186)"/>
</g>
<g opacity="0.5" filter="url(#filter4_f_4302_4186)">
<path d="M645 68V468" stroke="url(#paint4_linear_4302_4186)"/>
</g>
<g opacity="0.3" filter="url(#filter5_f_4302_4186)">
<path d="M275 137L275 389" stroke="url(#paint5_linear_4302_4186)"/>
</g>
<g opacity="0.5" filter="url(#filter6_f_4302_4186)">
<path d="M603 137L603 389" stroke="url(#paint6_linear_4302_4186)"/>
</g>
<path opacity="0.3" d="M577 98L577 254" stroke="url(#paint7_linear_4302_4186)"/>
<path opacity="0.3" d="M142 212L142 303" stroke="url(#paint8_linear_4302_4186)"/>
<g opacity="0.5" filter="url(#filter7_f_4302_4186)">
<path d="M595 85L595 241" stroke="url(#paint9_linear_4302_4186)"/>
</g>
<g opacity="0.5" filter="url(#filter8_f_4302_4186)">
<path d="M707 35L707 191" stroke="url(#paint10_linear_4302_4186)"/>
</g>
<g opacity="0.3" filter="url(#filter9_d_4302_4186)">
<path d="M723 64L723 220" stroke="url(#paint11_linear_4302_4186)" shape-rendering="crispEdges"/>
</g>
<g opacity="0.2" filter="url(#filter10_d_4302_4186)">
<path d="M525 93L525 176" stroke="url(#paint12_linear_4302_4186)" shape-rendering="crispEdges"/>
</g>
<g opacity="0.3" filter="url(#filter11_d_4302_4186)">
<path d="M16 100L16 256" stroke="url(#paint13_linear_4302_4186)" shape-rendering="crispEdges"/>
</g>
<g opacity="0.5" filter="url(#filter12_f_4302_4186)">
<path d="M5 68L5.00002 224" stroke="url(#paint14_linear_4302_4186)"/>
</g>
<g opacity="0.5" filter="url(#filter13_f_4302_4186)">
<path d="M298 178L298 334" stroke="url(#paint15_linear_4302_4186)"/>
</g>
<g opacity="0.5" filter="url(#filter14_f_4302_4186)">
<path d="M64 -27L64 155" stroke="url(#paint16_linear_4302_4186)"/>
</g>
<g opacity="0.5" filter="url(#filter15_f_4302_4186)">
<path d="M537 0L537 156" stroke="url(#paint17_linear_4302_4186)"/>
</g>
<g opacity="0.5" filter="url(#filter16_f_4302_4186)">
<path d="M154 88L154 244" stroke="url(#paint18_linear_4302_4186)"/>
</g>
<g opacity="0.5" filter="url(#filter17_f_4302_4186)">
<path d="M390 98L390 254" stroke="url(#paint19_linear_4302_4186)"/>
</g>
<g opacity="0.5" filter="url(#filter18_f_4302_4186)">
<path d="M511 60L511 216" stroke="url(#paint20_linear_4302_4186)"/>
</g>
<g opacity="0.5" filter="url(#filter19_f_4302_4186)">
<path d="M289 85L289 241" stroke="url(#paint21_linear_4302_4186)"/>
</g>
<g opacity="0.5" filter="url(#filter20_f_4302_4186)">
<path d="M131 159L131 315" stroke="url(#paint22_linear_4302_4186)"/>
</g>
<g opacity="0.5" filter="url(#filter21_f_4302_4186)">
<path d="M742 -115L742 199" stroke="url(#paint23_linear_4302_4186)"/>
</g>
<path d="M678.418 266.501V267.219C678.418 267.547 678.385 267.827 678.318 268.06C678.252 268.292 678.156 268.482 678.031 268.631C677.906 268.777 677.757 268.886 677.583 268.956C677.409 269.024 677.216 269.059 677.003 269.059C676.833 269.059 676.675 269.037 676.528 268.994C676.382 268.949 676.25 268.881 676.133 268.789C676.018 268.695 675.918 268.576 675.834 268.432C675.752 268.287 675.688 268.114 675.644 267.913C675.601 267.712 675.579 267.48 675.579 267.219V266.501C675.579 266.173 675.612 265.894 675.679 265.663C675.747 265.433 675.844 265.244 675.969 265.098C676.094 264.951 676.243 264.845 676.417 264.778C676.591 264.71 676.784 264.676 676.997 264.676C677.169 264.676 677.327 264.697 677.472 264.74C677.618 264.783 677.749 264.851 677.864 264.942C677.981 265.032 678.081 265.149 678.163 265.294C678.245 265.437 678.308 265.608 678.351 265.81C678.396 266.009 678.418 266.239 678.418 266.501ZM677.645 267.324V266.393C677.645 266.229 677.635 266.086 677.615 265.965C677.598 265.842 677.571 265.737 677.536 265.651C677.501 265.565 677.457 265.496 677.404 265.443C677.352 265.389 677.291 265.349 677.223 265.323C677.154 265.298 677.079 265.285 676.997 265.285C676.896 265.285 676.805 265.306 676.725 265.347C676.645 265.386 676.577 265.448 676.522 265.534C676.468 265.62 676.426 265.734 676.396 265.877C676.369 266.018 676.355 266.189 676.355 266.393V267.324C676.355 267.488 676.364 267.632 676.382 267.755C676.401 267.878 676.429 267.983 676.464 268.071C676.501 268.159 676.545 268.231 676.596 268.288C676.648 268.343 676.709 268.384 676.777 268.411C676.846 268.437 676.921 268.449 677.003 268.449C677.106 268.449 677.197 268.429 677.275 268.388C677.355 268.347 677.423 268.282 677.478 268.194C677.532 268.104 677.573 267.988 677.601 267.846C677.63 267.701 677.645 267.527 677.645 267.324ZM677.586 273.723V278H676.81V274.628L675.781 274.968V274.341L677.498 273.723H677.586ZM678.418 284.501V285.219C678.418 285.547 678.385 285.827 678.318 286.06C678.252 286.292 678.156 286.482 678.031 286.631C677.906 286.777 677.757 286.886 677.583 286.956C677.409 287.024 677.216 287.059 677.003 287.059C676.833 287.059 676.675 287.037 676.528 286.994C676.382 286.949 676.25 286.881 676.133 286.789C676.018 286.695 675.918 286.576 675.834 286.432C675.752 286.287 675.688 286.114 675.644 285.913C675.601 285.712 675.579 285.48 675.579 285.219V284.501C675.579 284.173 675.612 283.894 675.679 283.663C675.747 283.433 675.844 283.244 675.969 283.098C676.094 282.951 676.243 282.845 676.417 282.778C676.591 282.71 676.784 282.676 676.997 282.676C677.169 282.676 677.327 282.697 677.472 282.74C677.618 282.783 677.749 282.851 677.864 282.942C677.981 283.032 678.081 283.149 678.163 283.294C678.245 283.437 678.308 283.608 678.351 283.81C678.396 284.009 678.418 284.239 678.418 284.501ZM677.645 285.324V284.393C677.645 284.229 677.635 284.086 677.615 283.965C677.598 283.842 677.571 283.737 677.536 283.651C677.501 283.565 677.457 283.496 677.404 283.443C677.352 283.389 677.291 283.349 677.223 283.323C677.154 283.298 677.079 283.285 676.997 283.285C676.896 283.285 676.805 283.306 676.725 283.347C676.645 283.386 676.577 283.448 676.522 283.534C676.468 283.62 676.426 283.734 676.396 283.877C676.369 284.018 676.355 284.189 676.355 284.393V285.324C676.355 285.488 676.364 285.632 676.382 285.755C676.401 285.878 676.429 285.983 676.464 286.071C676.501 286.159 676.545 286.231 676.596 286.288C676.648 286.343 676.709 286.384 676.777 286.411C676.846 286.437 676.921 286.449 677.003 286.449C677.106 286.449 677.197 286.429 677.275 286.388C677.355 286.347 677.423 286.282 677.478 286.194C677.532 286.104 677.573 285.988 677.601 285.846C677.63 285.701 677.645 285.527 677.645 285.324ZM677.586 291.723V296H676.81V292.628L675.781 292.968V292.341L677.498 291.723H677.586ZM677.586 300.723V305H676.81V301.628L675.781 301.968V301.341L677.498 300.723H677.586ZM678.418 311.501V312.219C678.418 312.547 678.385 312.827 678.318 313.06C678.252 313.292 678.156 313.482 678.031 313.631C677.906 313.777 677.757 313.886 677.583 313.956C677.409 314.024 677.216 314.059 677.003 314.059C676.833 314.059 676.675 314.037 676.528 313.994C676.382 313.949 676.25 313.881 676.133 313.789C676.018 313.695 675.918 313.576 675.834 313.432C675.752 313.287 675.688 313.114 675.644 312.913C675.601 312.712 675.579 312.48 675.579 312.219V311.501C675.579 311.173 675.612 310.894 675.679 310.663C675.747 310.433 675.844 310.244 675.969 310.098C676.094 309.951 676.243 309.845 676.417 309.778C676.591 309.71 676.784 309.676 676.997 309.676C677.169 309.676 677.327 309.697 677.472 309.74C677.618 309.783 677.749 309.851 677.864 309.942C677.981 310.032 678.081 310.149 678.163 310.294C678.245 310.437 678.308 310.608 678.351 310.81C678.396 311.009 678.418 311.239 678.418 311.501ZM677.645 312.324V311.393C677.645 311.229 677.635 311.086 677.615 310.965C677.598 310.842 677.571 310.737 677.536 310.651C677.501 310.565 677.457 310.496 677.404 310.443C677.352 310.389 677.291 310.349 677.223 310.323C677.154 310.298 677.079 310.285 676.997 310.285C676.896 310.285 676.805 310.306 676.725 310.347C676.645 310.386 676.577 310.448 676.522 310.534C676.468 310.62 676.426 310.734 676.396 310.877C676.369 311.018 676.355 311.189 676.355 311.393V312.324C676.355 312.488 676.364 312.632 676.382 312.755C676.401 312.878 676.429 312.983 676.464 313.071C676.501 313.159 676.545 313.231 676.596 313.288C676.648 313.343 676.709 313.384 676.777 313.411C676.846 313.437 676.921 313.449 677.003 313.449C677.106 313.449 677.197 313.429 677.275 313.388C677.355 313.347 677.423 313.282 677.478 313.194C677.532 313.104 677.573 312.988 677.601 312.846C677.63 312.701 677.645 312.527 677.645 312.324ZM677.586 318.723V323H676.81V319.628L675.781 319.968V319.341L677.498 318.723H677.586ZM677.586 327.723V332H676.81V328.628L675.781 328.968V328.341L677.498 327.723H677.586ZM678.418 338.501V339.219C678.418 339.547 678.385 339.827 678.318 340.06C678.252 340.292 678.156 340.482 678.031 340.631C677.906 340.777 677.757 340.886 677.583 340.956C677.409 341.024 677.216 341.059 677.003 341.059C676.833 341.059 676.675 341.037 676.528 340.994C676.382 340.949 676.25 340.881 676.133 340.789C676.018 340.695 675.918 340.576 675.834 340.432C675.752 340.287 675.688 340.114 675.644 339.913C675.601 339.712 675.579 339.48 675.579 339.219V338.501C675.579 338.173 675.612 337.894 675.679 337.663C675.747 337.433 675.844 337.244 675.969 337.098C676.094 336.951 676.243 336.845 676.417 336.778C676.591 336.71 676.784 336.676 676.997 336.676C677.169 336.676 677.327 336.697 677.472 336.74C677.618 336.783 677.749 336.851 677.864 336.942C677.981 337.032 678.081 337.149 678.163 337.294C678.245 337.437 678.308 337.608 678.351 337.81C678.396 338.009 678.418 338.239 678.418 338.501ZM677.645 339.324V338.393C677.645 338.229 677.635 338.086 677.615 337.965C677.598 337.842 677.571 337.737 677.536 337.651C677.501 337.565 677.457 337.496 677.404 337.443C677.352 337.389 677.291 337.349 677.223 337.323C677.154 337.298 677.079 337.285 676.997 337.285C676.896 337.285 676.805 337.306 676.725 337.347C676.645 337.386 676.577 337.448 676.522 337.534C676.468 337.62 676.426 337.734 676.396 337.877C676.369 338.018 676.355 338.189 676.355 338.393V339.324C676.355 339.488 676.364 339.632 676.382 339.755C676.401 339.878 676.429 339.983 676.464 340.071C676.501 340.159 676.545 340.231 676.596 340.288C676.648 340.343 676.709 340.384 676.777 340.411C676.846 340.437 676.921 340.449 677.003 340.449C677.106 340.449 677.197 340.429 677.275 340.388C677.355 340.347 677.423 340.282 677.478 340.194C677.532 340.104 677.573 339.988 677.601 339.846C677.63 339.701 677.645 339.527 677.645 339.324ZM678.418 347.501V348.219C678.418 348.547 678.385 348.827 678.318 349.06C678.252 349.292 678.156 349.482 678.031 349.631C677.906 349.777 677.757 349.886 677.583 349.956C677.409 350.024 677.216 350.059 677.003 350.059C676.833 350.059 676.675 350.037 676.528 349.994C676.382 349.949 676.25 349.881 676.133 349.789C676.018 349.695 675.918 349.576 675.834 349.432C675.752 349.287 675.688 349.114 675.644 348.913C675.601 348.712 675.579 348.48 675.579 348.219V347.501C675.579 347.173 675.612 346.894 675.679 346.663C675.747 346.433 675.844 346.244 675.969 346.098C676.094 345.951 676.243 345.845 676.417 345.778C676.591 345.71 676.784 345.676 676.997 345.676C677.169 345.676 677.327 345.697 677.472 345.74C677.618 345.783 677.749 345.851 677.864 345.942C677.981 346.032 678.081 346.149 678.163 346.294C678.245 346.437 678.308 346.608 678.351 346.81C678.396 347.009 678.418 347.239 678.418 347.501ZM677.645 348.324V347.393C677.645 347.229 677.635 347.086 677.615 346.965C677.598 346.842 677.571 346.737 677.536 346.651C677.501 346.565 677.457 346.496 677.404 346.443C677.352 346.389 677.291 346.349 677.223 346.323C677.154 346.298 677.079 346.285 676.997 346.285C676.896 346.285 676.805 346.306 676.725 346.347C676.645 346.386 676.577 346.448 676.522 346.534C676.468 346.62 676.426 346.734 676.396 346.877C676.369 347.018 676.355 347.189 676.355 347.393V348.324C676.355 348.488 676.364 348.632 676.382 348.755C676.401 348.878 676.429 348.983 676.464 349.071C676.501 349.159 676.545 349.231 676.596 349.288C676.648 349.343 676.709 349.384 676.777 349.411C676.846 349.437 676.921 349.449 677.003 349.449C677.106 349.449 677.197 349.429 677.275 349.388C677.355 349.347 677.423 349.282 677.478 349.194C677.532 349.104 677.573 348.988 677.601 348.846C677.63 348.701 677.645 348.527 677.645 348.324ZM677.586 354.723V359H676.81V355.628L675.781 355.968V355.341L677.498 354.723H677.586ZM678.418 365.501V366.219C678.418 366.547 678.385 366.827 678.318 367.06C678.252 367.292 678.156 367.482 678.031 367.631C677.906 367.777 677.757 367.886 677.583 367.956C677.409 368.024 677.216 368.059 677.003 368.059C676.833 368.059 676.675 368.037 676.528 367.994C676.382 367.949 676.25 367.881 676.133 367.789C676.018 367.695 675.918 367.576 675.834 367.432C675.752 367.287 675.688 367.114 675.644 366.913C675.601 366.712 675.579 366.48 675.579 366.219V365.501C675.579 365.173 675.612 364.894 675.679 364.663C675.747 364.433 675.844 364.244 675.969 364.098C676.094 363.951 676.243 363.845 676.417 363.778C676.591 363.71 676.784 363.676 676.997 363.676C677.169 363.676 677.327 363.697 677.472 363.74C677.618 363.783 677.749 363.851 677.864 363.942C677.981 364.032 678.081 364.149 678.163 364.294C678.245 364.437 678.308 364.608 678.351 364.81C678.396 365.009 678.418 365.239 678.418 365.501ZM677.645 366.324V365.393C677.645 365.229 677.635 365.086 677.615 364.965C677.598 364.842 677.571 364.737 677.536 364.651C677.501 364.565 677.457 364.496 677.404 364.443C677.352 364.389 677.291 364.349 677.223 364.323C677.154 364.298 677.079 364.285 676.997 364.285C676.896 364.285 676.805 364.306 676.725 364.347C676.645 364.386 676.577 364.448 676.522 364.534C676.468 364.62 676.426 364.734 676.396 364.877C676.369 365.018 676.355 365.189 676.355 365.393V366.324C676.355 366.488 676.364 366.632 676.382 366.755C676.401 366.878 676.429 366.983 676.464 367.071C676.501 367.159 676.545 367.231 676.596 367.288C676.648 367.343 676.709 367.384 676.777 367.411C676.846 367.437 676.921 367.449 677.003 367.449C677.106 367.449 677.197 367.429 677.275 367.388C677.355 367.347 677.423 367.282 677.478 367.194C677.532 367.104 677.573 366.988 677.601 366.846C677.63 366.701 677.645 366.527 677.645 366.324ZM678.418 374.501V375.219C678.418 375.547 678.385 375.827 678.318 376.06C678.252 376.292 678.156 376.482 678.031 376.631C677.906 376.777 677.757 376.886 677.583 376.956C677.409 377.024 677.216 377.059 677.003 377.059C676.833 377.059 676.675 377.037 676.528 376.994C676.382 376.949 676.25 376.881 676.133 376.789C676.018 376.695 675.918 376.576 675.834 376.432C675.752 376.287 675.688 376.114 675.644 375.913C675.601 375.712 675.579 375.48 675.579 375.219V374.501C675.579 374.173 675.612 373.894 675.679 373.663C675.747 373.433 675.844 373.244 675.969 373.098C676.094 372.951 676.243 372.845 676.417 372.778C676.591 372.71 676.784 372.676 676.997 372.676C677.169 372.676 677.327 372.697 677.472 372.74C677.618 372.783 677.749 372.851 677.864 372.942C677.981 373.032 678.081 373.149 678.163 373.294C678.245 373.437 678.308 373.608 678.351 373.81C678.396 374.009 678.418 374.239 678.418 374.501ZM677.645 375.324V374.393C677.645 374.229 677.635 374.086 677.615 373.965C677.598 373.842 677.571 373.737 677.536 373.651C677.501 373.565 677.457 373.496 677.404 373.443C677.352 373.389 677.291 373.349 677.223 373.323C677.154 373.298 677.079 373.285 676.997 373.285C676.896 373.285 676.805 373.306 676.725 373.347C676.645 373.386 676.577 373.448 676.522 373.534C676.468 373.62 676.426 373.734 676.396 373.877C676.369 374.018 676.355 374.189 676.355 374.393V375.324C676.355 375.488 676.364 375.632 676.382 375.755C676.401 375.878 676.429 375.983 676.464 376.071C676.501 376.159 676.545 376.231 676.596 376.288C676.648 376.343 676.709 376.384 676.777 376.411C676.846 376.437 676.921 376.449 677.003 376.449C677.106 376.449 677.197 376.429 677.275 376.388C677.355 376.347 677.423 376.282 677.478 376.194C677.532 376.104 677.573 375.988 677.601 375.846C677.63 375.701 677.645 375.527 677.645 375.324ZM677.586 381.723V386H676.81V382.628L675.781 382.968V382.341L677.498 381.723H677.586ZM677.586 390.723V395H676.81V391.628L675.781 391.968V391.341L677.498 390.723H677.586Z" fill="white"/>
<path d="M41.418 216.501V217.219C41.418 217.547 41.3848 217.827 41.3184 218.06C41.252 218.292 41.1562 218.482 41.0312 218.631C40.9062 218.777 40.7568 218.886 40.583 218.956C40.4092 219.024 40.2158 219.059 40.0029 219.059C39.833 219.059 39.6748 219.037 39.5283 218.994C39.3818 218.949 39.25 218.881 39.1328 218.789C39.0176 218.695 38.918 218.576 38.834 218.432C38.752 218.287 38.6885 218.114 38.6436 217.913C38.6006 217.712 38.5791 217.48 38.5791 217.219V216.501C38.5791 216.173 38.6123 215.894 38.6787 215.663C38.7471 215.433 38.8438 215.244 38.9688 215.098C39.0938 214.951 39.2432 214.845 39.417 214.778C39.5908 214.71 39.7842 214.676 39.9971 214.676C40.1689 214.676 40.3271 214.697 40.4717 214.74C40.6182 214.783 40.749 214.851 40.8643 214.942C40.9814 215.032 41.0811 215.149 41.1631 215.294C41.2451 215.437 41.3076 215.608 41.3506 215.81C41.3955 216.009 41.418 216.239 41.418 216.501ZM40.6445 217.324V216.393C40.6445 216.229 40.6348 216.086 40.6152 215.965C40.5977 215.842 40.5713 215.737 40.5361 215.651C40.501 215.565 40.457 215.496 40.4043 215.443C40.3516 215.389 40.291 215.349 40.2227 215.323C40.1543 215.298 40.0791 215.285 39.9971 215.285C39.8955 215.285 39.8047 215.306 39.7246 215.347C39.6445 215.386 39.5771 215.448 39.5225 215.534C39.4678 215.62 39.4258 215.734 39.3965 215.877C39.3691 216.018 39.3555 216.189 39.3555 216.393V217.324C39.3555 217.488 39.3643 217.632 39.3818 217.755C39.4014 217.878 39.4287 217.983 39.4639 218.071C39.501 218.159 39.5449 218.231 39.5957 218.288C39.6484 218.343 39.709 218.384 39.7773 218.411C39.8457 218.437 39.9209 218.449 40.0029 218.449C40.1064 218.449 40.1973 218.429 40.2754 218.388C40.3555 218.347 40.4229 218.282 40.4775 218.194C40.5322 218.104 40.5732 217.988 40.6006 217.846C40.6299 217.701 40.6445 217.527 40.6445 217.324ZM40.5859 223.723V228H39.8096V224.628L38.7812 224.968V224.341L40.498 223.723H40.5859ZM41.418 234.501V235.219C41.418 235.547 41.3848 235.827 41.3184 236.06C41.252 236.292 41.1562 236.482 41.0312 236.631C40.9062 236.777 40.7568 236.886 40.583 236.956C40.4092 237.024 40.2158 237.059 40.0029 237.059C39.833 237.059 39.6748 237.037 39.5283 236.994C39.3818 236.949 39.25 236.881 39.1328 236.789C39.0176 236.695 38.918 236.576 38.834 236.432C38.752 236.287 38.6885 236.114 38.6436 235.913C38.6006 235.712 38.5791 235.48 38.5791 235.219V234.501C38.5791 234.173 38.6123 233.894 38.6787 233.663C38.7471 233.433 38.8438 233.244 38.9688 233.098C39.0938 232.951 39.2432 232.845 39.417 232.778C39.5908 232.71 39.7842 232.676 39.9971 232.676C40.1689 232.676 40.3271 232.697 40.4717 232.74C40.6182 232.783 40.749 232.851 40.8643 232.942C40.9814 233.032 41.0811 233.149 41.1631 233.294C41.2451 233.437 41.3076 233.608 41.3506 233.81C41.3955 234.009 41.418 234.239 41.418 234.501ZM40.6445 235.324V234.393C40.6445 234.229 40.6348 234.086 40.6152 233.965C40.5977 233.842 40.5713 233.737 40.5361 233.651C40.501 233.565 40.457 233.496 40.4043 233.443C40.3516 233.389 40.291 233.349 40.2227 233.323C40.1543 233.298 40.0791 233.285 39.9971 233.285C39.8955 233.285 39.8047 233.306 39.7246 233.347C39.6445 233.386 39.5771 233.448 39.5225 233.534C39.4678 233.62 39.4258 233.734 39.3965 233.877C39.3691 234.018 39.3555 234.189 39.3555 234.393V235.324C39.3555 235.488 39.3643 235.632 39.3818 235.755C39.4014 235.878 39.4287 235.983 39.4639 236.071C39.501 236.159 39.5449 236.231 39.5957 236.288C39.6484 236.343 39.709 236.384 39.7773 236.411C39.8457 236.437 39.9209 236.449 40.0029 236.449C40.1064 236.449 40.1973 236.429 40.2754 236.388C40.3555 236.347 40.4229 236.282 40.4775 236.194C40.5322 236.104 40.5732 235.988 40.6006 235.846C40.6299 235.701 40.6445 235.527 40.6445 235.324ZM40.5859 241.723V246H39.8096V242.628L38.7812 242.968V242.341L40.498 241.723H40.5859ZM40.5859 250.723V255H39.8096V251.628L38.7812 251.968V251.341L40.498 250.723H40.5859ZM41.418 261.501V262.219C41.418 262.547 41.3848 262.827 41.3184 263.06C41.252 263.292 41.1562 263.482 41.0312 263.631C40.9062 263.777 40.7568 263.886 40.583 263.956C40.4092 264.024 40.2158 264.059 40.0029 264.059C39.833 264.059 39.6748 264.037 39.5283 263.994C39.3818 263.949 39.25 263.881 39.1328 263.789C39.0176 263.695 38.918 263.576 38.834 263.432C38.752 263.287 38.6885 263.114 38.6436 262.913C38.6006 262.712 38.5791 262.48 38.5791 262.219V261.501C38.5791 261.173 38.6123 260.894 38.6787 260.663C38.7471 260.433 38.8438 260.244 38.9688 260.098C39.0938 259.951 39.2432 259.845 39.417 259.778C39.5908 259.71 39.7842 259.676 39.9971 259.676C40.1689 259.676 40.3271 259.697 40.4717 259.74C40.6182 259.783 40.749 259.851 40.8643 259.942C40.9814 260.032 41.0811 260.149 41.1631 260.294C41.2451 260.437 41.3076 260.608 41.3506 260.81C41.3955 261.009 41.418 261.239 41.418 261.501ZM40.6445 262.324V261.393C40.6445 261.229 40.6348 261.086 40.6152 260.965C40.5977 260.842 40.5713 260.737 40.5361 260.651C40.501 260.565 40.457 260.496 40.4043 260.443C40.3516 260.389 40.291 260.349 40.2227 260.323C40.1543 260.298 40.0791 260.285 39.9971 260.285C39.8955 260.285 39.8047 260.306 39.7246 260.347C39.6445 260.386 39.5771 260.448 39.5225 260.534C39.4678 260.62 39.4258 260.734 39.3965 260.877C39.3691 261.018 39.3555 261.189 39.3555 261.393V262.324C39.3555 262.488 39.3643 262.632 39.3818 262.755C39.4014 262.878 39.4287 262.983 39.4639 263.071C39.501 263.159 39.5449 263.231 39.5957 263.288C39.6484 263.343 39.709 263.384 39.7773 263.411C39.8457 263.437 39.9209 263.449 40.0029 263.449C40.1064 263.449 40.1973 263.429 40.2754 263.388C40.3555 263.347 40.4229 263.282 40.4775 263.194C40.5322 263.104 40.5732 262.988 40.6006 262.846C40.6299 262.701 40.6445 262.527 40.6445 262.324ZM40.5859 268.723V273H39.8096V269.628L38.7812 269.968V269.341L40.498 268.723H40.5859ZM40.5859 277.723V282H39.8096V278.628L38.7812 278.968V278.341L40.498 277.723H40.5859ZM41.418 288.501V289.219C41.418 289.547 41.3848 289.827 41.3184 290.06C41.252 290.292 41.1562 290.482 41.0312 290.631C40.9062 290.777 40.7568 290.886 40.583 290.956C40.4092 291.024 40.2158 291.059 40.0029 291.059C39.833 291.059 39.6748 291.037 39.5283 290.994C39.3818 290.949 39.25 290.881 39.1328 290.789C39.0176 290.695 38.918 290.576 38.834 290.432C38.752 290.287 38.6885 290.114 38.6436 289.913C38.6006 289.712 38.5791 289.48 38.5791 289.219V288.501C38.5791 288.173 38.6123 287.894 38.6787 287.663C38.7471 287.433 38.8438 287.244 38.9688 287.098C39.0938 286.951 39.2432 286.845 39.417 286.778C39.5908 286.71 39.7842 286.676 39.9971 286.676C40.1689 286.676 40.3271 286.697 40.4717 286.74C40.6182 286.783 40.749 286.851 40.8643 286.942C40.9814 287.032 41.0811 287.149 41.1631 287.294C41.2451 287.437 41.3076 287.608 41.3506 287.81C41.3955 288.009 41.418 288.239 41.418 288.501ZM40.6445 289.324V288.393C40.6445 288.229 40.6348 288.086 40.6152 287.965C40.5977 287.842 40.5713 287.737 40.5361 287.651C40.501 287.565 40.457 287.496 40.4043 287.443C40.3516 287.389 40.291 287.349 40.2227 287.323C40.1543 287.298 40.0791 287.285 39.9971 287.285C39.8955 287.285 39.8047 287.306 39.7246 287.347C39.6445 287.386 39.5771 287.448 39.5225 287.534C39.4678 287.62 39.4258 287.734 39.3965 287.877C39.3691 288.018 39.3555 288.189 39.3555 288.393V289.324C39.3555 289.488 39.3643 289.632 39.3818 289.755C39.4014 289.878 39.4287 289.983 39.4639 290.071C39.501 290.159 39.5449 290.231 39.5957 290.288C39.6484 290.343 39.709 290.384 39.7773 290.411C39.8457 290.437 39.9209 290.449 40.0029 290.449C40.1064 290.449 40.1973 290.429 40.2754 290.388C40.3555 290.347 40.4229 290.282 40.4775 290.194C40.5322 290.104 40.5732 289.988 40.6006 289.846C40.6299 289.701 40.6445 289.527 40.6445 289.324ZM41.418 297.501V298.219C41.418 298.547 41.3848 298.827 41.3184 299.06C41.252 299.292 41.1562 299.482 41.0312 299.631C40.9062 299.777 40.7568 299.886 40.583 299.956C40.4092 300.024 40.2158 300.059 40.0029 300.059C39.833 300.059 39.6748 300.037 39.5283 299.994C39.3818 299.949 39.25 299.881 39.1328 299.789C39.0176 299.695 38.918 299.576 38.834 299.432C38.752 299.287 38.6885 299.114 38.6436 298.913C38.6006 298.712 38.5791 298.48 38.5791 298.219V297.501C38.5791 297.173 38.6123 296.894 38.6787 296.663C38.7471 296.433 38.8438 296.244 38.9688 296.098C39.0938 295.951 39.2432 295.845 39.417 295.778C39.5908 295.71 39.7842 295.676 39.9971 295.676C40.1689 295.676 40.3271 295.697 40.4717 295.74C40.6182 295.783 40.749 295.851 40.8643 295.942C40.9814 296.032 41.0811 296.149 41.1631 296.294C41.2451 296.437 41.3076 296.608 41.3506 296.81C41.3955 297.009 41.418 297.239 41.418 297.501ZM40.6445 298.324V297.393C40.6445 297.229 40.6348 297.086 40.6152 296.965C40.5977 296.842 40.5713 296.737 40.5361 296.651C40.501 296.565 40.457 296.496 40.4043 296.443C40.3516 296.389 40.291 296.349 40.2227 296.323C40.1543 296.298 40.0791 296.285 39.9971 296.285C39.8955 296.285 39.8047 296.306 39.7246 296.347C39.6445 296.386 39.5771 296.448 39.5225 296.534C39.4678 296.62 39.4258 296.734 39.3965 296.877C39.3691 297.018 39.3555 297.189 39.3555 297.393V298.324C39.3555 298.488 39.3643 298.632 39.3818 298.755C39.4014 298.878 39.4287 298.983 39.4639 299.071C39.501 299.159 39.5449 299.231 39.5957 299.288C39.6484 299.343 39.709 299.384 39.7773 299.411C39.8457 299.437 39.9209 299.449 40.0029 299.449C40.1064 299.449 40.1973 299.429 40.2754 299.388C40.3555 299.347 40.4229 299.282 40.4775 299.194C40.5322 299.104 40.5732 298.988 40.6006 298.846C40.6299 298.701 40.6445 298.527 40.6445 298.324ZM40.5859 304.723V309H39.8096V305.628L38.7812 305.968V305.341L40.498 304.723H40.5859ZM41.418 315.501V316.219C41.418 316.547 41.3848 316.827 41.3184 317.06C41.252 317.292 41.1562 317.482 41.0312 317.631C40.9062 317.777 40.7568 317.886 40.583 317.956C40.4092 318.024 40.2158 318.059 40.0029 318.059C39.833 318.059 39.6748 318.037 39.5283 317.994C39.3818 317.949 39.25 317.881 39.1328 317.789C39.0176 317.695 38.918 317.576 38.834 317.432C38.752 317.287 38.6885 317.114 38.6436 316.913C38.6006 316.712 38.5791 316.48 38.5791 316.219V315.501C38.5791 315.173 38.6123 314.894 38.6787 314.663C38.7471 314.433 38.8438 314.244 38.9688 314.098C39.0938 313.951 39.2432 313.845 39.417 313.778C39.5908 313.71 39.7842 313.676 39.9971 313.676C40.1689 313.676 40.3271 313.697 40.4717 313.74C40.6182 313.783 40.749 313.851 40.8643 313.942C40.9814 314.032 41.0811 314.149 41.1631 314.294C41.2451 314.437 41.3076 314.608 41.3506 314.81C41.3955 315.009 41.418 315.239 41.418 315.501ZM40.6445 316.324V315.393C40.6445 315.229 40.6348 315.086 40.6152 314.965C40.5977 314.842 40.5713 314.737 40.5361 314.651C40.501 314.565 40.457 314.496 40.4043 314.443C40.3516 314.389 40.291 314.349 40.2227 314.323C40.1543 314.298 40.0791 314.285 39.9971 314.285C39.8955 314.285 39.8047 314.306 39.7246 314.347C39.6445 314.386 39.5771 314.448 39.5225 314.534C39.4678 314.62 39.4258 314.734 39.3965 314.877C39.3691 315.018 39.3555 315.189 39.3555 315.393V316.324C39.3555 316.488 39.3643 316.632 39.3818 316.755C39.4014 316.878 39.4287 316.983 39.4639 317.071C39.501 317.159 39.5449 317.231 39.5957 317.288C39.6484 317.343 39.709 317.384 39.7773 317.411C39.8457 317.437 39.9209 317.449 40.0029 317.449C40.1064 317.449 40.1973 317.429 40.2754 317.388C40.3555 317.347 40.4229 317.282 40.4775 317.194C40.5322 317.104 40.5732 316.988 40.6006 316.846C40.6299 316.701 40.6445 316.527 40.6445 316.324ZM41.418 324.501V325.219C41.418 325.547 41.3848 325.827 41.3184 326.06C41.252 326.292 41.1562 326.482 41.0312 326.631C40.9062 326.777 40.7568 326.886 40.583 326.956C40.4092 327.024 40.2158 327.059 40.0029 327.059C39.833 327.059 39.6748 327.037 39.5283 326.994C39.3818 326.949 39.25 326.881 39.1328 326.789C39.0176 326.695 38.918 326.576 38.834 326.432C38.752 326.287 38.6885 326.114 38.6436 325.913C38.6006 325.712 38.5791 325.48 38.5791 325.219V324.501C38.5791 324.173 38.6123 323.894 38.6787 323.663C38.7471 323.433 38.8438 323.244 38.9688 323.098C39.0938 322.951 39.2432 322.845 39.417 322.778C39.5908 322.71 39.7842 322.676 39.9971 322.676C40.1689 322.676 40.3271 322.697 40.4717 322.74C40.6182 322.783 40.749 322.851 40.8643 322.942C40.9814 323.032 41.0811 323.149 41.1631 323.294C41.2451 323.437 41.3076 323.608 41.3506 323.81C41.3955 324.009 41.418 324.239 41.418 324.501ZM40.6445 325.324V324.393C40.6445 324.229 40.6348 324.086 40.6152 323.965C40.5977 323.842 40.5713 323.737 40.5361 323.651C40.501 323.565 40.457 323.496 40.4043 323.443C40.3516 323.389 40.291 323.349 40.2227 323.323C40.1543 323.298 40.0791 323.285 39.9971 323.285C39.8955 323.285 39.8047 323.306 39.7246 323.347C39.6445 323.386 39.5771 323.448 39.5225 323.534C39.4678 323.62 39.4258 323.734 39.3965 323.877C39.3691 324.018 39.3555 324.189 39.3555 324.393V325.324C39.3555 325.488 39.3643 325.632 39.3818 325.755C39.4014 325.878 39.4287 325.983 39.4639 326.071C39.501 326.159 39.5449 326.231 39.5957 326.288C39.6484 326.343 39.709 326.384 39.7773 326.411C39.8457 326.437 39.9209 326.449 40.0029 326.449C40.1064 326.449 40.1973 326.429 40.2754 326.388C40.3555 326.347 40.4229 326.282 40.4775 326.194C40.5322 326.104 40.5732 325.988 40.6006 325.846C40.6299 325.701 40.6445 325.527 40.6445 325.324ZM40.5859 331.723V336H39.8096V332.628L38.7812 332.968V332.341L40.498 331.723H40.5859ZM40.5859 340.723V345H39.8096V341.628L38.7812 341.968V341.341L40.498 340.723H40.5859Z" fill="white"/>
<path opacity="0.6" d="M339.418 230.501V231.219C339.418 231.547 339.385 231.827 339.318 232.06C339.252 232.292 339.156 232.482 339.031 232.631C338.906 232.777 338.757 232.886 338.583 232.956C338.409 233.024 338.216 233.059 338.003 233.059C337.833 233.059 337.675 233.037 337.528 232.994C337.382 232.949 337.25 232.881 337.133 232.789C337.018 232.695 336.918 232.576 336.834 232.432C336.752 232.287 336.688 232.114 336.644 231.913C336.601 231.712 336.579 231.48 336.579 231.219V230.501C336.579 230.173 336.612 229.894 336.679 229.663C336.747 229.433 336.844 229.244 336.969 229.098C337.094 228.951 337.243 228.845 337.417 228.778C337.591 228.71 337.784 228.676 337.997 228.676C338.169 228.676 338.327 228.697 338.472 228.74C338.618 228.783 338.749 228.851 338.864 228.942C338.981 229.032 339.081 229.149 339.163 229.294C339.245 229.437 339.308 229.608 339.351 229.81C339.396 230.009 339.418 230.239 339.418 230.501ZM338.645 231.324V230.393C338.645 230.229 338.635 230.086 338.615 229.965C338.598 229.842 338.571 229.737 338.536 229.651C338.501 229.565 338.457 229.496 338.404 229.443C338.352 229.389 338.291 229.349 338.223 229.323C338.154 229.298 338.079 229.285 337.997 229.285C337.896 229.285 337.805 229.306 337.725 229.347C337.645 229.386 337.577 229.448 337.522 229.534C337.468 229.62 337.426 229.734 337.396 229.877C337.369 230.018 337.355 230.189 337.355 230.393V231.324C337.355 231.488 337.364 231.632 337.382 231.755C337.401 231.878 337.429 231.983 337.464 232.071C337.501 232.159 337.545 232.231 337.596 232.288C337.648 232.343 337.709 232.384 337.777 232.411C337.846 232.437 337.921 232.449 338.003 232.449C338.106 232.449 338.197 232.429 338.275 232.388C338.355 232.347 338.423 232.282 338.478 232.194C338.532 232.104 338.573 231.988 338.601 231.846C338.63 231.701 338.645 231.527 338.645 231.324ZM338.586 237.723V242H337.81V238.628L336.781 238.968V238.341L338.498 237.723H338.586ZM339.418 248.501V249.219C339.418 249.547 339.385 249.827 339.318 250.06C339.252 250.292 339.156 250.482 339.031 250.631C338.906 250.777 338.757 250.886 338.583 250.956C338.409 251.024 338.216 251.059 338.003 251.059C337.833 251.059 337.675 251.037 337.528 250.994C337.382 250.949 337.25 250.881 337.133 250.789C337.018 250.695 336.918 250.576 336.834 250.432C336.752 250.287 336.688 250.114 336.644 249.913C336.601 249.712 336.579 249.48 336.579 249.219V248.501C336.579 248.173 336.612 247.894 336.679 247.663C336.747 247.433 336.844 247.244 336.969 247.098C337.094 246.951 337.243 246.845 337.417 246.778C337.591 246.71 337.784 246.676 337.997 246.676C338.169 246.676 338.327 246.697 338.472 246.74C338.618 246.783 338.749 246.851 338.864 246.942C338.981 247.032 339.081 247.149 339.163 247.294C339.245 247.437 339.308 247.608 339.351 247.81C339.396 248.009 339.418 248.239 339.418 248.501ZM338.645 249.324V248.393C338.645 248.229 338.635 248.086 338.615 247.965C338.598 247.842 338.571 247.737 338.536 247.651C338.501 247.565 338.457 247.496 338.404 247.443C338.352 247.389 338.291 247.349 338.223 247.323C338.154 247.298 338.079 247.285 337.997 247.285C337.896 247.285 337.805 247.306 337.725 247.347C337.645 247.386 337.577 247.448 337.522 247.534C337.468 247.62 337.426 247.734 337.396 247.877C337.369 248.018 337.355 248.189 337.355 248.393V249.324C337.355 249.488 337.364 249.632 337.382 249.755C337.401 249.878 337.429 249.983 337.464 250.071C337.501 250.159 337.545 250.231 337.596 250.288C337.648 250.343 337.709 250.384 337.777 250.411C337.846 250.437 337.921 250.449 338.003 250.449C338.106 250.449 338.197 250.429 338.275 250.388C338.355 250.347 338.423 250.282 338.478 250.194C338.532 250.104 338.573 249.988 338.601 249.846C338.63 249.701 338.645 249.527 338.645 249.324ZM338.586 255.723V260H337.81V256.628L336.781 256.968V256.341L338.498 255.723H338.586ZM338.586 264.723V269H337.81V265.628L336.781 265.968V265.341L338.498 264.723H338.586ZM339.418 275.501V276.219C339.418 276.547 339.385 276.827 339.318 277.06C339.252 277.292 339.156 277.482 339.031 277.631C338.906 277.777 338.757 277.886 338.583 277.956C338.409 278.024 338.216 278.059 338.003 278.059C337.833 278.059 337.675 278.037 337.528 277.994C337.382 277.949 337.25 277.881 337.133 277.789C337.018 277.695 336.918 277.576 336.834 277.432C336.752 277.287 336.688 277.114 336.644 276.913C336.601 276.712 336.579 276.48 336.579 276.219V275.501C336.579 275.173 336.612 274.894 336.679 274.663C336.747 274.433 336.844 274.244 336.969 274.098C337.094 273.951 337.243 273.845 337.417 273.778C337.591 273.71 337.784 273.676 337.997 273.676C338.169 273.676 338.327 273.697 338.472 273.74C338.618 273.783 338.749 273.851 338.864 273.942C338.981 274.032 339.081 274.149 339.163 274.294C339.245 274.437 339.308 274.608 339.351 274.81C339.396 275.009 339.418 275.239 339.418 275.501ZM338.645 276.324V275.393C338.645 275.229 338.635 275.086 338.615 274.965C338.598 274.842 338.571 274.737 338.536 274.651C338.501 274.565 338.457 274.496 338.404 274.443C338.352 274.389 338.291 274.349 338.223 274.323C338.154 274.298 338.079 274.285 337.997 274.285C337.896 274.285 337.805 274.306 337.725 274.347C337.645 274.386 337.577 274.448 337.522 274.534C337.468 274.62 337.426 274.734 337.396 274.877C337.369 275.018 337.355 275.189 337.355 275.393V276.324C337.355 276.488 337.364 276.632 337.382 276.755C337.401 276.878 337.429 276.983 337.464 277.071C337.501 277.159 337.545 277.231 337.596 277.288C337.648 277.343 337.709 277.384 337.777 277.411C337.846 277.437 337.921 277.449 338.003 277.449C338.106 277.449 338.197 277.429 338.275 277.388C338.355 277.347 338.423 277.282 338.478 277.194C338.532 277.104 338.573 276.988 338.601 276.846C338.63 276.701 338.645 276.527 338.645 276.324ZM338.586 282.723V287H337.81V283.628L336.781 283.968V283.341L338.498 282.723H338.586ZM338.586 291.723V296H337.81V292.628L336.781 292.968V292.341L338.498 291.723H338.586ZM339.418 302.501V303.219C339.418 303.547 339.385 303.827 339.318 304.06C339.252 304.292 339.156 304.482 339.031 304.631C338.906 304.777 338.757 304.886 338.583 304.956C338.409 305.024 338.216 305.059 338.003 305.059C337.833 305.059 337.675 305.037 337.528 304.994C337.382 304.949 337.25 304.881 337.133 304.789C337.018 304.695 336.918 304.576 336.834 304.432C336.752 304.287 336.688 304.114 336.644 303.913C336.601 303.712 336.579 303.48 336.579 303.219V302.501C336.579 302.173 336.612 301.894 336.679 301.663C336.747 301.433 336.844 301.244 336.969 301.098C337.094 300.951 337.243 300.845 337.417 300.778C337.591 300.71 337.784 300.676 337.997 300.676C338.169 300.676 338.327 300.697 338.472 300.74C338.618 300.783 338.749 300.851 338.864 300.942C338.981 301.032 339.081 301.149 339.163 301.294C339.245 301.437 339.308 301.608 339.351 301.81C339.396 302.009 339.418 302.239 339.418 302.501ZM338.645 303.324V302.393C338.645 302.229 338.635 302.086 338.615 301.965C338.598 301.842 338.571 301.737 338.536 301.651C338.501 301.565 338.457 301.496 338.404 301.443C338.352 301.389 338.291 301.349 338.223 301.323C338.154 301.298 338.079 301.285 337.997 301.285C337.896 301.285 337.805 301.306 337.725 301.347C337.645 301.386 337.577 301.448 337.522 301.534C337.468 301.62 337.426 301.734 337.396 301.877C337.369 302.018 337.355 302.189 337.355 302.393V303.324C337.355 303.488 337.364 303.632 337.382 303.755C337.401 303.878 337.429 303.983 337.464 304.071C337.501 304.159 337.545 304.231 337.596 304.288C337.648 304.343 337.709 304.384 337.777 304.411C337.846 304.437 337.921 304.449 338.003 304.449C338.106 304.449 338.197 304.429 338.275 304.388C338.355 304.347 338.423 304.282 338.478 304.194C338.532 304.104 338.573 303.988 338.601 303.846C338.63 303.701 338.645 303.527 338.645 303.324ZM339.418 311.501V312.219C339.418 312.547 339.385 312.827 339.318 313.06C339.252 313.292 339.156 313.482 339.031 313.631C338.906 313.777 338.757 313.886 338.583 313.956C338.409 314.024 338.216 314.059 338.003 314.059C337.833 314.059 337.675 314.037 337.528 313.994C337.382 313.949 337.25 313.881 337.133 313.789C337.018 313.695 336.918 313.576 336.834 313.432C336.752 313.287 336.688 313.114 336.644 312.913C336.601 312.712 336.579 312.48 336.579 312.219V311.501C336.579 311.173 336.612 310.894 336.679 310.663C336.747 310.433 336.844 310.244 336.969 310.098C337.094 309.951 337.243 309.845 337.417 309.778C337.591 309.71 337.784 309.676 337.997 309.676C338.169 309.676 338.327 309.697 338.472 309.74C338.618 309.783 338.749 309.851 338.864 309.942C338.981 310.032 339.081 310.149 339.163 310.294C339.245 310.437 339.308 310.608 339.351 310.81C339.396 311.009 339.418 311.239 339.418 311.501ZM338.645 312.324V311.393C338.645 311.229 338.635 311.086 338.615 310.965C338.598 310.842 338.571 310.737 338.536 310.651C338.501 310.565 338.457 310.496 338.404 310.443C338.352 310.389 338.291 310.349 338.223 310.323C338.154 310.298 338.079 310.285 337.997 310.285C337.896 310.285 337.805 310.306 337.725 310.347C337.645 310.386 337.577 310.448 337.522 310.534C337.468 310.62 337.426 310.734 337.396 310.877C337.369 311.018 337.355 311.189 337.355 311.393V312.324C337.355 312.488 337.364 312.632 337.382 312.755C337.401 312.878 337.429 312.983 337.464 313.071C337.501 313.159 337.545 313.231 337.596 313.288C337.648 313.343 337.709 313.384 337.777 313.411C337.846 313.437 337.921 313.449 338.003 313.449C338.106 313.449 338.197 313.429 338.275 313.388C338.355 313.347 338.423 313.282 338.478 313.194C338.532 313.104 338.573 312.988 338.601 312.846C338.63 312.701 338.645 312.527 338.645 312.324ZM338.586 318.723V323H337.81V319.628L336.781 319.968V319.341L338.498 318.723H338.586ZM339.418 329.501V330.219C339.418 330.547 339.385 330.827 339.318 331.06C339.252 331.292 339.156 331.482 339.031 331.631C338.906 331.777 338.757 331.886 338.583 331.956C338.409 332.024 338.216 332.059 338.003 332.059C337.833 332.059 337.675 332.037 337.528 331.994C337.382 331.949 337.25 331.881 337.133 331.789C337.018 331.695 336.918 331.576 336.834 331.432C336.752 331.287 336.688 331.114 336.644 330.913C336.601 330.712 336.579 330.48 336.579 330.219V329.501C336.579 329.173 336.612 328.894 336.679 328.663C336.747 328.433 336.844 328.244 336.969 328.098C337.094 327.951 337.243 327.845 337.417 327.778C337.591 327.71 337.784 327.676 337.997 327.676C338.169 327.676 338.327 327.697 338.472 327.74C338.618 327.783 338.749 327.851 338.864 327.942C338.981 328.032 339.081 328.149 339.163 328.294C339.245 328.437 339.308 328.608 339.351 328.81C339.396 329.009 339.418 329.239 339.418 329.501ZM338.645 330.324V329.393C338.645 329.229 338.635 329.086 338.615 328.965C338.598 328.842 338.571 328.737 338.536 328.651C338.501 328.565 338.457 328.496 338.404 328.443C338.352 328.389 338.291 328.349 338.223 328.323C338.154 328.298 338.079 328.285 337.997 328.285C337.896 328.285 337.805 328.306 337.725 328.347C337.645 328.386 337.577 328.448 337.522 328.534C337.468 328.62 337.426 328.734 337.396 328.877C337.369 329.018 337.355 329.189 337.355 329.393V330.324C337.355 330.488 337.364 330.632 337.382 330.755C337.401 330.878 337.429 330.983 337.464 331.071C337.501 331.159 337.545 331.231 337.596 331.288C337.648 331.343 337.709 331.384 337.777 331.411C337.846 331.437 337.921 331.449 338.003 331.449C338.106 331.449 338.197 331.429 338.275 331.388C338.355 331.347 338.423 331.282 338.478 331.194C338.532 331.104 338.573 330.988 338.601 330.846C338.63 330.701 338.645 330.527 338.645 330.324ZM339.418 338.501V339.219C339.418 339.547 339.385 339.827 339.318 340.06C339.252 340.292 339.156 340.482 339.031 340.631C338.906 340.777 338.757 340.886 338.583 340.956C338.409 341.024 338.216 341.059 338.003 341.059C337.833 341.059 337.675 341.037 337.528 340.994C337.382 340.949 337.25 340.881 337.133 340.789C337.018 340.695 336.918 340.576 336.834 340.432C336.752 340.287 336.688 340.114 336.644 339.913C336.601 339.712 336.579 339.48 336.579 339.219V338.501C336.579 338.173 336.612 337.894 336.679 337.663C336.747 337.433 336.844 337.244 336.969 337.098C337.094 336.951 337.243 336.845 337.417 336.778C337.591 336.71 337.784 336.676 337.997 336.676C338.169 336.676 338.327 336.697 338.472 336.74C338.618 336.783 338.749 336.851 338.864 336.942C338.981 337.032 339.081 337.149 339.163 337.294C339.245 337.437 339.308 337.608 339.351 337.81C339.396 338.009 339.418 338.239 339.418 338.501ZM338.645 339.324V338.393C338.645 338.229 338.635 338.086 338.615 337.965C338.598 337.842 338.571 337.737 338.536 337.651C338.501 337.565 338.457 337.496 338.404 337.443C338.352 337.389 338.291 337.349 338.223 337.323C338.154 337.298 338.079 337.285 337.997 337.285C337.896 337.285 337.805 337.306 337.725 337.347C337.645 337.386 337.577 337.448 337.522 337.534C337.468 337.62 337.426 337.734 337.396 337.877C337.369 338.018 337.355 338.189 337.355 338.393V339.324C337.355 339.488 337.364 339.632 337.382 339.755C337.401 339.878 337.429 339.983 337.464 340.071C337.501 340.159 337.545 340.231 337.596 340.288C337.648 340.343 337.709 340.384 337.777 340.411C337.846 340.437 337.921 340.449 338.003 340.449C338.106 340.449 338.197 340.429 338.275 340.388C338.355 340.347 338.423 340.282 338.478 340.194C338.532 340.104 338.573 339.988 338.601 339.846C338.63 339.701 338.645 339.527 338.645 339.324ZM338.586 345.723V350H337.81V346.628L336.781 346.968V346.341L338.498 345.723H338.586ZM338.586 354.723V359H337.81V355.628L336.781 355.968V355.341L338.498 354.723H338.586Z" fill="white"/>
<path opacity="0.6" d="M339.418 95.501V96.2188C339.418 96.5469 339.385 96.8271 339.318 97.0596C339.252 97.292 339.156 97.4824 339.031 97.6309C338.906 97.7773 338.757 97.8857 338.583 97.9561C338.409 98.0244 338.216 98.0586 338.003 98.0586C337.833 98.0586 337.675 98.0371 337.528 97.9941C337.382 97.9492 337.25 97.8809 337.133 97.7891C337.018 97.6953 336.918 97.5762 336.834 97.4316C336.752 97.2871 336.688 97.1143 336.644 96.9131C336.601 96.7119 336.579 96.4805 336.579 96.2188V95.501C336.579 95.1729 336.612 94.8936 336.679 94.6631C336.747 94.4326 336.844 94.2441 336.969 94.0977C337.094 93.9512 337.243 93.8447 337.417 93.7783C337.591 93.71 337.784 93.6758 337.997 93.6758C338.169 93.6758 338.327 93.6973 338.472 93.7402C338.618 93.7832 338.749 93.8506 338.864 93.9424C338.981 94.0322 339.081 94.1494 339.163 94.2939C339.245 94.4365 339.308 94.6084 339.351 94.8096C339.396 95.0088 339.418 95.2393 339.418 95.501ZM338.645 96.3242V95.3926C338.645 95.2285 338.635 95.0859 338.615 94.9648C338.598 94.8418 338.571 94.7373 338.536 94.6514C338.501 94.5654 338.457 94.4961 338.404 94.4434C338.352 94.3887 338.291 94.3486 338.223 94.3232C338.154 94.2979 338.079 94.2852 337.997 94.2852C337.896 94.2852 337.805 94.3057 337.725 94.3467C337.645 94.3857 337.577 94.4482 337.522 94.5342C337.468 94.6201 337.426 94.7344 337.396 94.877C337.369 95.0176 337.355 95.1895 337.355 95.3926V96.3242C337.355 96.4883 337.364 96.6318 337.382 96.7549C337.401 96.8779 337.429 96.9834 337.464 97.0713C337.501 97.1592 337.545 97.2314 337.596 97.2881C337.648 97.3428 337.709 97.3838 337.777 97.4111C337.846 97.4365 337.921 97.4492 338.003 97.4492C338.106 97.4492 338.197 97.4287 338.275 97.3877C338.355 97.3467 338.423 97.2822 338.478 97.1943C338.532 97.1045 338.573 96.9883 338.601 96.8457C338.63 96.7012 338.645 96.5273 338.645 96.3242ZM338.586 102.723V107H337.81V103.628L336.781 103.968V103.341L338.498 102.723H338.586ZM339.418 113.501V114.219C339.418 114.547 339.385 114.827 339.318 115.06C339.252 115.292 339.156 115.482 339.031 115.631C338.906 115.777 338.757 115.886 338.583 115.956C338.409 116.024 338.216 116.059 338.003 116.059C337.833 116.059 337.675 116.037 337.528 115.994C337.382 115.949 337.25 115.881 337.133 115.789C337.018 115.695 336.918 115.576 336.834 115.432C336.752 115.287 336.688 115.114 336.644 114.913C336.601 114.712 336.579 114.48 336.579 114.219V113.501C336.579 113.173 336.612 112.894 336.679 112.663C336.747 112.433 336.844 112.244 336.969 112.098C337.094 111.951 337.243 111.845 337.417 111.778C337.591 111.71 337.784 111.676 337.997 111.676C338.169 111.676 338.327 111.697 338.472 111.74C338.618 111.783 338.749 111.851 338.864 111.942C338.981 112.032 339.081 112.149 339.163 112.294C339.245 112.437 339.308 112.608 339.351 112.81C339.396 113.009 339.418 113.239 339.418 113.501ZM338.645 114.324V113.393C338.645 113.229 338.635 113.086 338.615 112.965C338.598 112.842 338.571 112.737 338.536 112.651C338.501 112.565 338.457 112.496 338.404 112.443C338.352 112.389 338.291 112.349 338.223 112.323C338.154 112.298 338.079 112.285 337.997 112.285C337.896 112.285 337.805 112.306 337.725 112.347C337.645 112.386 337.577 112.448 337.522 112.534C337.468 112.62 337.426 112.734 337.396 112.877C337.369 113.018 337.355 113.189 337.355 113.393V114.324C337.355 114.488 337.364 114.632 337.382 114.755C337.401 114.878 337.429 114.983 337.464 115.071C337.501 115.159 337.545 115.231 337.596 115.288C337.648 115.343 337.709 115.384 337.777 115.411C337.846 115.437 337.921 115.449 338.003 115.449C338.106 115.449 338.197 115.429 338.275 115.388C338.355 115.347 338.423 115.282 338.478 115.194C338.532 115.104 338.573 114.988 338.601 114.846C338.63 114.701 338.645 114.527 338.645 114.324ZM338.586 120.723V125H337.81V121.628L336.781 121.968V121.341L338.498 120.723H338.586ZM338.586 129.723V134H337.81V130.628L336.781 130.968V130.341L338.498 129.723H338.586ZM339.418 140.501V141.219C339.418 141.547 339.385 141.827 339.318 142.06C339.252 142.292 339.156 142.482 339.031 142.631C338.906 142.777 338.757 142.886 338.583 142.956C338.409 143.024 338.216 143.059 338.003 143.059C337.833 143.059 337.675 143.037 337.528 142.994C337.382 142.949 337.25 142.881 337.133 142.789C337.018 142.695 336.918 142.576 336.834 142.432C336.752 142.287 336.688 142.114 336.644 141.913C336.601 141.712 336.579 141.48 336.579 141.219V140.501C336.579 140.173 336.612 139.894 336.679 139.663C336.747 139.433 336.844 139.244 336.969 139.098C337.094 138.951 337.243 138.845 337.417 138.778C337.591 138.71 337.784 138.676 337.997 138.676C338.169 138.676 338.327 138.697 338.472 138.74C338.618 138.783 338.749 138.851 338.864 138.942C338.981 139.032 339.081 139.149 339.163 139.294C339.245 139.437 339.308 139.608 339.351 139.81C339.396 140.009 339.418 140.239 339.418 140.501ZM338.645 141.324V140.393C338.645 140.229 338.635 140.086 338.615 139.965C338.598 139.842 338.571 139.737 338.536 139.651C338.501 139.565 338.457 139.496 338.404 139.443C338.352 139.389 338.291 139.349 338.223 139.323C338.154 139.298 338.079 139.285 337.997 139.285C337.896 139.285 337.805 139.306 337.725 139.347C337.645 139.386 337.577 139.448 337.522 139.534C337.468 139.62 337.426 139.734 337.396 139.877C337.369 140.018 337.355 140.189 337.355 140.393V141.324C337.355 141.488 337.364 141.632 337.382 141.755C337.401 141.878 337.429 141.983 337.464 142.071C337.501 142.159 337.545 142.231 337.596 142.288C337.648 142.343 337.709 142.384 337.777 142.411C337.846 142.437 337.921 142.449 338.003 142.449C338.106 142.449 338.197 142.429 338.275 142.388C338.355 142.347 338.423 142.282 338.478 142.194C338.532 142.104 338.573 141.988 338.601 141.846C338.63 141.701 338.645 141.527 338.645 141.324ZM338.586 147.723V152H337.81V148.628L336.781 148.968V148.341L338.498 147.723H338.586ZM338.586 156.723V161H337.81V157.628L336.781 157.968V157.341L338.498 156.723H338.586ZM339.418 167.501V168.219C339.418 168.547 339.385 168.827 339.318 169.06C339.252 169.292 339.156 169.482 339.031 169.631C338.906 169.777 338.757 169.886 338.583 169.956C338.409 170.024 338.216 170.059 338.003 170.059C337.833 170.059 337.675 170.037 337.528 169.994C337.382 169.949 337.25 169.881 337.133 169.789C337.018 169.695 336.918 169.576 336.834 169.432C336.752 169.287 336.688 169.114 336.644 168.913C336.601 168.712 336.579 168.48 336.579 168.219V167.501C336.579 167.173 336.612 166.894 336.679 166.663C336.747 166.433 336.844 166.244 336.969 166.098C337.094 165.951 337.243 165.845 337.417 165.778C337.591 165.71 337.784 165.676 337.997 165.676C338.169 165.676 338.327 165.697 338.472 165.74C338.618 165.783 338.749 165.851 338.864 165.942C338.981 166.032 339.081 166.149 339.163 166.294C339.245 166.437 339.308 166.608 339.351 166.81C339.396 167.009 339.418 167.239 339.418 167.501ZM338.645 168.324V167.393C338.645 167.229 338.635 167.086 338.615 166.965C338.598 166.842 338.571 166.737 338.536 166.651C338.501 166.565 338.457 166.496 338.404 166.443C338.352 166.389 338.291 166.349 338.223 166.323C338.154 166.298 338.079 166.285 337.997 166.285C337.896 166.285 337.805 166.306 337.725 166.347C337.645 166.386 337.577 166.448 337.522 166.534C337.468 166.62 337.426 166.734 337.396 166.877C337.369 167.018 337.355 167.189 337.355 167.393V168.324C337.355 168.488 337.364 168.632 337.382 168.755C337.401 168.878 337.429 168.983 337.464 169.071C337.501 169.159 337.545 169.231 337.596 169.288C337.648 169.343 337.709 169.384 337.777 169.411C337.846 169.437 337.921 169.449 338.003 169.449C338.106 169.449 338.197 169.429 338.275 169.388C338.355 169.347 338.423 169.282 338.478 169.194C338.532 169.104 338.573 168.988 338.601 168.846C338.63 168.701 338.645 168.527 338.645 168.324ZM339.418 176.501V177.219C339.418 177.547 339.385 177.827 339.318 178.06C339.252 178.292 339.156 178.482 339.031 178.631C338.906 178.777 338.757 178.886 338.583 178.956C338.409 179.024 338.216 179.059 338.003 179.059C337.833 179.059 337.675 179.037 337.528 178.994C337.382 178.949 337.25 178.881 337.133 178.789C337.018 178.695 336.918 178.576 336.834 178.432C336.752 178.287 336.688 178.114 336.644 177.913C336.601 177.712 336.579 177.48 336.579 177.219V176.501C336.579 176.173 336.612 175.894 336.679 175.663C336.747 175.433 336.844 175.244 336.969 175.098C337.094 174.951 337.243 174.845 337.417 174.778C337.591 174.71 337.784 174.676 337.997 174.676C338.169 174.676 338.327 174.697 338.472 174.74C338.618 174.783 338.749 174.851 338.864 174.942C338.981 175.032 339.081 175.149 339.163 175.294C339.245 175.437 339.308 175.608 339.351 175.81C339.396 176.009 339.418 176.239 339.418 176.501ZM338.645 177.324V176.393C338.645 176.229 338.635 176.086 338.615 175.965C338.598 175.842 338.571 175.737 338.536 175.651C338.501 175.565 338.457 175.496 338.404 175.443C338.352 175.389 338.291 175.349 338.223 175.323C338.154 175.298 338.079 175.285 337.997 175.285C337.896 175.285 337.805 175.306 337.725 175.347C337.645 175.386 337.577 175.448 337.522 175.534C337.468 175.62 337.426 175.734 337.396 175.877C337.369 176.018 337.355 176.189 337.355 176.393V177.324C337.355 177.488 337.364 177.632 337.382 177.755C337.401 177.878 337.429 177.983 337.464 178.071C337.501 178.159 337.545 178.231 337.596 178.288C337.648 178.343 337.709 178.384 337.777 178.411C337.846 178.437 337.921 178.449 338.003 178.449C338.106 178.449 338.197 178.429 338.275 178.388C338.355 178.347 338.423 178.282 338.478 178.194C338.532 178.104 338.573 177.988 338.601 177.846C338.63 177.701 338.645 177.527 338.645 177.324ZM338.586 183.723V188H337.81V184.628L336.781 184.968V184.341L338.498 183.723H338.586ZM339.418 194.501V195.219C339.418 195.547 339.385 195.827 339.318 196.06C339.252 196.292 339.156 196.482 339.031 196.631C338.906 196.777 338.757 196.886 338.583 196.956C338.409 197.024 338.216 197.059 338.003 197.059C337.833 197.059 337.675 197.037 337.528 196.994C337.382 196.949 337.25 196.881 337.133 196.789C337.018 196.695 336.918 196.576 336.834 196.432C336.752 196.287 336.688 196.114 336.644 195.913C336.601 195.712 336.579 195.48 336.579 195.219V194.501C336.579 194.173 336.612 193.894 336.679 193.663C336.747 193.433 336.844 193.244 336.969 193.098C337.094 192.951 337.243 192.845 337.417 192.778C337.591 192.71 337.784 192.676 337.997 192.676C338.169 192.676 338.327 192.697 338.472 192.74C338.618 192.783 338.749 192.851 338.864 192.942C338.981 193.032 339.081 193.149 339.163 193.294C339.245 193.437 339.308 193.608 339.351 193.81C339.396 194.009 339.418 194.239 339.418 194.501ZM338.645 195.324V194.393C338.645 194.229 338.635 194.086 338.615 193.965C338.598 193.842 338.571 193.737 338.536 193.651C338.501 193.565 338.457 193.496 338.404 193.443C338.352 193.389 338.291 193.349 338.223 193.323C338.154 193.298 338.079 193.285 337.997 193.285C337.896 193.285 337.805 193.306 337.725 193.347C337.645 193.386 337.577 193.448 337.522 193.534C337.468 193.62 337.426 193.734 337.396 193.877C337.369 194.018 337.355 194.189 337.355 194.393V195.324C337.355 195.488 337.364 195.632 337.382 195.755C337.401 195.878 337.429 195.983 337.464 196.071C337.501 196.159 337.545 196.231 337.596 196.288C337.648 196.343 337.709 196.384 337.777 196.411C337.846 196.437 337.921 196.449 338.003 196.449C338.106 196.449 338.197 196.429 338.275 196.388C338.355 196.347 338.423 196.282 338.478 196.194C338.532 196.104 338.573 195.988 338.601 195.846C338.63 195.701 338.645 195.527 338.645 195.324ZM339.418 203.501V204.219C339.418 204.547 339.385 204.827 339.318 205.06C339.252 205.292 339.156 205.482 339.031 205.631C338.906 205.777 338.757 205.886 338.583 205.956C338.409 206.024 338.216 206.059 338.003 206.059C337.833 206.059 337.675 206.037 337.528 205.994C337.382 205.949 337.25 205.881 337.133 205.789C337.018 205.695 336.918 205.576 336.834 205.432C336.752 205.287 336.688 205.114 336.644 204.913C336.601 204.712 336.579 204.48 336.579 204.219V203.501C336.579 203.173 336.612 202.894 336.679 202.663C336.747 202.433 336.844 202.244 336.969 202.098C337.094 201.951 337.243 201.845 337.417 201.778C337.591 201.71 337.784 201.676 337.997 201.676C338.169 201.676 338.327 201.697 338.472 201.74C338.618 201.783 338.749 201.851 338.864 201.942C338.981 202.032 339.081 202.149 339.163 202.294C339.245 202.437 339.308 202.608 339.351 202.81C339.396 203.009 339.418 203.239 339.418 203.501ZM338.645 204.324V203.393C338.645 203.229 338.635 203.086 338.615 202.965C338.598 202.842 338.571 202.737 338.536 202.651C338.501 202.565 338.457 202.496 338.404 202.443C338.352 202.389 338.291 202.349 338.223 202.323C338.154 202.298 338.079 202.285 337.997 202.285C337.896 202.285 337.805 202.306 337.725 202.347C337.645 202.386 337.577 202.448 337.522 202.534C337.468 202.62 337.426 202.734 337.396 202.877C337.369 203.018 337.355 203.189 337.355 203.393V204.324C337.355 204.488 337.364 204.632 337.382 204.755C337.401 204.878 337.429 204.983 337.464 205.071C337.501 205.159 337.545 205.231 337.596 205.288C337.648 205.343 337.709 205.384 337.777 205.411C337.846 205.437 337.921 205.449 338.003 205.449C338.106 205.449 338.197 205.429 338.275 205.388C338.355 205.347 338.423 205.282 338.478 205.194C338.532 205.104 338.573 204.988 338.601 204.846C338.63 204.701 338.645 204.527 338.645 204.324ZM338.586 210.723V215H337.81V211.628L336.781 211.968V211.341L338.498 210.723H338.586ZM338.586 219.723V224H337.81V220.628L336.781 220.968V220.341L338.498 219.723H338.586Z" fill="white"/>
<defs>
<filter id="filter0_f_4302_4186" x="331" y="54" width="14" height="403" filterUnits="userSpaceOnUse" color-interpolation-filters="sRGB">
<feFlood flood-opacity="0" result="BackgroundImageFix"/>
<feBlend mode="normal" in="SourceGraphic" in2="BackgroundImageFix" result="shape"/>
<feGaussianBlur stdDeviation="2" result="effect1_foregroundBlur_4302_4186"/>
</filter>
<filter id="filter1_f_4302_4186" x="664" y="155" width="26" height="415" filterUnits="userSpaceOnUse" color-interpolation-filters="sRGB">
<feFlood flood-opacity="0" result="BackgroundImageFix"/>
<feBlend mode="normal" in="SourceGraphic" in2="BackgroundImageFix" result="shape"/>
<feGaussianBlur stdDeviation="5" result="effect1_foregroundBlur_4302_4186"/>
</filter>
<filter id="filter2_f_4302_4186" x="238.5" y="64" width="9" height="408" filterUnits="userSpaceOnUse" color-interpolation-filters="sRGB">
<feFlood flood-opacity="0" result="BackgroundImageFix"/>
<feBlend mode="normal" in="SourceGraphic" in2="BackgroundImageFix" result="shape"/>
<feGaussianBlur stdDeviation="2" result="effect1_foregroundBlur_4302_4186"/>
</filter>
<filter id="filter3_f_4302_4186" x="35.5" y="89" width="9" height="408" filterUnits="userSpaceOnUse" color-interpolation-filters="sRGB">
<feFlood flood-opacity="0" result="BackgroundImageFix"/>
<feBlend mode="normal" in="SourceGraphic" in2="BackgroundImageFix" result="shape"/>
<feGaussianBlur stdDeviation="2" result="effect1_foregroundBlur_4302_4186"/>
</filter>
<filter id="filter4_f_4302_4186" x="640.5" y="64" width="9" height="408" filterUnits="userSpaceOnUse" color-interpolation-filters="sRGB">
<feFlood flood-opacity="0" result="BackgroundImageFix"/>
<feBlend mode="normal" in="SourceGraphic" in2="BackgroundImageFix" result="shape"/>
<feGaussianBlur stdDeviation="2" result="effect1_foregroundBlur_4302_4186"/>
</filter>
<filter id="filter5_f_4302_4186" x="272.5" y="135" width="5" height="256" filterUnits="userSpaceOnUse" color-interpolation-filters="sRGB">
<feFlood flood-opacity="0" result="BackgroundImageFix"/>
<feBlend mode="normal" in="SourceGraphic" in2="BackgroundImageFix" result="shape"/>
<feGaussianBlur stdDeviation="1" result="effect1_foregroundBlur_4302_4186"/>
</filter>
<filter id="filter6_f_4302_4186" x="598.5" y="133" width="9" height="260" filterUnits="userSpaceOnUse" color-interpolation-filters="sRGB">
<feFlood flood-opacity="0" result="BackgroundImageFix"/>
<feBlend mode="normal" in="SourceGraphic" in2="BackgroundImageFix" result="shape"/>
<feGaussianBlur stdDeviation="2" result="effect1_foregroundBlur_4302_4186"/>
</filter>
<filter id="filter7_f_4302_4186" x="590.5" y="81" width="9" height="164" filterUnits="userSpaceOnUse" color-interpolation-filters="sRGB">
<feFlood flood-opacity="0" result="BackgroundImageFix"/>
<feBlend mode="normal" in="SourceGraphic" in2="BackgroundImageFix" result="shape"/>
<feGaussianBlur stdDeviation="2" result="effect1_foregroundBlur_4302_4186"/>
</filter>
<filter id="filter8_f_4302_4186" x="704.5" y="33" width="5" height="160" filterUnits="userSpaceOnUse" color-interpolation-filters="sRGB">
<feFlood flood-opacity="0" result="BackgroundImageFix"/>
<feBlend mode="normal" in="SourceGraphic" in2="BackgroundImageFix" result="shape"/>
<feGaussianBlur stdDeviation="1" result="effect1_foregroundBlur_4302_4186"/>
</filter>
<filter id="filter9_d_4302_4186" x="718.5" y="64" width="9" height="164" filterUnits="userSpaceOnUse" color-interpolation-filters="sRGB">
<feFlood flood-opacity="0" result="BackgroundImageFix"/>
<feColorMatrix in="SourceAlpha" type="matrix" values="0 0 0 0 0 0 0 0 0 0 0 0 0 0 0 0 0 0 127 0" result="hardAlpha"/>
<feOffset dy="4"/>
<feGaussianBlur stdDeviation="2"/>
<feComposite in2="hardAlpha" operator="out"/>
<feColorMatrix type="matrix" values="0 0 0 0 0 0 0 0 0 0 0 0 0 0 0 0 0 0 0.25 0"/>
<feBlend mode="normal" in2="BackgroundImageFix" result="effect1_dropShadow_4302_4186"/>
<feBlend mode="normal" in="SourceGraphic" in2="effect1_dropShadow_4302_4186" result="shape"/>
</filter>
<filter id="filter10_d_4302_4186" x="520.5" y="93" width="9" height="91" filterUnits="userSpaceOnUse" color-interpolation-filters="sRGB">
<feFlood flood-opacity="0" result="BackgroundImageFix"/>
<feColorMatrix in="SourceAlpha" type="matrix" values="0 0 0 0 0 0 0 0 0 0 0 0 0 0 0 0 0 0 127 0" result="hardAlpha"/>
<feOffset dy="4"/>
<feGaussianBlur stdDeviation="2"/>
<feComposite in2="hardAlpha" operator="out"/>
<feColorMatrix type="matrix" values="0 0 0 0 0 0 0 0 0 0 0 0 0 0 0 0 0 0 0.25 0"/>
<feBlend mode="normal" in2="BackgroundImageFix" result="effect1_dropShadow_4302_4186"/>
<feBlend mode="normal" in="SourceGraphic" in2="effect1_dropShadow_4302_4186" result="shape"/>
</filter>
<filter id="filter11_d_4302_4186" x="11.5" y="100" width="9" height="164" filterUnits="userSpaceOnUse" color-interpolation-filters="sRGB">
<feFlood flood-opacity="0" result="BackgroundImageFix"/>
<feColorMatrix in="SourceAlpha" type="matrix" values="0 0 0 0 0 0 0 0 0 0 0 0 0 0 0 0 0 0 127 0" result="hardAlpha"/>
<feOffset dy="4"/>
<feGaussianBlur stdDeviation="2"/>
<feComposite in2="hardAlpha" operator="out"/>
<feColorMatrix type="matrix" values="0 0 0 0 0 0 0 0 0 0 0 0 0 0 0 0 0 0 0.25 0"/>
<feBlend mode="normal" in2="BackgroundImageFix" result="effect1_dropShadow_4302_4186"/>
<feBlend mode="normal" in="SourceGraphic" in2="effect1_dropShadow_4302_4186" result="shape"/>
</filter>
<filter id="filter12_f_4302_4186" x="0.5" y="64" width="9" height="164" filterUnits="userSpaceOnUse" color-interpolation-filters="sRGB">
<feFlood flood-opacity="0" result="BackgroundImageFix"/>
<feBlend mode="normal" in="SourceGraphic" in2="BackgroundImageFix" result="shape"/>
<feGaussianBlur stdDeviation="2" result="effect1_foregroundBlur_4302_4186"/>
</filter>
<filter id="filter13_f_4302_4186" x="293.5" y="174" width="9" height="164" filterUnits="userSpaceOnUse" color-interpolation-filters="sRGB">
<feFlood flood-opacity="0" result="BackgroundImageFix"/>
<feBlend mode="normal" in="SourceGraphic" in2="BackgroundImageFix" result="shape"/>
<feGaussianBlur stdDeviation="2" result="effect1_foregroundBlur_4302_4186"/>
</filter>
<filter id="filter14_f_4302_4186" x="59.5" y="-31" width="9" height="190" filterUnits="userSpaceOnUse" color-interpolation-filters="sRGB">
<feFlood flood-opacity="0" result="BackgroundImageFix"/>
<feBlend mode="normal" in="SourceGraphic" in2="BackgroundImageFix" result="shape"/>
<feGaussianBlur stdDeviation="2" result="effect1_foregroundBlur_4302_4186"/>
</filter>
<filter id="filter15_f_4302_4186" x="532.5" y="-4" width="9" height="164" filterUnits="userSpaceOnUse" color-interpolation-filters="sRGB">
<feFlood flood-opacity="0" result="BackgroundImageFix"/>
<feBlend mode="normal" in="SourceGraphic" in2="BackgroundImageFix" result="shape"/>
<feGaussianBlur stdDeviation="2" result="effect1_foregroundBlur_4302_4186"/>
</filter>
<filter id="filter16_f_4302_4186" x="151.5" y="86" width="5" height="160" filterUnits="userSpaceOnUse" color-interpolation-filters="sRGB">
<feFlood flood-opacity="0" result="BackgroundImageFix"/>
<feBlend mode="normal" in="SourceGraphic" in2="BackgroundImageFix" result="shape"/>
<feGaussianBlur stdDeviation="1" result="effect1_foregroundBlur_4302_4186"/>
</filter>
<filter id="filter17_f_4302_4186" x="385.5" y="94" width="9" height="164" filterUnits="userSpaceOnUse" color-interpolation-filters="sRGB">
<feFlood flood-opacity="0" result="BackgroundImageFix"/>
<feBlend mode="normal" in="SourceGraphic" in2="BackgroundImageFix" result="shape"/>
<feGaussianBlur stdDeviation="2" result="effect1_foregroundBlur_4302_4186"/>
</filter>
<filter id="filter18_f_4302_4186" x="506.5" y="56" width="9" height="164" filterUnits="userSpaceOnUse" color-interpolation-filters="sRGB">
<feFlood flood-opacity="0" result="BackgroundImageFix"/>
<feBlend mode="normal" in="SourceGraphic" in2="BackgroundImageFix" result="shape"/>
<feGaussianBlur stdDeviation="2" result="effect1_foregroundBlur_4302_4186"/>
</filter>
<filter id="filter19_f_4302_4186" x="284.5" y="81" width="9" height="164" filterUnits="userSpaceOnUse" color-interpolation-filters="sRGB">
<feFlood flood-opacity="0" result="BackgroundImageFix"/>
<feBlend mode="normal" in="SourceGraphic" in2="BackgroundImageFix" result="shape"/>
<feGaussianBlur stdDeviation="2" result="effect1_foregroundBlur_4302_4186"/>
</filter>
<filter id="filter20_f_4302_4186" x="126.5" y="155" width="9" height="164" filterUnits="userSpaceOnUse" color-interpolation-filters="sRGB">
<feFlood flood-opacity="0" result="BackgroundImageFix"/>
<feBlend mode="normal" in="SourceGraphic" in2="BackgroundImageFix" result="shape"/>
<feGaussianBlur stdDeviation="2" result="effect1_foregroundBlur_4302_4186"/>
</filter>
<filter id="filter21_f_4302_4186" x="737.5" y="-119" width="9" height="322" filterUnits="userSpaceOnUse" color-interpolation-filters="sRGB">
<feFlood flood-opacity="0" result="BackgroundImageFix"/>
<feBlend mode="normal" in="SourceGraphic" in2="BackgroundImageFix" result="shape"/>
<feGaussianBlur stdDeviation="2" result="effect1_foregroundBlur_4302_4186"/>
</filter>
<linearGradient id="paint0_linear_4302_4186" x1="338.5" y1="58" x2="338.5" y2="453" gradientUnits="userSpaceOnUse">
<stop stop-color="#5CB1FF" stop-opacity="0"/>
<stop offset="0.546875" stop-color="#5CB1FF"/>
<stop offset="1" stop-color="#5CB1FF" stop-opacity="0"/>
</linearGradient>
<linearGradient id="paint1_linear_4302_4186" x1="677.5" y1="165" x2="677.5" y2="560" gradientUnits="userSpaceOnUse">
<stop stop-color="#5CB1FF" stop-opacity="0"/>
<stop offset="0.546875" stop-color="#5CB1FF"/>
<stop offset="1" stop-color="#5CB1FF" stop-opacity="0"/>
</linearGradient>
<linearGradient id="paint2_linear_4302_4186" x1="243.5" y1="68" x2="243.5" y2="468" gradientUnits="userSpaceOnUse">
<stop stop-color="#5CB1FF" stop-opacity="0"/>
<stop offset="0.546875" stop-color="#5CB1FF"/>
<stop offset="1" stop-color="#5CB1FF" stop-opacity="0"/>
</linearGradient>
<linearGradient id="paint3_linear_4302_4186" x1="40.5" y1="93" x2="40.5" y2="493" gradientUnits="userSpaceOnUse">
<stop stop-color="#5CB1FF" stop-opacity="0"/>
<stop offset="0.546875" stop-color="#5CB1FF"/>
<stop offset="1" stop-color="#5CB1FF" stop-opacity="0"/>
</linearGradient>
<linearGradient id="paint4_linear_4302_4186" x1="645.5" y1="68" x2="645.5" y2="468" gradientUnits="userSpaceOnUse">
<stop stop-color="#5CB1FF" stop-opacity="0"/>
<stop offset="0.546875" stop-color="#5CB1FF"/>
<stop offset="1" stop-color="#5CB1FF" stop-opacity="0"/>
</linearGradient>
<linearGradient id="paint5_linear_4302_4186" x1="275.5" y1="137" x2="275.5" y2="389" gradientUnits="userSpaceOnUse">
<stop stop-color="#5CB1FF" stop-opacity="0"/>
<stop offset="1" stop-color="#5CB1FF"/>
</linearGradient>
<linearGradient id="paint6_linear_4302_4186" x1="603.5" y1="137" x2="603.5" y2="389" gradientUnits="userSpaceOnUse">
<stop stop-color="#5CB1FF" stop-opacity="0"/>
<stop offset="1" stop-color="#5CB1FF"/>
</linearGradient>
<linearGradient id="paint7_linear_4302_4186" x1="577.5" y1="98" x2="577.5" y2="254" gradientUnits="userSpaceOnUse">
<stop stop-color="#5CB1FF" stop-opacity="0"/>
<stop offset="1" stop-color="#5CB1FF"/>
</linearGradient>
<linearGradient id="paint8_linear_4302_4186" x1="142.5" y1="212" x2="142.5" y2="303" gradientUnits="userSpaceOnUse">
<stop stop-color="#5CB1FF" stop-opacity="0"/>
<stop offset="1" stop-color="#5CB1FF"/>
</linearGradient>
<linearGradient id="paint9_linear_4302_4186" x1="595.5" y1="85" x2="595.5" y2="241" gradientUnits="userSpaceOnUse">
<stop stop-color="#5CB1FF" stop-opacity="0"/>
<stop offset="0.546875" stop-color="#5CB1FF"/>
<stop offset="1" stop-color="#5CB1FF" stop-opacity="0"/>
</linearGradient>
<linearGradient id="paint10_linear_4302_4186" x1="707.5" y1="35" x2="707.5" y2="191" gradientUnits="userSpaceOnUse">
<stop stop-color="#5CB1FF" stop-opacity="0"/>
<stop offset="0.546875" stop-color="#5CB1FF"/>
<stop offset="1" stop-color="#5CB1FF" stop-opacity="0"/>
</linearGradient>
<linearGradient id="paint11_linear_4302_4186" x1="723.5" y1="64" x2="723.5" y2="220" gradientUnits="userSpaceOnUse">
<stop stop-color="#5CB1FF" stop-opacity="0"/>
<stop offset="0.546875" stop-color="#5CB1FF"/>
<stop offset="1" stop-color="#5CB1FF" stop-opacity="0"/>
</linearGradient>
<linearGradient id="paint12_linear_4302_4186" x1="525.5" y1="93" x2="525.5" y2="176" gradientUnits="userSpaceOnUse">
<stop stop-color="#5CB1FF" stop-opacity="0"/>
<stop offset="0.546875" stop-color="#5CB1FF"/>
<stop offset="1" stop-color="#5CB1FF" stop-opacity="0"/>
</linearGradient>
<linearGradient id="paint13_linear_4302_4186" x1="16.5" y1="100" x2="16.5" y2="256" gradientUnits="userSpaceOnUse">
<stop stop-color="#5CB1FF" stop-opacity="0"/>
<stop offset="0.546875" stop-color="#5CB1FF"/>
<stop offset="1" stop-color="#5CB1FF" stop-opacity="0"/>
</linearGradient>
<linearGradient id="paint14_linear_4302_4186" x1="5.5" y1="68" x2="5.5" y2="224" gradientUnits="userSpaceOnUse">
<stop stop-color="#5CB1FF" stop-opacity="0"/>
<stop offset="0.546875" stop-color="#5CB1FF"/>
<stop offset="1" stop-color="#5CB1FF" stop-opacity="0"/>
</linearGradient>
<linearGradient id="paint15_linear_4302_4186" x1="298.5" y1="178" x2="298.5" y2="334" gradientUnits="userSpaceOnUse">
<stop stop-color="#5CB1FF" stop-opacity="0"/>
<stop offset="1" stop-color="#5CB1FF"/>
</linearGradient>
<linearGradient id="paint16_linear_4302_4186" x1="64.5" y1="-27" x2="64.5" y2="155" gradientUnits="userSpaceOnUse">
<stop stop-color="#5CB1FF" stop-opacity="0"/>
<stop offset="1" stop-color="#5CB1FF"/>
</linearGradient>
<linearGradient id="paint17_linear_4302_4186" x1="537.5" y1="-9.59277e-09" x2="537.5" y2="156" gradientUnits="userSpaceOnUse">
<stop stop-color="#5CB1FF" stop-opacity="0"/>
<stop offset="1" stop-color="#5CB1FF"/>
</linearGradient>
<linearGradient id="paint18_linear_4302_4186" x1="154.5" y1="88" x2="154.5" y2="244" gradientUnits="userSpaceOnUse">
<stop stop-color="#5CB1FF" stop-opacity="0"/>
<stop offset="1" stop-color="#5CB1FF"/>
</linearGradient>
<linearGradient id="paint19_linear_4302_4186" x1="390.5" y1="98" x2="390.5" y2="254" gradientUnits="userSpaceOnUse">
<stop stop-color="#5CB1FF" stop-opacity="0"/>
<stop offset="1" stop-color="#5CB1FF"/>
</linearGradient>
<linearGradient id="paint20_linear_4302_4186" x1="511.5" y1="60" x2="511.5" y2="216" gradientUnits="userSpaceOnUse">
<stop stop-color="#5CB1FF" stop-opacity="0"/>
<stop offset="1" stop-color="#5CB1FF"/>
</linearGradient>
<linearGradient id="paint21_linear_4302_4186" x1="289.5" y1="85" x2="289.5" y2="241" gradientUnits="userSpaceOnUse">
<stop stop-color="#5CB1FF" stop-opacity="0"/>
<stop offset="0.546875" stop-color="#5CB1FF"/>
<stop offset="1" stop-color="#5CB1FF" stop-opacity="0"/>
</linearGradient>
<linearGradient id="paint22_linear_4302_4186" x1="131.5" y1="159" x2="131.5" y2="315" gradientUnits="userSpaceOnUse">
<stop stop-color="#5CB1FF" stop-opacity="0"/>
<stop offset="0.546875" stop-color="#5CB1FF"/>
<stop offset="1" stop-color="#5CB1FF" stop-opacity="0"/>
</linearGradient>
<linearGradient id="paint23_linear_4302_4186" x1="742.5" y1="-115" x2="742.5" y2="199" gradientUnits="userSpaceOnUse">
<stop stop-color="#5CB1FF" stop-opacity="0"/>
<stop offset="0.546875" stop-color="#5CB1FF"/>
<stop offset="1" stop-color="#5CB1FF" stop-opacity="0"/>
</linearGradient>
</defs>
</svg>
