<?xml version="1.0" encoding="UTF-8" standalone="no"?><svg width="74" height="28" viewBox="0 0 74 28" fill="none" xmlns="http://www.w3.org/2000/svg">
<path fill-rule="evenodd" clip-rule="evenodd" d="M13.7255 0.639893C21.082 0.639893 27.0455 6.60346 27.0455 13.9599C27.0455 21.3163 21.082 27.2799 13.7255 27.2799C12.4854 27.2799 11.2848 27.1104 10.1457 26.7934L11.2406 23.7441C11.3359 23.4799 11.5939 23.3112 11.8722 23.3306L11.9044 23.3337C11.9587 23.3402 12.012 23.345 12.0642 23.3496L12.1903 23.362C13.0241 23.4482 13.7554 23.1735 14.2514 22.584C14.7618 21.9768 14.9437 21.1236 14.7259 20.3572L14.7073 20.2942C14.534 19.7378 14.138 19.3 13.5905 19.0589C13.0164 18.8059 12.3634 18.8126 11.7988 19.0777C11.1324 19.3908 10.6143 19.7985 10.259 20.2896C10.1605 20.4258 10.0116 20.5165 9.84573 20.5419C9.68058 20.5667 9.51033 20.5252 9.37614 20.424C6.84187 18.5271 6.96765 16.1787 7.40501 15.1434L7.42407 15.0995C7.76947 15.3475 8.1361 15.5656 8.51943 15.7517C9.53442 16.2444 10.6665 16.5119 11.8317 16.5119C12.5956 16.5119 13.3735 16.397 14.1422 16.155C16.102 15.5387 17.7042 14.1957 18.6539 12.3737C19.6037 10.5518 19.7873 8.46878 19.1708 6.50875C18.6225 4.76454 17.468 3.26993 15.9208 2.30021C15.6275 2.11639 15.2413 2.20522 15.0568 2.49862C14.8731 2.79167 14.9621 3.17847 15.2551 3.36228C16.5499 4.17388 17.516 5.42486 17.9756 6.885C18.4914 8.52577 18.3377 10.2693 17.5426 11.7943C16.7478 13.3194 15.4064 14.4433 13.766 14.9596C10.8669 15.8699 7.03103 14.5074 5.93621 11.0258C5.83244 10.6958 5.48087 10.5111 5.1504 10.616C5.0226 10.6562 4.91676 10.7336 4.8411 10.8324C4.79561 10.8732 4.75537 10.9214 4.72225 10.9766C3.45629 13.0818 3.18492 15.7352 3.97812 18.2565C4.02518 18.4062 4.0744 18.5533 4.12577 18.6978L4.17785 18.8414L2.06482 20.4032C1.00748 18.4937 0.405518 16.2971 0.405518 13.9599C0.405518 6.60346 6.36908 0.639893 13.7255 0.639893ZM7.33428 23.0568C7.57115 23.2104 7.81718 23.3485 8.07207 23.4709L8.20024 23.5307L7.13015 25.535C6.72867 25.3058 6.34028 25.0562 5.96636 24.7878L7.33428 23.0568ZM5.7205 21.6034C5.92833 21.8561 6.14819 22.0912 6.37967 22.3081L6.47959 22.3999L5.11678 24.1244C4.76032 23.8223 4.41996 23.5017 4.09718 23.1641L5.7205 21.6034ZM4.61222 19.8601C4.73481 20.1108 4.86516 20.3514 5.00308 20.5816L5.08674 20.7185L3.3838 22.3555C3.11564 22.0256 2.86295 21.6826 2.62683 21.3277L4.61222 19.8601ZM11.6002 3.23588C10.9321 3.44605 10.561 4.15826 10.7711 4.82631C10.9813 5.49437 11.6933 5.8658 12.3614 5.65537C13.0297 5.4452 13.4009 4.73325 13.1907 4.0652C12.9805 3.39714 12.2686 3.02571 11.6002 3.23588Z" fill="#375FF3"/>
<path fill-rule="evenodd" clip-rule="evenodd" d="M22.6094 26.421C21.5331 26.421 20.5238 25.8852 19.8391 24.9087C19.6855 24.6891 19.7387 24.3859 19.9584 24.232C20.1783 24.0783 20.481 24.1311 20.6351 24.351C21.2826 25.2752 22.2757 25.6478 23.2917 25.3486C23.4885 25.2907 23.6764 25.2086 23.8508 25.1046C24.0819 24.9674 24.3801 25.0429 24.517 25.2731C24.6545 25.5035 24.5791 25.8017 24.3489 25.9391C24.1044 26.0849 23.841 26.1997 23.566 26.2807C23.2457 26.375 22.9246 26.421 22.6094 26.421Z" fill="#375FF3"/>
<path fill-rule="evenodd" clip-rule="evenodd" d="M37.115 13.0503V14.6074H42.2648V17.234H37.3142V19.1498H42.2648V21.7477H35.3649V23.4377H51.1314V21.7477H44.166V19.1498H49.2674V17.234H44.166V14.6074H49.348V13.0503H37.115Z" fill="#0F172A"/>
<path fill-rule="evenodd" clip-rule="evenodd" d="M34.657 11.9311L35.7544 13.3343L43.2389 7.71688L50.7026 13.3719L51.8247 11.9316L43.2394 5.4646L34.657 11.9311Z" fill="#0F172A"/>
<path fill-rule="evenodd" clip-rule="evenodd" d="M55.5667 10.1043L56.6756 11.4807L57.4166 10.8408V14.4218H59.9986L55.6724 16.3844L56.3081 17.8882L62.5773 15.0438L66.1895 16.7777V21.8046H62.1383L60.8805 23.4551L67.8026 23.4542V18.9414L68.2076 18.5909L72.3698 22.9048L73.5944 21.6361L69.542 17.4385L71.4879 15.7568L70.4139 14.4218H71.3325V9.44425L65.7226 9.44143L67.529 8.19505V6.60076H62.3236L63.2012 5.84263L62.094 4.46484L55.5667 10.1043ZM59.0393 9.43836L60.5614 8.12381H65.0918L63.5683 9.44071L59.0393 9.43836ZM64.9742 11.0464H69.3288V12.8001H64.1364L64.9742 11.0464ZM59.4795 11.0464H63.0198L62.189 12.8001H59.4795V11.0464ZM67.8039 15.5719L65.3986 14.4214H70.3288L67.8028 16.6048L67.8039 15.5719Z" fill="#0F172A"/>
<path fill-rule="evenodd" clip-rule="evenodd" d="M63.5704 15.8016L56.3527 19.0753L56.9879 20.5798L64.2165 17.3007L63.5806 15.7971L63.5704 15.8016Z" fill="#0F172A"/>
<path fill-rule="evenodd" clip-rule="evenodd" d="M64.8193 18.0251L56.515 21.793L57.15 23.297L65.454 19.5289L64.8193 18.0251Z" fill="#0F172A"/>
</svg>
