<?xml version="1.0" encoding="UTF-8" standalone="no"?><svg width="16" height="16" xmlns="http://www.w3.org/2000/svg" fill="none">

 <g>
  <title>background</title>
  <rect fill="none" id="canvas_background" height="796" width="1422" y="-1" x="-1"/>
 </g>
 <g>
  <title>Layer 1</title>
  <g id="svg_1" opacity="0.9">
   <path id="svg_2" fill="#4F53F9" d="m6.14655,3.09351l0.32299,-1.65601l3.06079,0l0.323,1.65601c0.53867,0.20367 1.03667,0.48822 1.47397,0.84722l1.5907,-0.54858l1.5304,2.6532l-1.2728,1.10614c0.0451,0.27691 0.0743,0.55885 0.0743,0.84851c0,0.28966 -0.0292,0.5716 -0.0743,0.84851l1.2728,1.10614l-1.5304,2.65315l-1.5907,-0.5485c-0.4373,0.359 -0.9353,0.6435 -1.47397,0.8472l-0.323,1.656l-3.06079,0l-0.32299,-1.656c-0.53863,-0.2037 -1.03667,-0.4882 -1.474,-0.8472l-1.59064,0.5485l-1.5304,-2.65315l1.27277,-1.10614c-0.04513,-0.27691 -0.07434,-0.55885 -0.07434,-0.84851c0,-0.28966 0.02921,-0.5716 0.07434,-0.84851l-1.27277,-1.10614l1.5304,-2.6532l1.59064,0.54858c0.43733,-0.359 0.93537,-0.64355 1.474,-0.84722zm4.47835,4.90649c0,-1.44966 -1.1753,-2.625 -2.62496,-2.625c-1.44966,0 -2.625,1.17534 -2.625,2.625c0,1.44966 1.17534,2.625 2.625,2.625c1.44966,0 2.62496,-1.17534 2.62496,-2.625z" clip-rule="evenodd" fill-rule="evenodd" opacity="0.9"/>
  </g>
 </g>
</svg>