<?xml version="1.0" encoding="UTF-8" standalone="no"?><svg width="16" height="16" xmlns="http://www.w3.org/2000/svg" fill="none">

 <g>
  <title>background</title>
  <rect fill="none" id="canvas_background" height="796" width="1422" y="-1" x="-1"/>
 </g>
 <g>
  <title>Layer 1</title>
  <g id="svg_1" opacity="0.9">
   <path id="svg_2" fill="#4F53F9" d="m3.84663,1.92969c-1.05113,0 -1.91694,0.86581 -1.91694,1.91694c0,0.8263 0.53845,1.53045 1.27796,1.79713l0,2.67573l1.27796,0l0,-2.67573c0.73951,-0.26668 1.27796,-0.97083 1.27796,-1.79713c0,-1.05113 -0.86581,-1.91694 -1.91694,-1.91694zm7.66777,0c-0.8114,0.00114 -1.53418,0.51298 -1.80464,1.27796l-2.66825,0l0,1.27796l2.667,0c0.27061,0.76541 0.99399,1.27735 1.80589,1.27796c1.0587,0 1.9169,-0.85824 1.9169,-1.91694c0,-1.0587 -0.8582,-1.91694 -1.9169,-1.91694zm-7.02879,1.91694c0,-0.36046 -0.27851,-0.63898 -0.63898,-0.63898c-0.36046,0 -0.63898,0.27852 -0.63898,0.63898c0,0.36047 0.27852,0.63898 0.63898,0.63898c0.36047,0 0.63898,-0.27851 0.63898,-0.63898zm6.38979,3.19491l0,2.55592l-1.91692,1.91694l2.55592,2.5559l2.5559,-2.5559l-1.9169,-1.91694l0,-2.55592l-1.278,0zm-8.94571,6.38976l0,-3.83385l3.83388,0l0,3.83385l-3.83388,0z" clip-rule="evenodd" fill-rule="evenodd"/>
  </g>
 </g>
</svg>