<?xml version="1.0" encoding="UTF-8" standalone="no"?><svg width="16" height="16" xmlns="http://www.w3.org/2000/svg" fill="none">

 <g>
  <title>background</title>
  <rect fill="none" id="canvas_background" height="796" width="1422" y="-1" x="-1"/>
 </g>
 <g>
  <title>Layer 1</title>
  <g id="svg_1" opacity="0.9">
   <path id="svg_2" fill="#4F53F9" d="m14.5625,5.375c0,2.17462 -1.7629,3.9375 -3.9375,3.9375c-0.4824,0 -0.94448,-0.08674 -1.37158,-0.24547l-1.48536,1.48537c-0.76958,-0.3107 -1.68372,-0.1541 -2.30756,0.4698c-0.62383,0.6238 -0.78043,1.538 -0.46979,2.3075l-1.04071,1.0408c-0.12307,0.123 -0.28999,0.1922 -0.46404,0.1922l-1.72033,0c-0.18123,0 -0.32814,-0.147 -0.32813,-0.3282l0.00008,-2.0252c0,-0.174 0.06914,-0.3409 0.19221,-0.464l5.22643,-5.22643c-0.10972,-0.362 -0.16872,-0.74604 -0.16872,-1.14387c0,-2.17462 1.76288,-3.9375 3.9375,-3.9375c2.1746,0 3.9375,1.76288 3.9375,3.9375zm-2.625,0c0,0.72487 -0.5876,1.3125 -1.3125,1.3125c-0.72487,0 -1.3125,-0.58763 -1.3125,-1.3125c0,-0.72487 0.58763,-1.3125 1.3125,-1.3125c0.7249,0 1.3125,0.58763 1.3125,1.3125z" clip-rule="evenodd" fill-rule="evenodd"/>
  </g>
 </g>
</svg>