<?xml version="1.0" encoding="UTF-8" standalone="no"?><svg width="16" height="16" xmlns="http://www.w3.org/2000/svg" fill="none">

 <g>
  <title>background</title>
  <rect fill="none" id="canvas_background" height="739" width="1422" y="-1" x="-1"/>
 </g>
 <g>
  <title>Layer 1</title>
  <path id="svg_1" fill="#308DFF" d="m11.0087,1.09275l0.1131,-0.96775l1.8193,0l0.1132,0.96775c0.3783,0.13149 0.72,0.33179 1.0166,0.5886l0.8944,-0.3868l0.9096,1.5747l-0.7735,0.57484c0.0371,0.19277 0.0611,0.39111 0.0611,0.59471c0,0.2036 -0.024,0.40194 -0.0611,0.59472l0.7735,0.57484l-0.9096,1.57469l-0.8944,-0.38679c-0.2966,0.2568 -0.6383,0.4571 -1.0166,0.5886l-0.1132,0.96774l-1.8193,0l-0.1131,-0.96774c-0.3783,-0.1315 -0.7201,-0.3318 -1.01669,-0.5886l-0.89437,0.38679l-0.90965,-1.57469l0.77359,-0.57484c-0.03713,-0.19278 -0.06116,-0.39112 -0.06116,-0.59472c0,-0.2036 0.02403,-0.40194 0.06116,-0.59471l-0.77359,-0.57484l0.90965,-1.5747l0.89437,0.3868c0.29659,-0.25681 0.63839,-0.45711 1.01669,-0.5886zm2.3927,2.94605c0,-0.75615 -0.6137,-1.36983 -1.3698,-1.36983c-0.7562,0 -1.3699,0.61368 -1.3699,1.36983c0,0.75692 0.6137,1.36983 1.3699,1.36983c0.7561,0 1.3698,-0.61291 1.3698,-1.36983zm-9.32438,1.56551l-0.15594,1.33925c-0.63157,0.17968 -1.20243,0.5009 -1.66031,0.94635l-1.22612,-0.52898l-0.90965,1.5747l1.07935,0.8011c-0.07763,0.30747 -0.13148,0.62397 -0.13148,0.95557c0,0.3315 0.05385,0.648 0.13148,0.9555l-1.07935,0.8011l0.90965,1.5747l1.22612,-0.529c0.45788,0.4454 1.02874,0.7667 1.66031,0.9463l0.15594,1.3393l1.81931,0l0.15594,-1.3393c0.63158,-0.1796 1.20243,-0.5009 1.66031,-0.9463l1.22612,0.529l0.90965,-1.5747l-1.07935,-0.8011c0.07763,-0.3075 0.13148,-0.624 0.13148,-0.9555c0,-0.3316 -0.05385,-0.6481 -0.13148,-0.95557l1.07935,-0.8011l-0.90965,-1.5747l-1.22612,0.52898c-0.45788,-0.44545 -1.02873,-0.76667 -1.66031,-0.94635l-0.15594,-1.33925l-1.81931,0zm2.47508,5.08789c0,-0.86491 -0.70057,-1.56548 -1.56552,-1.56548c-0.86495,0 -1.56552,0.70057 -1.56552,1.56548c0,0.865 0.70057,1.5656 1.56552,1.5656c0.86495,0 1.56552,-0.7006 1.56552,-1.5656z" clip-rule="evenodd" fill-rule="evenodd" opacity="0.9"/>
 </g>
</svg>