<?xml version="1.0" encoding="UTF-8" standalone="no"?><svg width="702" height="500" viewBox="0 0 702 500" fill="none" xmlns="http://www.w3.org/2000/svg">
<g clip-path="url(#clip0_3577_3265)">
<g opacity="0.2" filter="url(#filter0_f_3577_3265)">
<circle cx="255" cy="257" r="97" fill="#A855F7"/>
</g>
<path opacity="0.4" d="M649 215H737V303H649M649 215V303M649 215V171M649 215H605M649 215H693V171H649M649 215V237M649 303V259M649 303H605M649 303H693V347M649 303V347M649 303H621M649 303V325M561 347H605M561 347V391M561 347V303M561 347H517V391H561M605 347V391M605 347H693M605 347V303M605 347H621M605 347V325M605 391H561M605 391H693V347M693 347H649M561 259H605M561 259V303M561 259V215M561 259H517M605 259V303M605 259H649M605 259V215M605 259V237M605 303H561M605 303H621M605 303V325M649 259V237M561 215H605M561 215H517M561 215V171M561 215H539M561 215H583M605 215V171M605 215V237M605 215H583M649 347V325M649 347H635M605 171H649M605 171H583M649 237H605M517 215V259M517 215H539M517 215V171M517 259V171M517 259H429V171M385 171H429M385 171V215M385 171H341M429 171V215H385M429 171H517M385 215H341V171M341 171V127H297M341 171H297M297 127V171M297 127H253M297 171H253M253 127V171M253 127H209V171M253 171H209M209 171H165M209 171V215M165 171V215M165 171H121V215M209 215H165M209 215H121M209 215V303M165 215H121M121 215H77M121 215V237M121 215V303M77 215V237M77 215H33V259H77M77 215V259M121 237H77M121 237V259M77 237V259M121 259H77M121 259V303M77 259V303M121 303H77M121 303V347M121 303H99M121 303V325H99M121 303H110M121 303V314H110M121 303H115M121 303V308H115M121 303H165M121 303H209M77 303V347H121M77 303H99M77 303V325H99M121 347H165M99 303V325M99 303H110M99 303V314H110M110 303V314M110 303H115M110 303V308H115M115 303V308M165 303V347M165 303H209M165 347H209M165 347V391H209M209 303V347M209 347V391M209 347H253V391H209M517 171H539M539 171V215M539 171H561M561 171H583M583 171V215M621 303V325M621 325H605M621 325V347M621 325H635M621 325H649M621 347H635M635 325V347M635 325H649" stroke="url(#paint0_radial_3577_3265)"/>
<path opacity="0.4" d="M589 171H677V259H589M589 171V259M589 171V127M589 171H545M589 171H633V127H589M589 171V193M589 259V215M589 259H545M589 259H633V303M589 259V303M589 259H561M589 259V281M501 303H545M501 303V347M501 303V259M501 303H457V347H501M545 303V347M545 303H633M545 303V259M545 303H561M545 303V281M545 347H501M545 347H633V303M633 303H589M501 215H545M501 215V259M501 215V171M501 215H457M545 215V259M545 215H589M545 215V171M545 215V193M545 259H501M545 259H561M545 259V281M589 215V193M501 171H545M501 171H457M501 171V127M501 171H479M501 171H523M545 171V127M545 171V193M545 171H523M589 303V281M589 303H575M545 127H589M545 127H523M589 193H545M457 171V215M457 171H479M457 171V127M457 215V127M457 215H369V127M325 127H369M325 127V171M325 127H281M369 127V171H325M369 127H457M325 171H281V127M281 127V83H237M281 127H237M237 83V127M237 83H193M237 127H193M193 83V127M193 83H149V127M193 127H149M149 127H105M149 127V171M105 127V171M105 127H61V171M149 171H105M149 171H61M149 171V259M105 171H61M61 171H17M61 171V193M61 171V259M17 171V193M17 171H-27V215H17M17 171V215M61 193H17M61 193V215M17 193V215M61 215H17M61 215V259M17 215V259M61 259H17M61 259V303M61 259H39M61 259V281H39M61 259H50M61 259V270H50M61 259H55M61 259V264H55M61 259H105M61 259H149M17 259V303H61M17 259H39M17 259V281H39M61 303H105M39 259V281M39 259H50M39 259V270H50M50 259V270M50 259H55M50 259V264H55M55 259V264M105 259V303M105 259H149M105 303H149M105 303V347H149M149 259V303M149 303V347M149 303H193V347H149M457 127H479M479 127V171M479 127H501M501 127H523M523 127V171M561 259V281M561 281H545M561 281V303M561 281H575M561 281H589M561 303H575M575 281V303M575 281H589" stroke="url(#paint1_radial_3577_3265)"/>
<path opacity="0.3" d="M165.5 308H459" stroke="url(#paint2_linear_3577_3265)" stroke-width="0.9"/>
<path opacity="0.2" d="M357 308V337C357 340.314 359.686 343 363 343H421C423.209 343 425 341.209 425 339V204" stroke="url(#paint3_linear_3577_3265)" stroke-width="0.9"/>
<path opacity="0.2" d="M441 204V321C441 324.314 443.686 327 447 327H510" stroke="url(#paint4_linear_3577_3265)" stroke-width="0.9"/>
<path opacity="0.2" d="M357 278V310C357 313.314 359.686 316 363 316H486" stroke="url(#paint5_linear_3577_3265)" stroke-width="0.9"/>
<path opacity="0.2" d="M357 286V321C357 324.314 359.686 327 363 327H486" stroke="url(#paint6_linear_3577_3265)" stroke-width="0.9"/>
<path opacity="0.3" d="M165.5 215H459" stroke="url(#paint7_linear_3577_3265)" stroke-width="0.9"/>
<path opacity="0.3" d="M254 145H574" stroke="url(#paint8_linear_3577_3265)" stroke-width="0.9"/>
<path d="M272 309V353C272 356.314 274.686 359 278 359H606" stroke="url(#paint9_linear_3577_3265)" stroke-width="0.9"/>
<path d="M272 307V345C272 348.314 274.686 351 278 351H620" stroke="url(#paint10_linear_3577_3265)" stroke-width="0.9"/>
<path d="M272 308V337C272 340.314 274.686 343 278 343H612" stroke="url(#paint11_linear_3577_3265)" stroke-width="0.9"/>
<path opacity="0.3" d="M272 309V310C272 313.314 274.686 316 278 316H344C346.209 316 348 314.209 348 312V294" stroke="url(#paint12_linear_3577_3265)" stroke-width="0.9"/>
<path opacity="0.3" d="M264 314.455V318C264 321.314 266.686 324 270 324H336C338.209 324 340 322.209 340 320V294" stroke="url(#paint13_linear_3577_3265)" stroke-width="0.9"/>
<path opacity="0.3" d="M202 367H328C330.209 367 332 365.209 332 363V294" stroke="url(#paint14_linear_3577_3265)" stroke-width="0.9"/>
<path opacity="0.15" d="M256 320V329C256 332.314 258.686 335 262 335H447" stroke="url(#paint15_linear_3577_3265)" stroke-width="0.9"/>
<path opacity="0.1" d="M298 244V173C298 170.791 299.791 169 302 169H421" stroke="url(#paint16_linear_3577_3265)" stroke-width="0.9"/>
<path opacity="0.1" d="M298 236V165C298 162.791 299.791 161 302 161H421" stroke="url(#paint17_linear_3577_3265)" stroke-width="0.9"/>
<path opacity="0.1" d="M298 228V157C298 154.791 299.791 153 302 153H421" stroke="url(#paint18_linear_3577_3265)" stroke-width="0.9"/>
<path d="M272 307V292" stroke="url(#paint19_linear_3577_3265)" stroke-width="0.9"/>
<path opacity="0.3" d="M272 220V189.5C272 187.291 273.791 185.5 276 185.5H395" stroke="url(#paint20_linear_3577_3265)" stroke-width="0.9"/>
<path d="M417 327L452 327" stroke="url(#paint21_linear_3577_3265)" stroke-width="1.5"/>
<path d="M433.5 205V237.5" stroke="url(#paint22_linear_3577_3265)" stroke-width="1.5"/>
<path d="M357 325V339C357 341.209 358.791 343 361 343H375" stroke="url(#paint23_linear_3577_3265)" stroke-width="1.5"/>
<path opacity="0.3" d="M264 220V181C264 178.791 265.791 177 268 177H396" stroke="url(#paint24_linear_3577_3265)" stroke-width="0.9"/>
<path opacity="0.5" d="M264 292V400" stroke="url(#paint25_linear_3577_3265)" stroke-width="0.9"/>
<path d="M256 292V417" stroke="url(#paint26_linear_3577_3265)" stroke-width="0.9"/>
<path opacity="0.5" d="M240 292V393" stroke="url(#paint27_linear_3577_3265)" stroke-width="0.9"/>
<path d="M248 292V408" stroke="url(#paint28_linear_3577_3265)" stroke-width="0.9"/>
<path d="M240 292V343C240 345.209 238.209 347 236 347H202" stroke="url(#paint29_linear_3577_3265)" stroke-width="0.9"/>
<path opacity="0.43" d="M232 294V335C232 337.209 230.209 339 228 339H202" stroke="url(#paint30_linear_3577_3265)" stroke-width="0.9"/>
<path opacity="0.43" d="M232 310V351C232 353.209 230.209 355 228 355H202" stroke="url(#paint31_linear_3577_3265)" stroke-width="0.9"/>
<path d="M254 118L254 230" stroke="url(#paint32_linear_3577_3265)" stroke-width="2"/>
<path d="M290 244H638" stroke="url(#paint33_linear_3577_3265)" stroke-width="0.9"/>
<path d="M70 244L220 244" stroke="url(#paint34_linear_3577_3265)" stroke-width="0.9"/>
<path d="M290 252H649" stroke="url(#paint35_linear_3577_3265)" stroke-width="0.9"/>
<path d="M57 252L218 252" stroke="url(#paint36_linear_3577_3265)" stroke-width="0.9"/>
<path d="M290 260H629" stroke="url(#paint37_linear_3577_3265)" stroke-width="0.9"/>
<path d="M39 260L218 260" stroke="url(#paint38_linear_3577_3265)" stroke-width="0.9"/>
<path d="M290 268H616" stroke="url(#paint39_linear_3577_3265)" stroke-width="0.9"/>
<path d="M290 268H427.861C431.175 268 433.861 270.686 433.861 274V329C433.861 332.314 436.548 335 439.861 335H489" stroke="url(#paint40_linear_3577_3265)" stroke-width="0.9"/>
<path d="M433.5 202.5V238C433.5 241.314 430.814 244 427.5 244H381.5" stroke="url(#paint41_linear_3577_3265)" stroke-width="0.9"/>
<path opacity="0.2" d="M441 203V238C441 241.314 438.314 244 435 244H382" stroke="url(#paint42_linear_3577_3265)" stroke-width="0.9"/>
<path opacity="0.2" d="M425 203V238C425 241.314 422.314 244 419 244H382" stroke="url(#paint43_linear_3577_3265)" stroke-width="0.9"/>
<path d="M53 268L218 268" stroke="url(#paint44_linear_3577_3265)" stroke-width="0.9"/>
<path d="M408 268H445.5" stroke="url(#paint45_linear_3577_3265)" stroke-width="1.5"/>
<path d="M433.5 291.5L433.5 274C433.5 270.686 430.814 268 427.5 268L420.5 268" stroke="url(#paint46_linear_3577_3265)" stroke-width="1.5"/>
<path d="M467.5 244H599.5" stroke="url(#paint47_linear_3577_3265)" stroke-width="1.5"/>
<path d="M435 260H567" stroke="url(#paint48_linear_3577_3265)" stroke-width="1.5"/>
<path d="M51 260H183" stroke="url(#paint49_linear_3577_3265)" stroke-width="1.5"/>
<path d="M70 252H202" stroke="url(#paint50_linear_3577_3265)" stroke-width="1.5"/>
<g filter="url(#filter1_b_3577_3265)">
<rect x="218" y="220" width="72" height="72" rx="4" fill="#0F172F"/>
<rect x="218.8" y="220.8" width="70.4" height="70.4" rx="3.2" stroke="url(#paint51_linear_3577_3265)" stroke-width="1.6"/>
</g>
<rect x="220.45" y="222.45" width="69.1" height="69.1" rx="3.55" stroke="url(#paint52_linear_3577_3265)" stroke-width="0.9"/>
<rect x="222" y="224" width="66" height="66" rx="1" stroke="url(#paint53_linear_3577_3265)" stroke-width="0.8"/>
<path d="M228.5 232C228.5 230.619 229.619 229.5 231 229.5H254.5V238.5H228.5V232ZM254.5 261.5V270.5H228.5V261.5H254.5ZM256.5 255.5H267.5V263.5H256.5V255.5ZM269.5 255.5H280.5V270.5H269.5V255.5ZM280.5 272.5V279C280.5 280.381 279.381 281.5 278 281.5H256.5V272.5H280.5ZM256.5 265.5H260.5V270.5H256.5V265.5ZM267.5 268.5V270.5H262.5V268.5H267.5ZM265.5 265.5H267.5V266.5H265.5V265.5ZM262.5 265.5H263.5V266.5H262.5V265.5ZM254.5 255.5V259.5H228.5V255.5H254.5ZM254.5 272.5V281.5H231C229.619 281.5 228.5 280.381 228.5 279V272.5H254.5ZM233.5 240.5V253.5H228.5V240.5H233.5ZM235.5 240.5H240.5V253.5H235.5V240.5ZM242.5 240.5H247.5V253.5H242.5V240.5ZM249.5 240.5H254.5V253.5H249.5V240.5ZM256.5 229.5H267.5V253.5H256.5V229.5ZM269.5 229.5H278C279.381 229.5 280.5 230.619 280.5 232V253.5H269.5V229.5Z" fill="url(#paint54_linear_3577_3265)" stroke="url(#paint55_linear_3577_3265)"/>
<g filter="url(#filter2_bdd_3577_3265)">
<rect x="242" y="242" width="24" height="29" fill="#232233" fill-opacity="0.2" shape-rendering="crispEdges"/>
</g>
<path d="M244 263.333H249V266.667H244V263.333Z" fill="url(#paint56_linear_3577_3265)"/>
<path d="M250.667 263.333H255.667V266.667H250.667V263.333Z" fill="url(#paint57_linear_3577_3265)"/>
<path fill-rule="evenodd" clip-rule="evenodd" d="M242.286 239.71C242.427 238.914 243.119 238.333 243.928 238.333H264.072C264.881 238.333 265.573 238.914 265.714 239.71L269 258.333V270C269 270.921 268.254 271.667 267.333 271.667H240.667C239.746 271.667 239 270.921 239 270V258.333L242.286 239.71ZM265.667 261.667H242.333V268.333H265.667V261.667ZM250.41 255C248.711 255 247.333 253.657 247.333 252C247.333 250.343 248.711 249 250.41 249C250.41 246.791 252.247 245 254.513 245C256.779 245 258.615 246.791 258.615 249C258.615 249.355 258.568 249.699 258.479 250.027C259.717 250.204 260.667 251.244 260.667 252.5C260.667 253.881 259.519 255 258.103 255H250.41Z" fill="url(#paint58_linear_3577_3265)"/>
<g filter="url(#filter3_b_3577_3265)">
<rect x="306" y="220" width="74" height="74" rx="4" fill="#0F172F" fill-opacity="0.6"/>
<rect x="306.5" y="220.5" width="73" height="73" rx="3.5" stroke="url(#paint59_linear_3577_3265)"/>
</g>
<g filter="url(#filter4_b_3577_3265)">
<rect x="310" y="224" width="66" height="66" rx="4" fill="#0F172F" fill-opacity="0.6"/>
<rect x="310.5" y="224.5" width="65" height="65" rx="3.5" stroke="url(#paint60_linear_3577_3265)"/>
</g>
<g opacity="0.5" filter="url(#filter5_f_3577_3265)">
<rect x="327" y="241" width="32" height="32" rx="4" fill="url(#paint61_linear_3577_3265)"/>
</g>
<path d="M333 265.333H338V268.667H333V265.333Z" fill="url(#paint62_linear_3577_3265)"/>
<path d="M344.667 265.333H339.667V268.667H344.667V265.333Z" fill="url(#paint63_linear_3577_3265)"/>
<path fill-rule="evenodd" clip-rule="evenodd" d="M331.286 241.71C331.427 240.914 332.119 240.333 332.928 240.333H353.072C353.881 240.333 354.573 240.914 354.714 241.71L358 260.333V272C358 272.921 357.254 273.667 356.333 273.667H329.667C328.746 273.667 328 272.921 328 272V260.333L331.286 241.71ZM354.667 263.667H331.333V270.333H354.667V263.667Z" fill="url(#paint64_linear_3577_3265)"/>
<g filter="url(#filter6_b_3577_3265)">
<rect x="486" y="310" width="74" height="74" rx="4" fill="#0F172F" fill-opacity="0.6"/>
<rect x="486.5" y="310.5" width="73" height="73" rx="3.5" stroke="url(#paint65_linear_3577_3265)"/>
</g>
<g opacity="0.3" filter="url(#filter7_f_3577_3265)">
<rect x="507" y="331" width="32" height="32" rx="4" fill="#6A98FB"/>
</g>
<path d="M522.903 349.419L523.967 348.907L524.243 347.763L523.494 346.817H522.311L521.562 347.763L521.838 348.907L522.903 349.419Z" fill="#324558"/>
<path d="M530.553 348.828C530.632 348 530.592 347.172 530.395 346.343C530.198 345.515 529.882 344.727 529.449 344.017L526.491 346.698C526.412 346.777 526.373 346.856 526.333 346.974C526.255 347.329 526.452 347.684 526.807 347.763L530.553 348.828Z" fill="#324558"/>
<path d="M525.032 344.845L528.266 342.558C527.083 341.375 525.545 340.626 523.81 340.428L524.046 344.411C524.046 344.529 524.086 344.608 524.165 344.687C524.362 344.963 524.756 345.003 525.032 344.845Z" fill="#324558"/>
<path d="M521.917 340.389L521.128 340.547C519.748 340.862 518.486 341.572 517.461 342.558L520.734 344.884C520.759 344.893 520.782 344.901 520.803 344.909C520.887 344.939 520.956 344.963 521.049 344.963C521.404 344.963 521.72 344.687 521.72 344.332L521.917 340.389Z" fill="#324558"/>
<path d="M519.235 346.619L516.317 344.017C515.45 345.476 515.055 347.172 515.174 348.828L518.999 347.724C519.157 347.684 519.235 347.645 519.314 347.526C519.551 347.25 519.511 346.856 519.235 346.619Z" fill="#324558"/>
<path d="M519.551 350.011L515.647 350.681C516.199 352.258 517.303 353.639 518.683 354.546L520.182 350.918C520.261 350.799 520.261 350.642 520.221 350.523C520.182 350.208 519.866 350.011 519.551 350.011Z" fill="#324558"/>
<path d="M522.903 355.768C523.494 355.768 524.046 355.689 524.598 355.571C524.874 355.492 525.111 355.453 525.348 355.413L523.455 351.982C523.336 351.864 523.258 351.785 523.139 351.706C522.863 351.549 522.548 351.628 522.351 351.864L520.418 355.374C521.207 355.61 522.075 355.768 522.903 355.768Z" fill="#324558"/>
<path d="M527.043 354.506C527.99 353.915 528.818 353.087 529.409 352.14C529.725 351.706 529.961 351.194 530.158 350.642L526.215 349.971C526.097 349.971 525.979 350.011 525.86 350.05C525.584 350.168 525.426 350.484 525.505 350.799L527.043 354.506Z" fill="#324558"/>
<path fill-rule="evenodd" clip-rule="evenodd" d="M535.955 336.288C536.547 336.603 537.02 337.116 537.217 337.747L540.214 350.642C540.293 351.312 540.135 351.982 539.741 352.534L531.42 362.827C530.986 363.418 530.316 363.734 529.606 363.655H516.357C515.686 363.615 515.016 363.3 514.543 362.827L506.222 352.534C505.828 351.982 505.67 351.312 505.788 350.642L508.746 337.668C508.904 336.998 509.337 336.485 509.929 336.209L521.956 330.412C522.272 330.333 522.627 330.333 522.942 330.333C523.258 330.333 523.612 330.373 523.928 330.531L535.955 336.288ZM535.285 350.09C535.285 350.129 535.324 350.129 535.364 350.129C535.719 350.208 536.034 350.523 536.074 350.957C535.955 351.273 535.64 351.509 535.285 351.509C535.206 351.509 535.167 351.509 535.088 351.47C535.048 351.43 535.048 351.43 535.009 351.43C534.963 351.43 534.93 351.417 534.903 351.406C534.884 351.398 534.867 351.391 534.851 351.391C534.734 351.362 534.639 351.311 534.533 351.254C534.496 351.234 534.458 351.214 534.417 351.194C534.338 351.194 534.26 351.154 534.181 351.115H534.141C533.747 350.957 533.313 350.839 532.879 350.76H532.84C532.722 350.76 532.603 350.799 532.524 350.878C532.524 350.878 532.524 350.918 532.485 350.918L532.17 350.878C531.46 353.126 529.922 355.019 527.911 356.241L528.029 356.557C528.029 356.557 527.99 356.557 527.99 356.596C527.911 356.714 527.911 356.872 527.95 356.99C528.108 357.385 528.305 357.779 528.581 358.134V358.213C528.66 358.292 528.699 358.331 528.739 358.41C528.857 358.528 528.936 358.647 529.015 358.804C529.054 358.844 529.094 358.883 529.094 358.923C529.094 358.923 529.133 358.923 529.133 358.962C529.212 359.159 529.212 359.356 529.173 359.554C529.133 359.751 528.975 359.909 528.818 359.987C528.793 359.996 528.77 360.004 528.748 360.012C528.665 360.042 528.596 360.066 528.502 360.066C528.187 360.066 527.911 359.869 527.753 359.593C527.714 359.593 527.714 359.554 527.714 359.554C527.694 359.534 527.684 359.514 527.674 359.495C527.664 359.475 527.654 359.455 527.635 359.435C527.556 359.317 527.516 359.159 527.477 359.002L527.398 358.765V358.726C527.28 358.292 527.083 357.897 526.885 357.503C526.807 357.385 526.688 357.306 526.57 357.267C526.57 357.247 526.57 357.237 526.565 357.232C526.56 357.227 526.55 357.227 526.531 357.227L526.373 356.951C526.273 356.981 526.17 357.014 526.065 357.047C525.758 357.145 525.434 357.247 525.111 357.306C524.401 357.503 523.691 357.582 522.982 357.582C521.799 357.582 520.655 357.385 519.551 356.951L519.393 357.267C519.393 357.286 519.393 357.296 519.388 357.301C519.383 357.306 519.373 357.306 519.354 357.306C519.235 357.345 519.117 357.424 519.038 357.543C518.841 357.937 518.644 358.331 518.526 358.765L518.447 359.002C518.427 359.08 518.397 359.149 518.368 359.218C518.338 359.287 518.309 359.356 518.289 359.435C518.25 359.475 518.21 359.514 518.21 359.554C518.171 359.554 518.171 359.593 518.171 359.593C518.013 359.869 517.737 360.066 517.421 360.066C517.343 360.066 517.224 360.027 517.145 359.987C516.79 359.79 516.633 359.317 516.83 358.923C516.869 358.923 516.869 358.883 516.869 358.883C516.889 358.864 516.899 358.844 516.909 358.824C516.919 358.804 516.929 358.785 516.948 358.765C517 358.696 517.044 358.627 517.084 358.564C517.136 358.484 517.18 358.415 517.224 358.371C517.303 358.292 517.343 358.252 517.382 358.173V358.134C517.619 357.779 517.855 357.385 518.013 356.99C518.052 356.872 518.052 356.714 517.973 356.596C517.973 356.596 517.934 356.596 517.934 356.557L518.131 356.281C517.737 356.084 517.421 355.847 517.067 355.571C515.529 354.388 514.424 352.771 513.833 350.957L513.478 350.997C513.478 350.997 513.478 350.957 513.439 350.957C513.36 350.878 513.241 350.839 513.123 350.839H513.084C512.611 350.918 512.216 351.036 511.782 351.194H511.743C511.664 351.194 511.585 351.233 511.506 351.273C511.462 351.287 511.413 351.307 511.36 351.329C511.271 351.365 511.172 351.406 511.073 351.43C511.061 351.43 511.042 351.427 511.021 351.423C510.972 351.414 510.915 351.403 510.915 351.43C510.915 351.47 510.915 351.47 510.875 351.47C510.797 351.509 510.757 351.509 510.678 351.509C510.323 351.549 509.968 351.312 509.89 350.957C509.811 350.523 510.087 350.129 510.521 350.05C510.543 350.027 510.553 350.018 510.564 350.014C510.573 350.011 510.583 350.011 510.599 350.011C510.646 350.011 510.678 349.997 510.705 349.986C510.724 349.978 510.741 349.971 510.757 349.971C510.836 349.971 510.915 349.961 510.994 349.952C511.073 349.942 511.151 349.932 511.23 349.932C511.309 349.892 511.388 349.892 511.467 349.892C511.94 349.853 512.374 349.774 512.808 349.656C512.926 349.577 513.044 349.498 513.084 349.38C513.084 349.38 513.123 349.38 513.123 349.34L513.439 349.261C513.084 347.014 513.596 344.727 514.819 342.794C514.839 342.755 514.858 342.725 514.878 342.696C514.898 342.666 514.917 342.637 514.937 342.597L514.708 342.368C514.726 342.255 514.654 342.117 514.582 342.045C514.267 341.73 513.872 341.493 513.478 341.256L513.241 341.138C513.084 341.059 512.926 340.98 512.808 340.902C512.768 340.902 512.689 340.823 512.689 340.823C512.689 340.823 512.689 340.783 512.65 340.783C512.334 340.507 512.256 340.034 512.492 339.679C512.611 339.482 512.808 339.403 513.044 339.403C513.241 339.403 513.439 339.482 513.596 339.6L513.636 339.64C513.656 339.659 513.675 339.669 513.695 339.679C513.715 339.689 513.734 339.699 513.754 339.719C513.813 339.778 513.863 339.837 513.912 339.896C513.961 339.955 514.01 340.014 514.07 340.073C514.082 340.085 514.097 340.097 514.114 340.11C514.153 340.14 514.2 340.176 514.227 340.231C514.503 340.547 514.858 340.862 515.213 341.138C515.292 341.178 515.371 341.217 515.45 341.217C515.496 341.217 515.529 341.204 515.556 341.192C515.575 341.184 515.591 341.178 515.607 341.178H515.647L515.884 341.335C517.185 339.955 518.88 338.969 520.734 338.575C520.802 338.564 520.87 338.552 520.936 338.541C521.332 338.474 521.703 338.412 522.075 338.378L522.114 338.062V337.983C522.232 337.905 522.272 337.786 522.311 337.668C522.311 337.195 522.311 336.761 522.232 336.327V336.288C522.232 336.209 522.232 336.13 522.193 336.051C522.153 335.894 522.114 335.736 522.114 335.578V335.381C522.114 335.184 522.193 334.987 522.351 334.829C522.548 334.632 522.784 334.513 523.021 334.553C523.415 334.592 523.731 334.987 523.691 335.381V335.617C523.672 335.696 523.662 335.775 523.652 335.854C523.642 335.933 523.632 336.012 523.612 336.091C523.612 336.13 523.603 336.17 523.593 336.209C523.583 336.248 523.573 336.288 523.573 336.327V336.367C523.494 336.84 523.494 337.274 523.494 337.707C523.534 337.826 523.573 337.944 523.691 338.023V337.983L523.731 338.299C525.584 338.496 527.398 339.206 528.857 340.35C529.015 340.507 529.182 340.665 529.35 340.823C529.518 340.98 529.685 341.138 529.843 341.296L530.158 341.099H530.198C530.237 341.138 530.316 341.138 530.356 341.138C530.435 341.138 530.513 341.099 530.592 341.059C530.947 340.823 531.302 340.507 531.578 340.192C531.59 340.18 531.606 340.168 531.623 340.155C531.662 340.125 531.708 340.089 531.736 340.034C531.815 339.916 531.933 339.797 532.051 339.679C532.091 339.679 532.13 339.64 532.17 339.6L532.209 339.561C532.367 339.443 532.564 339.364 532.761 339.364C532.958 339.364 533.195 339.482 533.313 339.64C533.589 339.995 533.51 340.468 533.155 340.744C533.155 340.759 533.161 340.768 533.166 340.776C533.174 340.789 533.18 340.798 533.155 340.823C533.136 340.842 533.116 340.852 533.096 340.862C533.077 340.872 533.057 340.882 533.037 340.902C532.958 340.941 532.889 340.98 532.82 341.02C532.751 341.059 532.682 341.099 532.603 341.138L532.367 341.256C531.972 341.493 531.618 341.73 531.263 342.045C531.184 342.124 531.144 342.282 531.144 342.4V342.439L530.908 342.676C531.539 343.662 532.012 344.766 532.288 345.91C532.524 347.053 532.603 348.236 532.446 349.38L532.761 349.459C532.801 349.577 532.919 349.695 533.037 349.735C533.471 349.853 533.944 349.932 534.378 349.971H534.417C534.496 350.011 534.575 350.011 534.654 350.011C534.812 350.011 534.969 350.011 535.127 350.05C535.206 350.05 535.285 350.05 535.285 350.09ZM514.708 342.368L514.701 342.361V342.4C514.704 342.39 514.706 342.379 514.708 342.368Z" fill="#324558"/>
<g filter="url(#filter8_b_3577_3265)">
<rect x="396" y="130" width="74" height="74" rx="4" fill="#0F172F" fill-opacity="0.6"/>
<rect x="396.5" y="130.5" width="73" height="73" rx="3.5" stroke="url(#paint66_linear_3577_3265)"/>
</g>
<g opacity="0.3" filter="url(#filter9_f_3577_3265)">
<rect x="417" y="151" width="32" height="32" rx="4" fill="#68CE9C"/>
</g>
<path d="M432.982 148.667L417.167 157.84V176.235L432.982 185.333V171.453L425.371 167.039L432.982 162.625V148.667Z" fill="url(#paint67_linear_3577_3265)"/>
<path d="M436.972 150.933L445.056 155.622L436.972 160.311V150.933Z" fill="url(#paint68_linear_3577_3265)"/>
<path d="M445.057 178.454L436.972 183.145V173.768L445.057 178.454Z" fill="url(#paint69_linear_3577_3265)"/>
<path d="M448.833 176.201L433.038 167.039L448.833 157.879V176.201Z" fill="url(#paint70_linear_3577_3265)"/>
<g filter="url(#filter10_b_3577_3265)">
<rect x="128" y="310" width="74" height="74" rx="4" fill="#0F172F" fill-opacity="0.6"/>
<rect x="128.5" y="310.5" width="73" height="73" rx="3.5" stroke="url(#paint71_linear_3577_3265)"/>
</g>
<g opacity="0.3" filter="url(#filter11_f_3577_3265)">
<rect x="149" y="331" width="32" height="32" rx="4" fill="#59B2B2"/>
</g>
<path fill-rule="evenodd" clip-rule="evenodd" d="M154.246 342.295C154.925 336.498 159.854 332 165.833 332C172.017 332 177.078 336.812 177.475 342.895C180.931 344.47 183.333 347.954 183.333 352C183.333 357.523 178.856 362 173.333 362H156.667C151.144 362 146.667 357.523 146.667 352C146.667 347.312 149.893 343.377 154.246 342.295ZM178.062 353.706C178.105 353.823 178.127 353.956 178.127 354.104C178.127 354.273 178.086 354.43 178.003 354.573C177.92 354.713 177.79 354.826 177.612 354.913C177.433 354.995 177.199 355.037 176.907 355.037C176.638 355.037 176.398 355.013 176.19 354.965C175.981 354.913 175.805 354.83 175.661 354.717C175.518 354.599 175.409 354.445 175.335 354.254C175.261 354.062 175.224 353.828 175.224 353.549H172.928C172.928 354.11 173.041 354.595 173.267 355.004C173.498 355.408 173.804 355.741 174.187 356.002C174.57 356.259 174.996 356.45 175.466 356.576C175.94 356.698 176.42 356.759 176.907 356.759C177.438 356.759 177.918 356.7 178.349 356.583C178.779 356.465 179.149 356.293 179.458 356.067C179.766 355.837 180.003 355.556 180.169 355.226C180.334 354.895 180.417 354.517 180.417 354.091C180.417 353.691 180.345 353.332 180.201 353.014C180.062 352.697 179.856 352.414 179.582 352.166C179.312 351.914 178.979 351.69 178.584 351.494C178.192 351.294 177.744 351.114 177.24 350.953C176.97 350.866 176.727 350.777 176.509 350.686C176.296 350.594 176.114 350.499 175.961 350.399C175.813 350.299 175.698 350.192 175.616 350.079C175.537 349.962 175.498 349.831 175.498 349.688C175.498 349.514 175.548 349.355 175.648 349.211C175.748 349.063 175.896 348.946 176.092 348.859C176.287 348.772 176.529 348.729 176.816 348.729C177.112 348.729 177.357 348.781 177.553 348.885C177.749 348.99 177.894 349.133 177.99 349.316C178.09 349.498 178.14 349.709 178.14 349.948H180.417C180.417 349.348 180.264 348.829 179.96 348.389C179.66 347.946 179.242 347.604 178.708 347.365C178.177 347.122 177.564 347 176.868 347C176.342 347 175.857 347.063 175.413 347.189C174.97 347.311 174.583 347.489 174.252 347.724C173.926 347.955 173.672 348.235 173.489 348.566C173.306 348.892 173.215 349.259 173.215 349.668C173.215 350.094 173.304 350.468 173.483 350.79C173.661 351.107 173.902 351.386 174.207 351.625C174.511 351.86 174.857 352.066 175.244 352.245C175.631 352.419 176.033 352.575 176.451 352.714C176.807 352.832 177.094 352.945 177.312 353.053C177.533 353.158 177.703 353.262 177.82 353.367C177.938 353.471 178.018 353.584 178.062 353.706ZM152.706 353.406H154.207C154.968 353.406 155.622 353.28 156.17 353.027C156.722 352.771 157.146 352.414 157.442 351.958C157.738 351.501 157.886 350.966 157.886 350.353C157.886 349.731 157.738 349.179 157.442 348.696C157.146 348.209 156.722 347.826 156.17 347.548C155.622 347.27 154.968 347.13 154.207 347.13H150.417V356.628H152.706V353.406ZM152.706 351.638V348.898H154.207C154.528 348.898 154.789 348.968 154.989 349.107C155.189 349.242 155.335 349.42 155.426 349.642C155.522 349.864 155.57 350.105 155.57 350.366C155.57 350.609 155.522 350.829 155.426 351.025C155.335 351.216 155.189 351.366 154.989 351.475C154.789 351.584 154.528 351.638 154.207 351.638H152.706ZM162.704 355.995C162.631 356.086 162.549 356.173 162.458 356.256C162.297 356.404 162.1 356.526 161.865 356.622C161.63 356.713 161.345 356.759 161.01 356.759C160.575 356.759 160.175 356.669 159.81 356.491C159.449 356.313 159.16 356.065 158.942 355.748C158.725 355.426 158.616 355.056 158.616 354.639C158.616 354.273 158.681 353.947 158.812 353.66C158.947 353.373 159.149 353.13 159.419 352.93C159.688 352.73 160.032 352.577 160.449 352.473C160.867 352.369 161.358 352.316 161.923 352.316H162.602V351.945C162.602 351.745 162.574 351.573 162.517 351.429C162.461 351.286 162.371 351.175 162.25 351.097C162.128 351.014 161.965 350.973 161.76 350.973C161.595 350.973 161.454 351.001 161.336 351.057C161.219 351.114 161.13 351.199 161.069 351.312C161.008 351.425 160.978 351.568 160.978 351.742H158.779C158.779 351.416 158.851 351.114 158.995 350.836C159.142 350.553 159.351 350.307 159.621 350.098C159.895 349.89 160.221 349.729 160.599 349.616C160.982 349.498 161.408 349.44 161.878 349.44C162.439 349.44 162.939 349.533 163.378 349.72C163.822 349.907 164.172 350.188 164.428 350.562C164.685 350.931 164.813 351.397 164.813 351.958V354.847C164.813 355.308 164.839 355.658 164.892 355.898C164.944 356.132 165.018 356.339 165.113 356.517V356.628H162.908C162.823 356.449 162.755 356.238 162.704 355.995ZM162.602 354.625C162.587 354.653 162.569 354.682 162.55 354.71C162.458 354.845 162.326 354.96 162.152 355.056C161.982 355.147 161.776 355.193 161.532 355.193C161.397 355.193 161.276 355.165 161.167 355.108C161.058 355.052 160.971 354.973 160.906 354.873C160.845 354.769 160.815 354.652 160.815 354.521C160.815 354.386 160.832 354.258 160.867 354.136C160.906 354.015 160.967 353.906 161.049 353.81C161.136 353.71 161.249 353.632 161.389 353.575C161.532 353.519 161.706 353.491 161.91 353.491H162.602V354.625ZM169.556 356.256C169.646 356.173 169.728 356.086 169.801 355.995C169.852 356.238 169.92 356.449 170.006 356.628H172.21V356.517C172.115 356.339 172.041 356.132 171.989 355.898C171.937 355.658 171.91 355.308 171.91 354.847V351.958C171.91 351.397 171.782 350.931 171.526 350.562C171.269 350.188 170.919 349.907 170.475 349.72C170.036 349.533 169.536 349.44 168.975 349.44C168.505 349.44 168.079 349.498 167.696 349.616C167.318 349.729 166.992 349.89 166.718 350.098C166.448 350.307 166.24 350.553 166.092 350.836C165.948 351.114 165.877 351.416 165.877 351.742H168.075C168.075 351.568 168.105 351.425 168.166 351.312C168.227 351.199 168.316 351.114 168.434 351.057C168.551 351.001 168.692 350.973 168.858 350.973C169.062 350.973 169.225 351.014 169.347 351.097C169.469 351.175 169.558 351.286 169.614 351.429C169.671 351.573 169.699 351.745 169.699 351.945V352.316H169.021C168.455 352.316 167.964 352.369 167.546 352.473C167.129 352.577 166.785 352.73 166.516 352.93C166.246 353.13 166.044 353.373 165.909 353.66C165.779 353.947 165.713 354.273 165.713 354.639C165.713 355.056 165.822 355.426 166.04 355.748C166.257 356.065 166.546 356.313 166.907 356.491C167.272 356.669 167.673 356.759 168.107 356.759C168.442 356.759 168.727 356.713 168.962 356.622C169.197 356.526 169.395 356.404 169.556 356.256ZM169.647 354.71C169.666 354.682 169.684 354.653 169.699 354.625V353.491H169.008C168.803 353.491 168.629 353.519 168.486 353.575C168.347 353.632 168.234 353.71 168.147 353.81C168.064 353.906 168.003 354.015 167.964 354.136C167.929 354.258 167.912 354.386 167.912 354.521C167.912 354.652 167.942 354.769 168.003 354.873C168.068 354.973 168.155 355.052 168.264 355.108C168.373 355.165 168.494 355.193 168.629 355.193C168.873 355.193 169.079 355.147 169.249 355.056C169.423 354.96 169.556 354.845 169.647 354.71Z" fill="url(#paint72_linear_3577_3265)"/>
</g>
<defs>
<filter id="filter0_f_3577_3265" x="-22" y="-20" width="554" height="554" filterUnits="userSpaceOnUse" color-interpolation-filters="sRGB">
<feFlood flood-opacity="0" result="BackgroundImageFix"/>
<feBlend mode="normal" in="SourceGraphic" in2="BackgroundImageFix" result="shape"/>
<feGaussianBlur stdDeviation="90" result="effect1_foregroundBlur_3577_3265"/>
</filter>
<filter id="filter1_b_3577_3265" x="214" y="216" width="80" height="80" filterUnits="userSpaceOnUse" color-interpolation-filters="sRGB">
<feFlood flood-opacity="0" result="BackgroundImageFix"/>
<feGaussianBlur in="BackgroundImage" stdDeviation="2"/>
<feComposite in2="SourceAlpha" operator="in" result="effect1_backgroundBlur_3577_3265"/>
<feBlend mode="normal" in="SourceGraphic" in2="effect1_backgroundBlur_3577_3265" result="shape"/>
</filter>
<filter id="filter2_bdd_3577_3265" x="183" y="183" width="142" height="147" filterUnits="userSpaceOnUse" color-interpolation-filters="sRGB">
<feFlood flood-opacity="0" result="BackgroundImageFix"/>
<feGaussianBlur in="BackgroundImage" stdDeviation="1"/>
<feComposite in2="SourceAlpha" operator="in" result="effect1_backgroundBlur_3577_3265"/>
<feColorMatrix in="SourceAlpha" type="matrix" values="0 0 0 0 0 0 0 0 0 0 0 0 0 0 0 0 0 0 127 0" result="hardAlpha"/>
<feMorphology radius="9" operator="dilate" in="SourceAlpha" result="effect2_dropShadow_3577_3265"/>
<feOffset/>
<feGaussianBlur stdDeviation="25"/>
<feComposite in2="hardAlpha" operator="out"/>
<feColorMatrix type="matrix" values="0 0 0 0 0.498039 0 0 0 0 0.435294 0 0 0 0 0.972549 0 0 0 0.15 0"/>
<feBlend mode="normal" in2="effect1_backgroundBlur_3577_3265" result="effect2_dropShadow_3577_3265"/>
<feColorMatrix in="SourceAlpha" type="matrix" values="0 0 0 0 0 0 0 0 0 0 0 0 0 0 0 0 0 0 127 0" result="hardAlpha"/>
<feOffset/>
<feGaussianBlur stdDeviation="12.5"/>
<feComposite in2="hardAlpha" operator="out"/>
<feColorMatrix type="matrix" values="0 0 0 0 0.667914 0 0 0 0 0.230208 0 0 0 0 0.85 0 0 0 0.6 0"/>
<feBlend mode="normal" in2="effect2_dropShadow_3577_3265" result="effect3_dropShadow_3577_3265"/>
<feBlend mode="normal" in="SourceGraphic" in2="effect3_dropShadow_3577_3265" result="shape"/>
</filter>
<filter id="filter3_b_3577_3265" x="302" y="216" width="82" height="82" filterUnits="userSpaceOnUse" color-interpolation-filters="sRGB">
<feFlood flood-opacity="0" result="BackgroundImageFix"/>
<feGaussianBlur in="BackgroundImage" stdDeviation="2"/>
<feComposite in2="SourceAlpha" operator="in" result="effect1_backgroundBlur_3577_3265"/>
<feBlend mode="normal" in="SourceGraphic" in2="effect1_backgroundBlur_3577_3265" result="shape"/>
</filter>
<filter id="filter4_b_3577_3265" x="306" y="220" width="74" height="74" filterUnits="userSpaceOnUse" color-interpolation-filters="sRGB">
<feFlood flood-opacity="0" result="BackgroundImageFix"/>
<feGaussianBlur in="BackgroundImage" stdDeviation="2"/>
<feComposite in2="SourceAlpha" operator="in" result="effect1_backgroundBlur_3577_3265"/>
<feBlend mode="normal" in="SourceGraphic" in2="effect1_backgroundBlur_3577_3265" result="shape"/>
</filter>
<filter id="filter5_f_3577_3265" x="297" y="211" width="92" height="92" filterUnits="userSpaceOnUse" color-interpolation-filters="sRGB">
<feFlood flood-opacity="0" result="BackgroundImageFix"/>
<feBlend mode="normal" in="SourceGraphic" in2="BackgroundImageFix" result="shape"/>
<feGaussianBlur stdDeviation="15" result="effect1_foregroundBlur_3577_3265"/>
</filter>
<filter id="filter6_b_3577_3265" x="482" y="306" width="82" height="82" filterUnits="userSpaceOnUse" color-interpolation-filters="sRGB">
<feFlood flood-opacity="0" result="BackgroundImageFix"/>
<feGaussianBlur in="BackgroundImage" stdDeviation="2"/>
<feComposite in2="SourceAlpha" operator="in" result="effect1_backgroundBlur_3577_3265"/>
<feBlend mode="normal" in="SourceGraphic" in2="effect1_backgroundBlur_3577_3265" result="shape"/>
</filter>
<filter id="filter7_f_3577_3265" x="477" y="301" width="92" height="92" filterUnits="userSpaceOnUse" color-interpolation-filters="sRGB">
<feFlood flood-opacity="0" result="BackgroundImageFix"/>
<feBlend mode="normal" in="SourceGraphic" in2="BackgroundImageFix" result="shape"/>
<feGaussianBlur stdDeviation="15" result="effect1_foregroundBlur_3577_3265"/>
</filter>
<filter id="filter8_b_3577_3265" x="392" y="126" width="82" height="82" filterUnits="userSpaceOnUse" color-interpolation-filters="sRGB">
<feFlood flood-opacity="0" result="BackgroundImageFix"/>
<feGaussianBlur in="BackgroundImage" stdDeviation="2"/>
<feComposite in2="SourceAlpha" operator="in" result="effect1_backgroundBlur_3577_3265"/>
<feBlend mode="normal" in="SourceGraphic" in2="effect1_backgroundBlur_3577_3265" result="shape"/>
</filter>
<filter id="filter9_f_3577_3265" x="387" y="121" width="92" height="92" filterUnits="userSpaceOnUse" color-interpolation-filters="sRGB">
<feFlood flood-opacity="0" result="BackgroundImageFix"/>
<feBlend mode="normal" in="SourceGraphic" in2="BackgroundImageFix" result="shape"/>
<feGaussianBlur stdDeviation="15" result="effect1_foregroundBlur_3577_3265"/>
</filter>
<filter id="filter10_b_3577_3265" x="124" y="306" width="82" height="82" filterUnits="userSpaceOnUse" color-interpolation-filters="sRGB">
<feFlood flood-opacity="0" result="BackgroundImageFix"/>
<feGaussianBlur in="BackgroundImage" stdDeviation="2"/>
<feComposite in2="SourceAlpha" operator="in" result="effect1_backgroundBlur_3577_3265"/>
<feBlend mode="normal" in="SourceGraphic" in2="effect1_backgroundBlur_3577_3265" result="shape"/>
</filter>
<filter id="filter11_f_3577_3265" x="119" y="301" width="92" height="92" filterUnits="userSpaceOnUse" color-interpolation-filters="sRGB">
<feFlood flood-opacity="0" result="BackgroundImageFix"/>
<feBlend mode="normal" in="SourceGraphic" in2="BackgroundImageFix" result="shape"/>
<feGaussianBlur stdDeviation="15" result="effect1_foregroundBlur_3577_3265"/>
</filter>
<radialGradient id="paint0_radial_3577_3265" cx="0" cy="0" r="1" gradientUnits="userSpaceOnUse" gradientTransform="translate(158 313.5) rotate(171.995) scale(64.6297 172.346)">
<stop stop-color="#C617F1"/>
<stop offset="1" stop-color="#31C1FF" stop-opacity="0"/>
</radialGradient>
<radialGradient id="paint1_radial_3577_3265" cx="0" cy="0" r="1" gradientUnits="userSpaceOnUse" gradientTransform="translate(525.5 268.5) rotate(-45) scale(39.5979 105.594)">
<stop stop-color="#C617F1"/>
<stop offset="1" stop-color="#31C1FF" stop-opacity="0"/>
</radialGradient>
<linearGradient id="paint2_linear_3577_3265" x1="165" y1="308" x2="459" y2="308" gradientUnits="userSpaceOnUse">
<stop stop-color="#663A9F" stop-opacity="0"/>
<stop offset="0.488636" stop-color="#663A9F"/>
<stop offset="1" stop-color="#663A9F" stop-opacity="0"/>
</linearGradient>
<linearGradient id="paint3_linear_3577_3265" x1="425" y1="343" x2="425" y2="204" gradientUnits="userSpaceOnUse">
<stop offset="0.488636" stop-color="#663A9F"/>
<stop offset="1" stop-color="#663A9F" stop-opacity="0"/>
</linearGradient>
<linearGradient id="paint4_linear_3577_3265" x1="510" y1="327" x2="510" y2="168.784" gradientUnits="userSpaceOnUse">
<stop offset="0.488636" stop-color="#663A9F"/>
<stop offset="1" stop-color="#663A9F" stop-opacity="0"/>
</linearGradient>
<linearGradient id="paint5_linear_3577_3265" x1="486" y1="316" x2="486" y2="196.571" gradientUnits="userSpaceOnUse">
<stop offset="0.488636" stop-color="#663A9F"/>
<stop offset="1" stop-color="#663A9F" stop-opacity="0"/>
</linearGradient>
<linearGradient id="paint6_linear_3577_3265" x1="486" y1="327" x2="486" y2="198.143" gradientUnits="userSpaceOnUse">
<stop offset="0.488636" stop-color="#663A9F"/>
<stop offset="1" stop-color="#663A9F" stop-opacity="0"/>
</linearGradient>
<linearGradient id="paint7_linear_3577_3265" x1="165" y1="215" x2="459" y2="215" gradientUnits="userSpaceOnUse">
<stop stop-color="#663A9F" stop-opacity="0"/>
<stop offset="0.488636" stop-color="#663A9F"/>
<stop offset="1" stop-color="#663A9F" stop-opacity="0"/>
</linearGradient>
<linearGradient id="paint8_linear_3577_3265" x1="253.455" y1="145" x2="574" y2="145" gradientUnits="userSpaceOnUse">
<stop stop-color="#663A9F" stop-opacity="0"/>
<stop offset="0.626418" stop-color="#663A9F"/>
<stop offset="1" stop-color="#663A9F" stop-opacity="0"/>
</linearGradient>
<linearGradient id="paint9_linear_3577_3265" x1="278.403" y1="359" x2="611.335" y2="359" gradientUnits="userSpaceOnUse">
<stop offset="0.393854" stop-color="#663A9F"/>
<stop offset="1" stop-color="#663A9F" stop-opacity="0"/>
</linearGradient>
<linearGradient id="paint10_linear_3577_3265" x1="278.671" y1="351" x2="625.559" y2="351" gradientUnits="userSpaceOnUse">
<stop offset="0.547234" stop-color="#663A9F"/>
<stop offset="1" stop-color="#663A9F" stop-opacity="0"/>
</linearGradient>
<linearGradient id="paint11_linear_3577_3265" x1="278.518" y1="343" x2="617.431" y2="343" gradientUnits="userSpaceOnUse">
<stop offset="0.393854" stop-color="#663A9F"/>
<stop offset="1" stop-color="#663A9F" stop-opacity="0"/>
</linearGradient>
<linearGradient id="paint12_linear_3577_3265" x1="348" y1="316" x2="348" y2="294" gradientUnits="userSpaceOnUse">
<stop offset="0.488636" stop-color="#663A9F"/>
<stop offset="1" stop-color="#663A9F" stop-opacity="0"/>
</linearGradient>
<linearGradient id="paint13_linear_3577_3265" x1="340" y1="324" x2="340" y2="294" gradientUnits="userSpaceOnUse">
<stop offset="0.488636" stop-color="#663A9F"/>
<stop offset="1" stop-color="#663A9F" stop-opacity="0"/>
</linearGradient>
<linearGradient id="paint14_linear_3577_3265" x1="332" y1="367" x2="332" y2="294" gradientUnits="userSpaceOnUse">
<stop offset="0.488636" stop-color="#663A9F"/>
<stop offset="1" stop-color="#663A9F" stop-opacity="0"/>
</linearGradient>
<linearGradient id="paint15_linear_3577_3265" x1="332" y1="335" x2="332" y2="287.857" gradientUnits="userSpaceOnUse">
<stop offset="0.488636" stop-color="#663A9F"/>
<stop offset="1" stop-color="#663A9F" stop-opacity="0"/>
</linearGradient>
<linearGradient id="paint16_linear_3577_3265" x1="298" y1="170.087" x2="334.447" y2="227.09" gradientUnits="userSpaceOnUse">
<stop stop-color="#663A9F"/>
<stop offset="1" stop-color="#663A9F" stop-opacity="0"/>
</linearGradient>
<linearGradient id="paint17_linear_3577_3265" x1="298" y1="162.087" x2="334.447" y2="219.09" gradientUnits="userSpaceOnUse">
<stop stop-color="#663A9F"/>
<stop offset="1" stop-color="#663A9F" stop-opacity="0"/>
</linearGradient>
<linearGradient id="paint18_linear_3577_3265" x1="298" y1="154.087" x2="334.447" y2="211.09" gradientUnits="userSpaceOnUse">
<stop stop-color="#663A9F"/>
<stop offset="1" stop-color="#663A9F" stop-opacity="0"/>
</linearGradient>
<linearGradient id="paint19_linear_3577_3265" x1="272.5" y1="292" x2="272.5" y2="307" gradientUnits="userSpaceOnUse">
<stop stop-color="#663A9F" stop-opacity="0"/>
<stop offset="1" stop-color="#663A9F"/>
</linearGradient>
<linearGradient id="paint20_linear_3577_3265" x1="272" y1="186" x2="282" y2="220" gradientUnits="userSpaceOnUse">
<stop stop-color="#663A9F"/>
<stop offset="1" stop-color="#663A9F" stop-opacity="0"/>
</linearGradient>
<linearGradient id="paint21_linear_3577_3265" x1="417" y1="327.5" x2="452.133" y2="327.465" gradientUnits="userSpaceOnUse">
<stop stop-color="#4F3181" stop-opacity="0"/>
<stop offset="0.520833" stop-color="#4F3181"/>
<stop offset="1" stop-color="#4F3181" stop-opacity="0"/>
</linearGradient>
<linearGradient id="paint22_linear_3577_3265" x1="434" y1="204.5" x2="434" y2="237.5" gradientUnits="userSpaceOnUse">
<stop stop-color="#2595B9" stop-opacity="0"/>
<stop offset="0.520833" stop-color="#2FBBE8"/>
<stop offset="1" stop-color="#2595B9" stop-opacity="0"/>
</linearGradient>
<linearGradient id="paint23_linear_3577_3265" x1="366" y1="332" x2="357.5" y2="342.5" gradientUnits="userSpaceOnUse">
<stop stop-color="#663A9F" stop-opacity="0"/>
<stop offset="1" stop-color="#663A9F"/>
</linearGradient>
<linearGradient id="paint24_linear_3577_3265" x1="264" y1="177.623" x2="278.084" y2="218.855" gradientUnits="userSpaceOnUse">
<stop stop-color="#663A9F"/>
<stop offset="1" stop-color="#663A9F" stop-opacity="0"/>
</linearGradient>
<linearGradient id="paint25_linear_3577_3265" x1="264.5" y1="292" x2="264.5" y2="400" gradientUnits="userSpaceOnUse">
<stop stop-color="#663A9F" stop-opacity="0"/>
<stop offset="0.132812" stop-color="#663A9F"/>
<stop offset="0.833333" stop-color="#663A9F"/>
<stop offset="1" stop-color="#663A9F" stop-opacity="0"/>
</linearGradient>
<linearGradient id="paint26_linear_3577_3265" x1="256.5" y1="292" x2="256.5" y2="417" gradientUnits="userSpaceOnUse">
<stop stop-color="#663A9F" stop-opacity="0"/>
<stop offset="0.132812" stop-color="#663A9F"/>
<stop offset="0.833333" stop-color="#663A9F"/>
<stop offset="1" stop-color="#663A9F" stop-opacity="0"/>
</linearGradient>
<linearGradient id="paint27_linear_3577_3265" x1="240.5" y1="292" x2="240.5" y2="393" gradientUnits="userSpaceOnUse">
<stop stop-color="#663A9F" stop-opacity="0"/>
<stop offset="0.132812" stop-color="#663A9F"/>
<stop offset="0.833333" stop-color="#663A9F"/>
<stop offset="1" stop-color="#663A9F" stop-opacity="0"/>
</linearGradient>
<linearGradient id="paint28_linear_3577_3265" x1="248.5" y1="292" x2="248.5" y2="408" gradientUnits="userSpaceOnUse">
<stop stop-color="#663A9F" stop-opacity="0"/>
<stop offset="0.132812" stop-color="#663A9F"/>
<stop offset="0.833333" stop-color="#663A9F"/>
<stop offset="1" stop-color="#663A9F" stop-opacity="0"/>
</linearGradient>
<linearGradient id="paint29_linear_3577_3265" x1="240.5" y1="292" x2="240.5" y2="404.34" gradientUnits="userSpaceOnUse">
<stop stop-color="#663A9F" stop-opacity="0"/>
<stop offset="0.132812" stop-color="#663A9F"/>
<stop offset="0.833333" stop-color="#663A9F"/>
<stop offset="1" stop-color="#663A9F" stop-opacity="0"/>
</linearGradient>
<linearGradient id="paint30_linear_3577_3265" x1="232.492" y1="294" x2="232.492" y2="417.429" gradientUnits="userSpaceOnUse">
<stop stop-color="#663A9F" stop-opacity="0"/>
<stop offset="0.132812" stop-color="#663A9F"/>
<stop offset="0.833333" stop-color="#663A9F"/>
<stop offset="1" stop-color="#663A9F" stop-opacity="0"/>
</linearGradient>
<linearGradient id="paint31_linear_3577_3265" x1="232.492" y1="310" x2="232.492" y2="433.429" gradientUnits="userSpaceOnUse">
<stop stop-color="#663A9F" stop-opacity="0"/>
<stop offset="0.132812" stop-color="#663A9F"/>
<stop offset="0.833333" stop-color="#663A9F"/>
<stop offset="1" stop-color="#663A9F" stop-opacity="0"/>
</linearGradient>
<linearGradient id="paint32_linear_3577_3265" x1="254" y1="222.209" x2="254" y2="115.565" gradientUnits="userSpaceOnUse">
<stop stop-color="#47CAF3"/>
<stop offset="1" stop-color="#47CAF3" stop-opacity="0"/>
</linearGradient>
<linearGradient id="paint33_linear_3577_3265" x1="638" y1="244.5" x2="290" y2="244.506" gradientUnits="userSpaceOnUse">
<stop stop-color="#279CC1" stop-opacity="0"/>
<stop offset="0.0896359" stop-color="#279CC1"/>
<stop offset="0.916667" stop-color="#279CC1" stop-opacity="0.903942"/>
<stop offset="1" stop-color="#279CC1" stop-opacity="0"/>
</linearGradient>
<linearGradient id="paint34_linear_3577_3265" x1="212.683" y1="244.001" x2="70.0002" y2="244.548" gradientUnits="userSpaceOnUse">
<stop stop-color="#279CC1" stop-opacity="0"/>
<stop offset="0.197917" stop-color="#279CC1" stop-opacity="0.977829"/>
<stop offset="0.770833" stop-color="#279CC1" stop-opacity="0.90625"/>
<stop offset="1" stop-color="#279CC1" stop-opacity="0"/>
</linearGradient>
<linearGradient id="paint35_linear_3577_3265" x1="649" y1="252.5" x2="290" y2="252.506" gradientUnits="userSpaceOnUse">
<stop stop-color="#279CC1" stop-opacity="0"/>
<stop offset="0.0896359" stop-color="#279CC1"/>
<stop offset="0.916667" stop-color="#279CC1" stop-opacity="0.903942"/>
<stop offset="1" stop-color="#279CC1" stop-opacity="0"/>
</linearGradient>
<linearGradient id="paint36_linear_3577_3265" x1="210.146" y1="252.001" x2="57.0005" y2="252.631" gradientUnits="userSpaceOnUse">
<stop stop-color="#279CC1" stop-opacity="0"/>
<stop offset="0.197917" stop-color="#279CC1" stop-opacity="0.977829"/>
<stop offset="0.683569" stop-color="#279CC1" stop-opacity="0.90625"/>
<stop offset="1" stop-color="#279CC1" stop-opacity="0"/>
</linearGradient>
<linearGradient id="paint37_linear_3577_3265" x1="629" y1="260.5" x2="290" y2="260.505" gradientUnits="userSpaceOnUse">
<stop stop-color="#279CC1" stop-opacity="0"/>
<stop offset="0.0896359" stop-color="#279CC1"/>
<stop offset="0.916667" stop-color="#279CC1" stop-opacity="0.903942"/>
<stop offset="1" stop-color="#279CC1" stop-opacity="0"/>
</linearGradient>
<linearGradient id="paint38_linear_3577_3265" x1="209.268" y1="260.001" x2="39.0013" y2="260.78" gradientUnits="userSpaceOnUse">
<stop stop-color="#279CC1" stop-opacity="0"/>
<stop offset="0.197917" stop-color="#279CC1" stop-opacity="0.977829"/>
<stop offset="0.69772" stop-color="#279CC1" stop-opacity="0.90625"/>
<stop offset="1" stop-color="#279CC1" stop-opacity="0"/>
</linearGradient>
<linearGradient id="paint39_linear_3577_3265" x1="616" y1="268.5" x2="290" y2="268.505" gradientUnits="userSpaceOnUse">
<stop stop-color="#279CC1" stop-opacity="0"/>
<stop offset="0.0896359" stop-color="#279CC1"/>
<stop offset="0.916667" stop-color="#279CC1" stop-opacity="0.903942"/>
<stop offset="1" stop-color="#279CC1" stop-opacity="0"/>
</linearGradient>
<linearGradient id="paint40_linear_3577_3265" x1="310.05" y1="268.523" x2="290" y2="268.524" gradientUnits="userSpaceOnUse">
<stop stop-color="#279CC1"/>
<stop offset="1" stop-color="#279CC1" stop-opacity="0"/>
</linearGradient>
<linearGradient id="paint41_linear_3577_3265" x1="310" y1="179.5" x2="290" y2="179.5" gradientUnits="userSpaceOnUse">
<stop stop-color="#279CC1"/>
<stop offset="1" stop-color="#279CC1" stop-opacity="0"/>
</linearGradient>
<linearGradient id="paint42_linear_3577_3265" x1="300.875" y1="180.277" x2="278.183" y2="180.278" gradientUnits="userSpaceOnUse">
<stop stop-color="#279CC1"/>
<stop offset="1" stop-color="#279CC1" stop-opacity="0"/>
</linearGradient>
<linearGradient id="paint43_linear_3577_3265" x1="322.875" y1="180.277" x2="306.337" y2="180.277" gradientUnits="userSpaceOnUse">
<stop stop-color="#279CC1"/>
<stop offset="1" stop-color="#279CC1" stop-opacity="0"/>
</linearGradient>
<linearGradient id="paint44_linear_3577_3265" x1="221.5" y1="268.501" x2="53.0002" y2="268.674" gradientUnits="userSpaceOnUse">
<stop stop-color="#279CC1" stop-opacity="0"/>
<stop offset="0.197917" stop-color="#279CC1" stop-opacity="0.977829"/>
<stop offset="0.684822" stop-color="#279CC1" stop-opacity="0.90625"/>
<stop offset="1" stop-color="#279CC1" stop-opacity="0"/>
</linearGradient>
<linearGradient id="paint45_linear_3577_3265" x1="448" y1="268" x2="407" y2="268" gradientUnits="userSpaceOnUse">
<stop stop-color="#279CC1" stop-opacity="0"/>
<stop offset="0.526042" stop-color="#58D7FF"/>
<stop offset="1" stop-color="#279CC1" stop-opacity="0"/>
</linearGradient>
<linearGradient id="paint46_linear_3577_3265" x1="425" y1="273.5" x2="433.5" y2="268" gradientUnits="userSpaceOnUse">
<stop stop-color="#279CC1" stop-opacity="0"/>
<stop offset="0.987981" stop-color="#58D7FF"/>
</linearGradient>
<linearGradient id="paint47_linear_3577_3265" x1="467.5" y1="244.5" x2="600" y2="244" gradientUnits="userSpaceOnUse">
<stop stop-color="#2595B9" stop-opacity="0"/>
<stop offset="0.520833" stop-color="#2FBBE8"/>
<stop offset="1" stop-color="#2595B9" stop-opacity="0"/>
</linearGradient>
<linearGradient id="paint48_linear_3577_3265" x1="435" y1="260.5" x2="567.5" y2="260" gradientUnits="userSpaceOnUse">
<stop stop-color="#2595B9" stop-opacity="0"/>
<stop offset="0.520833" stop-color="#2FBBE8"/>
<stop offset="1" stop-color="#2595B9" stop-opacity="0"/>
</linearGradient>
<linearGradient id="paint49_linear_3577_3265" x1="51" y1="260.5" x2="183.5" y2="260" gradientUnits="userSpaceOnUse">
<stop stop-color="#2595B9" stop-opacity="0"/>
<stop offset="0.520833" stop-color="#2FBBE8"/>
<stop offset="1" stop-color="#2595B9" stop-opacity="0"/>
</linearGradient>
<linearGradient id="paint50_linear_3577_3265" x1="70" y1="252.5" x2="202.5" y2="252" gradientUnits="userSpaceOnUse">
<stop stop-color="#2595B9" stop-opacity="0"/>
<stop offset="0.520833" stop-color="#2FBBE8"/>
<stop offset="1" stop-color="#2595B9" stop-opacity="0"/>
</linearGradient>
<linearGradient id="paint51_linear_3577_3265" x1="218" y1="220" x2="242.811" y2="243.838" gradientUnits="userSpaceOnUse">
<stop stop-color="#8542C8" stop-opacity="0.7"/>
<stop offset="1" stop-color="#8542C8" stop-opacity="0"/>
</linearGradient>
<linearGradient id="paint52_linear_3577_3265" x1="290" y1="292" x2="237.5" y2="244.23" gradientUnits="userSpaceOnUse">
<stop stop-color="#8542C8" stop-opacity="0.8"/>
<stop offset="0.373568" stop-color="#8542C8" stop-opacity="0.1"/>
<stop offset="0.901042" stop-color="#8542C8" stop-opacity="0.03"/>
</linearGradient>
<linearGradient id="paint53_linear_3577_3265" x1="222" y1="224" x2="247.865" y2="248.527" gradientUnits="userSpaceOnUse">
<stop stop-color="#8542C8"/>
<stop offset="1" stop-color="#8542C8" stop-opacity="0"/>
</linearGradient>
<linearGradient id="paint54_linear_3577_3265" x1="228.5" y1="230" x2="278.5" y2="282.5" gradientUnits="userSpaceOnUse">
<stop offset="0.152854" stop-color="#362A4F"/>
<stop offset="0.573365" stop-color="#31244A"/>
</linearGradient>
<linearGradient id="paint55_linear_3577_3265" x1="228" y1="229" x2="281" y2="282" gradientUnits="userSpaceOnUse">
<stop stop-color="#41315A"/>
<stop offset="1" stop-color="#41305C" stop-opacity="0.85"/>
</linearGradient>
<linearGradient id="paint56_linear_3577_3265" x1="239" y1="238" x2="267.5" y2="272" gradientUnits="userSpaceOnUse">
<stop stop-color="#00A7E2"/>
<stop offset="0.485076" stop-color="#9E79FD"/>
<stop offset="1" stop-color="#CD4BF8"/>
</linearGradient>
<linearGradient id="paint57_linear_3577_3265" x1="239" y1="238" x2="267.5" y2="272" gradientUnits="userSpaceOnUse">
<stop stop-color="#00A7E2"/>
<stop offset="0.485076" stop-color="#9E79FD"/>
<stop offset="1" stop-color="#CD4BF8"/>
</linearGradient>
<linearGradient id="paint58_linear_3577_3265" x1="239" y1="238" x2="267.5" y2="272" gradientUnits="userSpaceOnUse">
<stop stop-color="#00A7E2"/>
<stop offset="0.485076" stop-color="#9E79FD"/>
<stop offset="1" stop-color="#CD4BF8"/>
</linearGradient>
<linearGradient id="paint59_linear_3577_3265" x1="306" y1="220" x2="380" y2="294" gradientUnits="userSpaceOnUse">
<stop stop-color="#27C180" stop-opacity="0.6"/>
<stop offset="0.180743" stop-color="#1F46D2" stop-opacity="0.6"/>
<stop offset="0.471284" stop-color="#2053D0" stop-opacity="0.18"/>
<stop offset="0.775338" stop-color="#215FCD" stop-opacity="0.6"/>
<stop offset="1" stop-color="#279CC1" stop-opacity="0.6"/>
</linearGradient>
<linearGradient id="paint60_linear_3577_3265" x1="310" y1="224" x2="376" y2="290" gradientUnits="userSpaceOnUse">
<stop stop-color="#279CC1"/>
<stop offset="0.327114" stop-color="#279CC1" stop-opacity="0"/>
<stop offset="0.623067" stop-color="#279CC1" stop-opacity="0"/>
<stop offset="1" stop-color="#279CC1"/>
</linearGradient>
<linearGradient id="paint61_linear_3577_3265" x1="330.5" y1="241" x2="356.5" y2="273" gradientUnits="userSpaceOnUse">
<stop stop-color="#5A7CFB"/>
<stop offset="1" stop-color="#C13FFF"/>
</linearGradient>
<linearGradient id="paint62_linear_3577_3265" x1="328" y1="240" x2="358" y2="274" gradientUnits="userSpaceOnUse">
<stop stop-color="#59CCFD"/>
<stop offset="0.364583" stop-color="#3879EB"/>
<stop offset="1" stop-color="#8D1DE6"/>
</linearGradient>
<linearGradient id="paint63_linear_3577_3265" x1="328" y1="240" x2="358" y2="274" gradientUnits="userSpaceOnUse">
<stop stop-color="#59CCFD"/>
<stop offset="0.364583" stop-color="#3879EB"/>
<stop offset="1" stop-color="#8D1DE6"/>
</linearGradient>
<linearGradient id="paint64_linear_3577_3265" x1="328" y1="240" x2="358" y2="274" gradientUnits="userSpaceOnUse">
<stop stop-color="#59CCFD"/>
<stop offset="0.364583" stop-color="#3879EB"/>
<stop offset="1" stop-color="#8D1DE6"/>
</linearGradient>
<linearGradient id="paint65_linear_3577_3265" x1="486" y1="310" x2="560" y2="384" gradientUnits="userSpaceOnUse">
<stop stop-color="#279CC1"/>
<stop offset="0.327114" stop-color="#279CC1" stop-opacity="0"/>
<stop offset="0.623067" stop-color="#279CC1" stop-opacity="0"/>
<stop offset="1" stop-color="#279CC1"/>
</linearGradient>
<linearGradient id="paint66_linear_3577_3265" x1="396" y1="130" x2="470" y2="204" gradientUnits="userSpaceOnUse">
<stop stop-color="#279CC1"/>
<stop offset="0.327114" stop-color="#279CC1" stop-opacity="0"/>
<stop offset="0.623067" stop-color="#279CC1" stop-opacity="0"/>
<stop offset="1" stop-color="#279CC1"/>
</linearGradient>
<linearGradient id="paint67_linear_3577_3265" x1="417" y1="149" x2="449" y2="185" gradientUnits="userSpaceOnUse">
<stop offset="0.15583" stop-color="#3EB97D"/>
<stop offset="1" stop-color="#00695D"/>
</linearGradient>
<linearGradient id="paint68_linear_3577_3265" x1="417" y1="149" x2="449" y2="185" gradientUnits="userSpaceOnUse">
<stop offset="0.15583" stop-color="#3EB97D"/>
<stop offset="1" stop-color="#00695D"/>
</linearGradient>
<linearGradient id="paint69_linear_3577_3265" x1="417" y1="149" x2="449" y2="185" gradientUnits="userSpaceOnUse">
<stop offset="0.15583" stop-color="#3EB97D"/>
<stop offset="1" stop-color="#00695D"/>
</linearGradient>
<linearGradient id="paint70_linear_3577_3265" x1="417" y1="149" x2="449" y2="185" gradientUnits="userSpaceOnUse">
<stop offset="0.15583" stop-color="#3EB97D"/>
<stop offset="1" stop-color="#00695D"/>
</linearGradient>
<linearGradient id="paint71_linear_3577_3265" x1="128" y1="310" x2="202" y2="384" gradientUnits="userSpaceOnUse">
<stop stop-color="#279CC1"/>
<stop offset="0.327114" stop-color="#279CC1" stop-opacity="0"/>
<stop offset="0.623067" stop-color="#279CC1" stop-opacity="0"/>
<stop offset="1" stop-color="#279CC1"/>
</linearGradient>
<linearGradient id="paint72_linear_3577_3265" x1="146.667" y1="332" x2="183.333" y2="362" gradientUnits="userSpaceOnUse">
<stop stop-color="#47DFD0"/>
<stop offset="1" stop-color="#356E83"/>
</linearGradient>
<clipPath id="clip0_3577_3265">
<rect width="702" height="500" fill="white"/>
</clipPath>
</defs>
</svg>
