<?xml version="1.0" encoding="UTF-8" standalone="no"?><svg width="93" height="96" xmlns="http://www.w3.org/2000/svg" fill="none">
 <defs>
  <filter color-interpolation-filters="sRGB" filterUnits="userSpaceOnUse" height="40" width="64" y="56" x="16" id="filter0_f_1_535">
   <feGaussianBlur result="effect1_foregroundBlur_1_535" stdDeviation="5"/>
  </filter>
  <filter color-interpolation-filters="sRGB" filterUnits="userSpaceOnUse" height="57.121" width="44.0319" y="0" x="24" id="filter1_f_1_535">
   <feGaussianBlur result="effect1_foregroundBlur_1_535" stdDeviation="4"/>
  </filter>
  <filter color-interpolation-filters="sRGB" filterUnits="userSpaceOnUse" height="55.4132" width="32.1979" y="27.1593" x="5.73303" id="filter2_f_1_535">
   <feGaussianBlur result="effect1_foregroundBlur_1_535" stdDeviation="4"/>
  </filter>
  <linearGradient y2="0.568952" x2="0.354561" y1="0.243836" x1="0.528125" id="paint0_linear_1_535">
   <stop stop-color="#2244BF"/>
   <stop stop-color="#9FB4FF" offset="1"/>
  </linearGradient>
  <linearGradient y2="0.839416" x2="0.618557" y1="-0.014599" x1="0" id="paint1_linear_1_535">
   <stop stop-color="#3A29F9"/>
   <stop stop-color="#096CF8" offset="1"/>
  </linearGradient>
  <linearGradient y2="0.950118" x2="0.577778" y1="0.02615" x1="0.577778" id="paint2_linear_1_535">
   <stop stop-color="#52C1FF"/>
   <stop stop-color="#0359DA" offset="1"/>
  </linearGradient>
  <linearGradient y2="1.12791" x2="0.577465" y1="-0.104651" x1="0.577465" id="paint3_linear_1_535">
   <stop stop-color="#B3E3FF"/>
   <stop stop-color="#0359DA" offset="1"/>
  </linearGradient>
  <linearGradient y2="0.262449" x2="1.03066" y1="0.358883" x1="0.55" id="paint4_linear_1_535">
   <stop stop-opacity="0" stop-color="white"/>
   <stop stop-color="white" offset="1"/>
  </linearGradient>
  <linearGradient y2="0.34467" x2="0.892582" y1="0.469697" x1="0.635246" id="paint5_linear_1_535">
   <stop stop-opacity="0" stop-color="white"/>
   <stop stop-color="white" offset="1"/>
  </linearGradient>
  <linearGradient y2="2.105361" x2="0.5" y1="0" x1="0.5" id="paint6_linear_1_535">
   <stop stop-color="#33ADE1"/>
   <stop stop-color="#0DA7E9" offset="1"/>
  </linearGradient>
  <linearGradient y2="1" x2="1" y1="-0.005434" x1="0.989942" id="paint7_linear_1_535">
   <stop stop-color="#5AA2FF"/>
   <stop stop-color="#47F7CD" offset="1"/>
  </linearGradient>
  <linearGradient y2="1" x2="0" y1="-0.311457" x1="0" id="paint8_linear_1_535">
   <stop stop-color="#2372F2"/>
   <stop stop-color="#029CB1" offset="1"/>
  </linearGradient>
  <linearGradient y2="0.928571" x2="0.5" y1="0" x1="0.5" id="paint9_linear_1_535">
   <stop stop-opacity="0.6" stop-color="#77F0EA"/>
   <stop stop-opacity="0" stop-color="#77F0EA" offset="1"/>
  </linearGradient>
  <linearGradient y2="0.928571" x2="0.5" y1="0" x1="0.5" id="paint10_linear_1_535">
   <stop stop-color="#2B5BF3"/>
   <stop stop-opacity="0" stop-color="#2350F1" offset="1"/>
  </linearGradient>
  <linearGradient y2="0.830535" x2="0.682927" y1="-0.096935" x1="0.073171" id="paint11_linear_1_535">
   <stop stop-color="#2B33F8"/>
   <stop stop-color="#1876E5" offset="1"/>
  </linearGradient>
  <linearGradient y2="1.05378" x2="-4.625" y1="-0.333768" x1="-4.625" id="paint12_linear_1_535">
   <stop stop-color="#416BFF"/>
   <stop stop-color="#2351F1" offset="1"/>
  </linearGradient>
  <linearGradient y2="0.923696" x2="0.752659" y1="0.032549" x1="0.257977" id="paint13_linear_1_535">
   <stop stop-color="#5076FF"/>
   <stop stop-color="#3964FC" offset="1"/>
  </linearGradient>
  <linearGradient y2="0.963452" x2="0.945247" y1="0.033997" x1="0.08705" id="paint14_linear_1_535">
   <stop stop-color="#2F5DFF"/>
   <stop stop-color="#4C74FF" offset="1"/>
  </linearGradient>
  <linearGradient y2="0.885658" x2="0.577777" y1="0.009137" x1="0.577777" id="paint15_linear_1_535">
   <stop stop-color="#52C1FF"/>
   <stop stop-color="#0359DA" offset="1"/>
  </linearGradient>
  <linearGradient y2="0.219223" x2="1.01027" y1="0.342857" x1="0.55" id="paint16_linear_1_535">
   <stop stop-opacity="0" stop-color="white"/>
   <stop stop-color="white" offset="1"/>
  </linearGradient>
 </defs>
 <g>
  <title>background</title>
  <rect fill="none" id="canvas_background" height="796" width="1422" y="-1" x="-1"/>
 </g>
 <g>
  <title>Layer 1</title>
  <g id="svg_1" filter="url(#filter0_f_1_535)" opacity="0.4">
   <ellipse id="svg_2" fill="#073F67" ry="10" rx="22" cy="76" cx="48"/>
  </g>
  <path id="svg_3" stroke-opacity="0.1" stroke="#4D74FF" d="m48.5,65l16.5,9.5l-16.5,9.5l-16.5,-9.5l16.5,-9.5z"/>
  <path id="svg_4" stroke-opacity="0.1" stroke="#4D74FF" d="m48.5,60l25.5,14.5l-25.5,14.5l-25.5,-14.5l25.5,-14.5z"/>
  <path id="svg_5" stroke-opacity="0.1" stroke="#4D74FF" d="m48.5,55l34.5,19.5l-34.5,19.5l-34.5,-19.5l34.5,-19.5z"/>
  <path id="svg_6" fill="url(#paint0_linear_1_535)" d="m61.375,62.8328l0,-10.2911l-15.4167,-8.5417l0,10.2911c0,0.5937 -0.3157,1.1425 -0.8289,1.4409l-6.1318,3.2192c-0.8694,0.4565 -0.8972,1.6912 -0.0491,2.1863l12.2103,7.1282c0.7774,0.4538 1.7388,0.4547 2.517,0.0022l6.8702,-3.9943c0.5132,-0.2984 0.829,-0.8472 0.829,-1.4408z"/>
  <path id="svg_7" fill="url(#paint1_linear_1_535)" d="m29,1l48.5,28l0,40.5l-48.5,-28l0,-40.5z"/>
  <path id="svg_8" fill="#5176FF" d="m29,1l48.5,28l1.5,-1l-48.5,-28l-1.5,1z"/>
  <path id="svg_9" fill="#024DD2" d="m77.5,29l0,40.5l1.5,-1l0,-40.5l-1.5,1z"/>
  <path id="svg_10" fill="url(#paint2_linear_1_535)" d="m75.5,61.3613l0,-31.3613l-45,-26l0,31.3613l45,26z"/>
  <path id="svg_11" fill="url(#paint3_linear_1_535)" d="m69.5,53.9999l0,-22.4999l-35.5,-20.5l0,22.4999l35.5,20.5z"/>
  <g id="svg_12" filter="url(#filter1_f_1_535)" opacity="0.6">
   <rect id="svg_13" fill="white" transform="rotate(58.14609909057617 36.042999267578125,7.9999999999999964) " height="4.75984" width="45.4545" y="8" x="36.043"/>
  </g>
  <path id="svg_14" stroke-width="1.8" stroke="url(#paint4_linear_1_535)" d="m67.5,23l9.5145,5.7087c0.3012,0.1807 0.4855,0.5062 0.4855,0.8575l0,13.9338"/>
  <path id="svg_15" stroke-width="1.8" stroke="url(#paint5_linear_1_535)" d="m46,17l23.8977,13.7118c0.3107,0.1783 0.5023,0.5091 0.5023,0.8673l0,18.4209" opacity="0.6"/>
  <path id="svg_16" fill="url(#paint6_linear_1_535)" d="m58.7053,69l7.7053,4.4362l-7.7053,4.4362l-7.7053,-4.4362l7.7053,-4.4362z"/>
  <path id="svg_17" fill="url(#paint7_linear_1_535)" d="m51,83.2434l7.7053,4.4362l0,-9.8072l-7.7053,-4.4362l0,9.8072z"/>
  <path id="svg_18" fill="url(#paint8_linear_1_535)" d="m58.7053,87.6796l7.7053,-4.4362l0,-9.8072l-7.7053,4.4362l0,9.8072z"/>
  <rect id="svg_19" fill="url(#paint9_linear_1_535)" rx="4" height="42" width="8" y="11"/>
  <rect id="svg_20" fill="url(#paint10_linear_1_535)" rx="4" height="42" width="8" y="47" x="85"/>
  <path id="svg_21" fill="url(#paint11_linear_1_535)" d="m11,29.4151c0,-0.8068 0.4584,-1.4562 1.0873,-1.7796c0.0138,-0.0071 0.0277,-0.0141 0.0417,-0.0209c0.5552,-0.2696 1.2355,-0.2882 1.8495,0.0562l15.4785,8.6831c1.2618,0.7078 2.043,2.0418 2.043,3.4886l0,36.2423c0,0.8032 -0.4542,1.4503 -1.0787,1.7752c-0.0142,0.0075 -0.0286,0.0147 -0.043,0.0218c-0.5565,0.273 -1.2401,0.2933 -1.8568,-0.0527l-15.4785,-8.683c-1.2618,-0.7079 -2.043,-2.0419 -2.043,-3.4886l0,-36.2424z"/>
  <path id="svg_22" fill="url(#paint12_linear_1_535)" d="m31.5,39.8425l0,36.2423l2,-1l0,-36.2423l-2,1z"/>
  <path id="svg_23" fill="url(#paint13_linear_1_535)" d="m29.457,36.3539c1.2618,0.7078 2.043,2.0418 2.043,3.4886l2,-1c0,-1.4468 -0.7812,-2.7808 -2.043,-3.4886l-2,1z"/>
  <path id="svg_24" fill="url(#paint14_linear_1_535)" d="m13.9785,27.6708l15.4785,8.6831l2,-1l-15.4785,-8.6831l-2,1z"/>
  <path id="svg_25" fill="#2F5DFF" d="m15.9785,26.6708c-0.6087,-0.3414 -1.2825,-0.3261 -1.835,-0.0632l-2.0145,1.007c0.5552,-0.2696 1.2355,-0.2882 1.8495,0.0562l2,-1z"/>
  <path id="svg_26" fill="#0D39D4" d="m32.5728,76.7728c0.5451,-0.3459 0.9272,-0.9513 0.9272,-1.688l-2,1c0,0.8032 -0.4542,1.4503 -1.0787,1.7752l2.1515,-1.0872z"/>
  <path id="svg_27" fill="url(#paint15_linear_1_535)" d="m12.5,30.7232c0,-0.7678 0.8295,-1.2492 1.4961,-0.8683l14.9962,8.5693c0.6231,0.356 1.0077,1.0187 1.0077,1.7364l0,34.6162c0,0.7678 -0.8295,1.2492 -1.4961,0.8683l-14.9962,-8.5693c-0.6231,-0.356 -1.0077,-1.0187 -1.0077,-1.7364l0,-34.6162z"/>
  <g id="svg_28" filter="url(#filter2_f_1_535)" opacity="0.6">
   <rect id="svg_29" fill="white" transform="rotate(72.36430358886719 17.813699722290036,35.15930175781251) " height="4.28191" width="39.9956" y="35.1593" x="17.8137"/>
  </g>
  <path id="svg_30" fill="#2744F4" d="m17.8,31.4l8,4.5l0,0.4353c0,1.1472 -1.2354,1.8698 -2.2353,1.3073l-4.7452,-2.6691c-0.6297,-0.3543 -1.0195,-1.0206 -1.0195,-1.7432l0,-1.8303z"/>
  <path id="svg_31" stroke-width="1.8" stroke="url(#paint16_linear_1_535)" d="m31.5,49.5l0,-10.2262c0,-1.0941 -0.5956,-2.1014 -1.5542,-2.6286l-8.4458,-4.6452"/>
 </g>
</svg>