<svg width="98" height="38" viewBox="0 0 98 38" fill="none" xmlns="http://www.w3.org/2000/svg">
<path fill-rule="evenodd" clip-rule="evenodd" d="M21.0148 7.02219C28.0907 7.02219 33.8269 12.7583 33.8269 19.8343C33.8269 26.9102 28.0907 32.6463 21.0148 32.6463C19.822 32.6463 18.6672 32.4833 17.5716 32.1783L18.6247 29.2454C18.7164 28.9912 18.9645 28.829 19.2321 28.8477L19.2631 28.8506C19.3154 28.8569 19.3666 28.8615 19.4169 28.8659L19.5382 28.8779C20.3402 28.9608 21.0436 28.6965 21.5207 28.1295C22.0116 27.5455 22.1865 26.7247 21.9771 25.9876L21.9592 25.927C21.7925 25.3919 21.4115 24.9707 20.8849 24.7388C20.3328 24.4955 19.7046 24.5019 19.1616 24.7569C18.5206 25.0581 18.0223 25.4502 17.6805 25.9226C17.5858 26.0536 17.4425 26.1409 17.283 26.1652C17.1241 26.1891 16.9604 26.1492 16.8313 26.0519C14.3937 24.2273 14.5147 21.9685 14.9353 20.9726L14.9537 20.9304C15.2859 21.1689 15.6385 21.3788 16.0073 21.5577C16.9836 22.0316 18.0725 22.289 19.1933 22.289C19.928 22.289 20.6762 22.1785 21.4156 21.9457C23.3007 21.3528 24.8418 20.0611 25.7553 18.3086C26.6688 16.5561 26.8454 14.5525 26.2525 12.6672C25.725 10.9896 24.6146 9.55194 23.1264 8.61919C22.8443 8.44238 22.4728 8.52782 22.2953 8.81003C22.1187 9.09191 22.2043 9.46396 22.4861 9.64076C23.7315 10.4214 24.6608 11.6247 25.1028 13.0291C25.599 14.6074 25.4511 16.2844 24.6863 17.7513C23.9219 19.2181 22.6316 20.2993 21.0538 20.7958C18.2652 21.6714 14.5756 20.3609 13.5225 17.0121C13.4227 16.6947 13.0846 16.517 12.7667 16.6179C12.6438 16.6566 12.542 16.731 12.4692 16.826C12.4254 16.8653 12.3867 16.9116 12.3549 16.9647C11.1372 18.9896 10.8762 21.5418 11.6391 23.967C11.6844 24.111 11.7317 24.2525 11.7811 24.3915L11.8312 24.5296L9.79879 26.0318C8.78177 24.1952 8.20276 22.0823 8.20276 19.8343C8.20276 12.7583 13.9389 7.02219 21.0148 7.02219ZM14.8675 28.5843C15.0953 28.7321 15.332 28.865 15.5771 28.9826L15.7004 29.0402L14.6711 30.9681C14.285 30.7476 13.9114 30.5076 13.5517 30.2494L14.8675 28.5843ZM13.3154 27.1865C13.5153 27.4296 13.7267 27.6557 13.9494 27.8643L14.0455 27.9526L12.7347 29.6114C12.3918 29.3208 12.0644 29.0124 11.7539 28.6877L13.3154 27.1865ZM12.2493 25.5095C12.3672 25.7507 12.4926 25.9821 12.6252 26.2035L12.7057 26.3351L11.0677 27.9098C10.8098 27.5925 10.5667 27.2626 10.3396 26.9211L12.2493 25.5095ZM18.971 9.51909C18.3284 9.72124 17.9713 10.4063 18.1735 11.0489C18.3757 11.6915 19.0605 12.0487 19.7031 11.8463C20.3459 11.6442 20.7029 10.9594 20.5008 10.3168C20.2986 9.6742 19.6138 9.31693 18.971 9.51909Z" fill="white"/>
<path fill-rule="evenodd" clip-rule="evenodd" d="M29.5601 31.8201C28.5249 31.8201 27.5541 31.3048 26.8955 30.3655C26.7477 30.1543 26.799 29.8626 27.0102 29.7145C27.2218 29.5667 27.5129 29.6175 27.6612 29.8291C28.284 30.718 29.2392 31.0764 30.2164 30.7886C30.4057 30.7329 30.5865 30.6539 30.7542 30.5539C30.9765 30.4219 31.2634 30.4945 31.395 30.716C31.5272 30.9376 31.4548 31.2244 31.2333 31.3566C30.9981 31.4968 30.7448 31.6072 30.4803 31.6852C30.1722 31.7759 29.8633 31.8201 29.5601 31.8201Z" fill="white"/>
<path fill-rule="evenodd" clip-rule="evenodd" d="M44.0062 18.8751V20.1513H48.3794V22.3039H44.1753V23.8741H48.3794V26.0033H42.52V27.3883H55.9091V26.0033H49.9939V23.8741H54.3261V22.3039H49.9939V20.1513H54.3945V18.8751H44.0062Z" fill="white"/>
<path fill-rule="evenodd" clip-rule="evenodd" d="M41.9188 17.9578L42.8507 19.1079L49.2066 14.504L55.5448 19.1387L56.4977 17.9582L49.207 12.6581L41.9188 17.9578Z" fill="white"/>
<path fill-rule="evenodd" clip-rule="evenodd" d="M59.6758 16.4607L60.6175 17.5888L61.2468 17.0643V19.9992H63.4394L59.7656 21.6077L60.3054 22.8402L65.6293 20.509L68.6968 21.93V26.0499H65.2564L64.1883 27.4026L70.0667 27.4018V23.7033L70.4106 23.416L73.9452 26.9516L74.9851 25.9118L71.5438 22.4716L73.1963 21.0933L72.2842 19.9992H73.0643V15.9197L68.3003 15.9174L69.8343 14.8959V13.5893H65.4139L66.1591 12.9679L65.2189 11.8387L59.6758 16.4607ZM62.6245 15.9149L63.9171 14.8375H67.7644L66.4706 15.9168L62.6245 15.9149ZM67.6647 17.2327H71.3626V18.67H66.9532L67.6647 17.2327ZM62.9986 17.2327H66.0051L65.2996 18.67H62.9986V17.2327ZM70.0676 20.942L68.025 19.9991H72.2118L70.0667 21.7886L70.0676 20.942Z" fill="white"/>
<path fill-rule="evenodd" clip-rule="evenodd" d="M66.4723 21.13L60.343 23.813L60.8824 25.046L67.021 22.3586L66.481 21.1263L66.4723 21.13Z" fill="white"/>
<path fill-rule="evenodd" clip-rule="evenodd" d="M67.5329 22.9524L60.4808 26.0404L61.0201 27.273L68.0719 24.1848L67.5329 22.9524Z" fill="white"/>
<path fill-rule="evenodd" clip-rule="evenodd" d="M77.2578 18.141V19.9002H81.838L77.7788 27.4333L90.3964 27.434L87.8886 22.9702H86.0914L87.6847 25.8101H80.5531L83.6623 19.9002H90.2038V18.141H77.2578Z" fill="white"/>
<path fill-rule="evenodd" clip-rule="evenodd" d="M79.005 15.4583H88.8668V13.6995H79.005V15.4583Z" fill="white"/>
</svg>
