<?xml version="1.0" encoding="UTF-8" standalone="no"?><svg width="90" height="110" xmlns="http://www.w3.org/2000/svg" fill="none">
 <defs>
  <filter color-interpolation-filters="sRGB" filterUnits="userSpaceOnUse" height="50" width="90" y="60" x="0" id="filter0_f_5831_3270">
   <feGaussianBlur result="effect1_foregroundBlur_5831_3270" stdDeviation="7.5"/>
  </filter>
  <filter color-interpolation-filters="sRGB" filterUnits="userSpaceOnUse" height="12.3846" width="15.274" y="67.0107" x="43.3844" id="filter1_f_5831_3270">
   <feGaussianBlur result="effect1_foregroundBlur_5831_3270" stdDeviation="1"/>
  </filter>
  <filter color-interpolation-filters="sRGB" filterUnits="userSpaceOnUse" height="20.4244" width="15.0532" y="63.281" x="32.6854" id="filter2_f_5831_3270">
   <feGaussianBlur result="effect1_foregroundBlur_5831_3270" stdDeviation="1"/>
  </filter>
  <filter color-interpolation-filters="sRGB" filterUnits="userSpaceOnUse" height="35.879" width="31" y="52" x="30" id="filter3_b_5831_3270">
   <feGaussianBlur stdDeviation="2" in="BackgroundImage"/>
  </filter>
  <filter color-interpolation-filters="sRGB" filterUnits="userSpaceOnUse" height="16" width="14" y="17.5" x="43.5" id="filter4_f_5831_3270">
   <feGaussianBlur result="effect1_foregroundBlur_5831_3270" stdDeviation="2"/>
  </filter>
  <filter color-interpolation-filters="sRGB" filterUnits="userSpaceOnUse" height="38.5" width="38.5" y="26" x="29" id="filter5_f_5831_3270">
   <feGaussianBlur result="effect1_foregroundBlur_5831_3270" stdDeviation="2.5"/>
  </filter>
  <filter color-interpolation-filters="sRGB" filterUnits="userSpaceOnUse" height="56.2206" width="23.9849" y="8" x="33" id="filter6_f_5831_3270">
   <feGaussianBlur result="effect1_foregroundBlur_5831_3270" stdDeviation="4"/>
  </filter>
  <linearGradient y2="2.105346" x2="0.5" y1="0" x1="0.5" id="paint0_linear_5831_3270">
   <stop stop-color="#33ADE1"/>
   <stop stop-color="#0DA7E9" offset="1"/>
  </linearGradient>
  <linearGradient y2="1" x2="1" y1="-0.005439" x1="0.989946" id="paint1_linear_5831_3270">
   <stop stop-color="#5AA2FF"/>
   <stop stop-color="#47F7CD" offset="1"/>
  </linearGradient>
  <linearGradient y2="1" x2="0" y1="-0.31146" x1="0" id="paint2_linear_5831_3270">
   <stop stop-color="#2372F2"/>
   <stop stop-color="#029CB1" offset="1"/>
  </linearGradient>
  <linearGradient y2="1.000003" x2="0.500015" y1="0.083337" x1="0.400037" id="paint3_linear_5831_3270">
   <stop stop-color="white"/>
   <stop stop-opacity="0" stop-color="white" offset="1"/>
  </linearGradient>
  <linearGradient y2="0" x2="0" y1="0.857156" x1="0.980396" id="paint4_linear_5831_3270">
   <stop stop-color="white"/>
   <stop stop-opacity="0" stop-color="white" offset="1"/>
  </linearGradient>
  <linearGradient y2="-0.13919" x2="1.04743" y1="0.857156" x1="0.021798" id="paint5_linear_5831_3270">
   <stop stop-color="white"/>
   <stop stop-opacity="0" stop-color="white" offset="1"/>
  </linearGradient>
  <linearGradient y2="0.948609" x2="0.12935" y1="0.006432" x1="0.823136" id="paint6_linear_5831_3270">
   <stop stop-color="#C427FA"/>
   <stop stop-color="#5145F0" offset="0.515227"/>
   <stop stop-color="#1271E4" offset="1"/>
  </linearGradient>
  <linearGradient y2="1" x2="-0.011638" y1="0.030265" x1="1" id="paint7_linear_5831_3270">
   <stop stop-color="#CA3BF2"/>
   <stop stop-color="#8864FA" offset="0.45841"/>
   <stop stop-color="#23D1DF" offset="1"/>
  </linearGradient>
  <linearGradient y2="1.052819" x2="0.057569" y1="0" x1="0.825476" id="paint8_linear_5831_3270">
   <stop stop-color="#9F1BC1"/>
   <stop stop-color="#852AE2" offset="1"/>
  </linearGradient>
  <linearGradient y2="0.505556" x2="0.99501" y1="0.061111" x1="0.688853" id="paint9_linear_5831_3270">
   <stop stop-color="white"/>
   <stop stop-opacity="0" stop-color="white" offset="1"/>
  </linearGradient>
  <linearGradient y2="1.004671" x2="0.998203" y1="0.10342" x1="0.167795" id="paint10_linear_5831_3270">
   <stop stop-opacity="0" stop-color="white"/>
   <stop stop-color="white" offset="1"/>
  </linearGradient>
  <linearGradient y2="0.928571" x2="0.5" y1="0" x1="0.5" id="paint11_linear_5831_3270">
   <stop stop-opacity="0.6" stop-color="#77F0EA"/>
   <stop stop-opacity="0" stop-color="#77F0EA" offset="1"/>
  </linearGradient>
  <linearGradient y2="0.928571" x2="0.5" y1="0" x1="0.5" id="paint12_linear_5831_3270">
   <stop stop-color="#2B5BF3"/>
   <stop stop-opacity="0" stop-color="#2350F1" offset="1"/>
  </linearGradient>
 </defs>
 <g>
  <title>background</title>
  <rect fill="none" id="canvas_background" height="739" width="1422" y="-1" x="-1"/>
 </g>
 <g>
  <title>Layer 1</title>
  <g id="svg_1" filter="url(#filter0_f_5831_3270)" opacity="0.4">
   <ellipse id="svg_2" fill="#073F67" ry="10" rx="30" cy="85" cx="45"/>
  </g>
  <path id="svg_3" stroke-opacity="0.1" stroke="#4D74FF" d="m45.5,71l16.5,9.5l-16.5,9.5l-16.5,-9.5l16.5,-9.5z"/>
  <path id="svg_4" stroke-opacity="0.1" stroke="#4D74FF" d="m45.5,66l25.5,14.5l-25.5,14.5l-25.5,-14.5l25.5,-14.5z"/>
  <path id="svg_5" stroke-opacity="0.1" stroke="#4D74FF" d="m45.5,61l34.5,19.5l-34.5,19.5l-34.5,-19.5l34.5,-19.5z"/>
  <path id="svg_6" fill="url(#paint0_linear_5831_3270)" d="m45.4797,59.9033l8.1457,4.6898l-8.1457,4.6898l-8.1457,-4.6898l8.1457,-4.6898z"/>
  <path id="svg_7" fill="url(#paint1_linear_5831_3270)" d="m37.334,74.9609l8.1457,4.6897l0,-10.3677l-8.1457,-4.6898l0,10.3678z"/>
  <path id="svg_8" fill="url(#paint2_linear_5831_3270)" d="m45.4797,79.6506l8.1457,-4.6897l0,-10.3678l-8.1457,4.6898l0,10.3677z"/>
  <g id="svg_9" filter="url(#filter1_f_5831_3270)">
   <rect id="svg_10" fill="white" transform="rotate(34.19540023803711 46.2985000610352,69.0106964111328) " height="1.62635" width="12.5253" y="69.0107" x="46.2985"/>
  </g>
  <g id="svg_11" filter="url(#filter2_f_5831_3270)">
   <rect id="svg_12" fill="white" transform="rotate(58.14609909057617 36.066898345947266,65.28099822998047) " height="1.62635" width="18.3261" y="65.281" x="36.0669"/>
  </g>
  <g id="svg_13" filter="url(#filter3_b_5831_3270)">
   <path id="svg_14" fill-opacity="0.8" fill="#418EF6" d="m45.5,56l11.5,6.621l-11.5,6.6209l-11.5,-6.6209l11.5,-6.621z"/>
   <path id="svg_15" fill-opacity="0.8" fill="#4794F7" d="m34,77.2581l11.5,6.6209l0,-14.6371l-11.5,-6.6209l0,14.6371z"/>
   <path id="svg_16" fill-opacity="0.8" fill="#3880F6" d="m45.5,83.879l11.5,-6.6209l0,-14.6371l-11.5,6.6209l0,14.6371z"/>
  </g>
  <rect id="svg_17" fill="url(#paint3_linear_5831_3270)" height="9.75807" width="0.813173" y="69.0107" x="45.0591"/>
  <path id="svg_18" fill="url(#paint4_linear_5831_3270)" d="m37.2527,64.1317l8.2943,4.8791l0,0.8131l-8.2943,-4.879l0,-0.8132z"/>
  <path id="svg_19" fill="url(#paint5_linear_5831_3270)" d="m53.6787,64.1317l-8.2944,4.8791l0,0.8131l8.2944,-4.879l0,-0.8132z"/>
  <path id="svg_20" fill="#2B48FA" d="m45.155,60.1336l-2.2915,-7.834l-4.6702,3.6882l6.9617,4.1458z"/>
  <path id="svg_21" fill="url(#paint6_linear_5831_3270)" d="m41.3358,12.6245l-32.3358,52.3105l10.1845,6.065l14.0772,-22.7731l18.2586,-29.5374l-2.1696,-1.292l-8.0149,-4.773z"/>
  <path id="svg_22" fill="url(#paint7_linear_5831_3270)" d="m42.8635,52.2996l2.2915,7.834l32.845,-53.06862l-24.1882,21.48012l-2.2915,-9.8556l-18.2586,29.5374l-14.0772,22.7731l19.0088,-15.0122l4.6702,-3.6882z"/>
  <path id="svg_23" fill="url(#paint8_linear_5831_3270)" d="m53.8118,28.5451l24.1882,-21.48012l-10.1845,-6.06498l-18.4648,16.3975l2.1696,1.292l2.2915,9.8556z"/>
  <path id="svg_24" fill-opacity="0.3" fill="white" d="m51.5203,18.6895l0.2435,-0.0566l-0.0241,-0.1037l-0.0915,-0.0545l-0.1279,0.2148zm-32.3358,52.3105l-0.1279,0.2148l0.1478,0.088l0.135,-0.1066l-0.1549,-0.1962zm23.679,-18.7004l0.2399,-0.0701l-0.104,-0.3558l-0.2909,0.2297l0.155,0.1962zm2.2915,7.834l-0.1279,0.2148l0.2111,0.1257l0.1294,-0.209l-0.2126,-0.1315zm32.845,-53.06862l0.2126,0.13157l0.1338,-0.21625l-0.2185,-0.13012l-0.1279,0.2148zm-24.1882,21.48012l-0.2435,0.0566l0.0952,0.4095l0.3143,-0.2791l-0.166,-0.187zm-12.476,-15.9206l0.1279,-0.2147l-0.2113,-0.1259l-0.1293,0.2092l0.2127,0.1314zm-32.3358,52.3105l-0.21265,-0.1314l-0.13365,0.2162l0.21839,0.13l0.12791,-0.2148zm58.8155,-63.935l0.1279,-0.2148l-0.1571,-0.09358l-0.1368,0.12145l0.166,0.18693zm-34.5538,47.2269l0.2127,0.1315l-0.2127,-0.1315zm4.9316,7.7609l-0.1549,-0.1962l0.1549,0.1962zm11.1574,-38.5903l-0.1279,0.2148l0.1279,-0.2148zm-6.7272,34.9723l2.2915,7.834l0.4799,-0.1404l-2.2915,-7.8339l-0.4799,0.1403zm2.7441,7.8953l32.845,-53.06855l-0.4252,-0.26314l-32.845,53.06859l0.4252,0.2631zm32.4664,-53.38705l-24.1882,21.48015l0.332,0.3739l24.1882,-21.48019l-0.332,-0.37386zm-36.7109,5.61505l-32.33575,52.3105l0.4253,0.2629l32.33575,-52.3105l-0.4253,-0.2629zm37.0048,-5.64292l-10.1845,-6.06498l-0.2558,0.4296l10.1845,6.06498l0.2558,-0.4296zm-58.8155,63.93502l-10.18449,-6.065l-0.25582,0.4296l10.18451,6.065l0.2558,-0.4296zm0.0848,0.3463l14.0772,-22.7731l-0.4253,-0.2629l-14.0772,22.773l0.4253,0.263zm31.9104,-52.5734l-18.2585,29.5374l0.4253,0.2629l18.2585,-29.5374l-0.4253,-0.2629zm-31.9682,52.6381l19.0089,-15.0122l-0.3099,-0.3924l-19.0088,15.0122l0.3098,0.3924zm25.9435,-11.2774l-6.9616,-4.1458l-0.2559,0.4296l6.9617,4.1458l0.2558,-0.4296zm-6.9346,-3.7348l4.6701,-3.6882l-0.3099,-0.3924l-4.6701,3.6882l0.3099,0.3924zm11.1303,-39.0013l-8.0149,-4.7729l-0.2558,0.4295l8.0149,4.773l0.2558,-0.4296zm2.1696,1.292l-2.1696,-1.292l-0.2558,0.4296l2.1696,1.292l0.2558,-0.4296zm16.0013,-17.66163l-18.4648,16.39753l0.332,0.3738l18.4648,-16.39747l-0.332,-0.37386zm-13.5942,27.67543l-2.2915,-9.8556l-0.487,0.1132l2.2915,9.8556l0.487,-0.1132z"/>
  <g id="svg_25" filter="url(#filter4_f_5831_3270)">
   <path id="svg_26" fill="#8D26D8" d="m47.5,26.5l3,-5l3,8l-6,-3z"/>
  </g>
  <g id="svg_27" filter="url(#filter5_f_5831_3270)" opacity="0.5">
   <path id="svg_28" fill="#2C48F9" d="m62.5,31l-17.5,28.5l-1.5,-8l-5.5,4.5l-4,-2l28.5,-23z"/>
  </g>
  <path id="svg_29" stroke-linejoin="bevel" stroke-width="2" stroke="url(#paint9_linear_5831_3270)" d="m40,37l11,-18l2.0652,9.5"/>
  <g id="svg_30" filter="url(#filter6_f_5831_3270)" opacity="0.6">
   <rect id="svg_31" fill="white" transform="rotate(84.66100311279297 45.263301849365234,16.000000000000004) " height="4.28191" width="39.9956" y="16" x="45.2633"/>
  </g>
  <path id="svg_32" stroke-width="2" stroke="url(#paint10_linear_5831_3270)" d="m42.15,14.28l8.8465,5.2669"/>
  <rect id="svg_33" fill="url(#paint11_linear_5831_3270)" rx="4" height="42" width="8" y="38" x="72"/>
  <rect id="svg_34" fill="url(#paint12_linear_5831_3270)" rx="4" height="42" width="8" y="7" x="12"/>
 </g>
</svg>