<?xml version="1.0" encoding="UTF-8" standalone="no"?><svg width="16" height="16" xmlns="http://www.w3.org/2000/svg" fill="none">

 <g>
  <title>background</title>
  <rect fill="none" id="canvas_background" height="739" width="1422" y="-1" x="-1"/>
 </g>
 <g>
  <title>Layer 1</title>
  <path id="svg_1" fill="#7544FF" d="m2.75,2.09375c-0.36244,0 -0.65625,0.29381 -0.65625,0.65625l0,2.78906l2.625,0l0,-0.82031l6.56245,0l0,0.82031l2.625,0l0,-2.78906c0,-0.36244 -0.2938,-0.65625 -0.6562,-0.65625l-10.5,0z"/>
  <path id="svg_2" fill="#7544FF" d="m13.9062,6.52344l-2.625,0l0,2.95312l2.625,0l0,-2.95312z"/>
  <path id="svg_3" fill="#7544FF" d="m13.9062,10.4609l-2.625,0l0,0.8203l-6.56245,0l0,-0.8203l-2.625,0l0,2.7891c0,0.3624 0.29381,0.6562 0.65625,0.6562l10.5,0c0.3624,0 0.6562,-0.2938 0.6562,-0.6562l0,-2.7891z"/>
  <path id="svg_4" fill="#7544FF" d="m4.71875,6.52344l0,2.95312l-2.625,0l0,-2.95312l2.625,0z"/>
 </g>
</svg>