<?xml version="1.0" encoding="UTF-8" standalone="no"?><svg width="16" height="16" xmlns="http://www.w3.org/2000/svg" fill="none">
 <defs>
  <clipPath id="clip0_4718_3414">
   <rect id="svg_1" x="0.125" y="0.125" fill="white" height="15.75" width="15.75"/>
  </clipPath>
 </defs>
 <g>
  <title>background</title>
  <rect fill="none" id="canvas_background" height="739" width="1422" y="-1" x="-1"/>
 </g>
 <g>
  <title>Layer 1</title>
  <g id="svg_2" clip-path="url(#clip0_4718_3414)">
   <path id="svg_3" fill="#308DFF" d="m8,1.76562c0.36244,0 0.65625,-0.29381 0.65625,-0.65624c0,-0.362442 -0.29381,-0.656255 -0.65625,-0.656255c-0.36244,0 -0.65625,0.293813 -0.65625,0.656255c0,0.36243 0.29381,0.65624 0.65625,0.65624z"/>
   <path id="svg_4" fill="#308DFF" d="m12.9219,7.34375c0,2.01828 -1.2148,3.75285 -2.95315,4.51235l0,2.3783c0,0.3624 -0.29381,0.6562 -0.65625,0.6562l-2.625,0c-0.36244,0 -0.65625,-0.2938 -0.65625,-0.6562l0,-2.3783c-1.73831,-0.7595 -2.95313,-2.49407 -2.95313,-4.51235c0,-2.71828 2.2036,-4.92187 4.92188,-4.92187c2.7183,0 4.9219,2.20359 4.9219,4.92187z"/>
   <path id="svg_5" fill="#308DFF" d="m14.8906,7.34375c0,0.36244 -0.2938,0.65625 -0.6562,0.65625c-0.3625,0 -0.6563,-0.29381 -0.6563,-0.65625c0,-0.36244 0.2938,-0.65625 0.6563,-0.65625c0.3624,0 0.6562,0.29381 0.6562,0.65625z"/>
   <path id="svg_6" fill="#308DFF" d="m1.76562,8c0.36244,0 0.65626,-0.29381 0.65626,-0.65625c0,-0.36244 -0.29382,-0.65625 -0.65626,-0.65625c-0.36243,0 -0.65624,0.29381 -0.65624,0.65625c0,0.36244 0.29381,0.65625 0.65624,0.65625z"/>
   <path id="svg_7" fill="#308DFF" d="m12.8724,3.39935c-0.2563,0.25628 -0.6718,0.25628 -0.9281,0c-0.2562,-0.25628 -0.2562,-0.6718 0,-0.92808c0.2563,-0.25628 0.6718,-0.25628 0.9281,0c0.2563,0.25628 0.2563,0.6718 0,0.92808z"/>
   <path id="svg_8" fill="#308DFF" d="m3.12758,12.2161c0.25628,0.2563 0.6718,0.2563 0.92808,0c0.25628,-0.2563 0.25628,-0.6718 0,-0.9281c-0.25628,-0.2563 -0.6718,-0.2563 -0.92808,0c-0.25628,0.2563 -0.25628,0.6718 0,0.9281z"/>
   <path id="svg_9" fill="#308DFF" d="m12.8724,12.2161c-0.2563,0.2563 -0.6718,0.2563 -0.9281,0c-0.2562,-0.2563 -0.2562,-0.6718 0,-0.9281c0.2563,-0.2563 0.6718,-0.2563 0.9281,0c0.2563,0.2563 0.2563,0.6718 0,0.9281z"/>
   <path id="svg_10" fill="#308DFF" d="m3.12758,3.39935c0.25628,0.25628 0.6718,0.25628 0.92808,0c0.25628,-0.25628 0.25628,-0.6718 0,-0.92808c-0.25628,-0.25628 -0.6718,-0.25628 -0.92808,0c-0.25628,0.25628 -0.25628,0.6718 0,0.92808z"/>
  </g>
 </g>
</svg>