<?xml version="1.0" encoding="UTF-8" standalone="no"?><svg width="16" height="16" xmlns="http://www.w3.org/2000/svg" fill="none">
 <defs>
  <clipPath id="clip0_4722_3496">
   <rect id="svg_1" x="0.125" y="0.125" fill="white" height="15.75" width="15.75"/>
  </clipPath>
 </defs>
 <g>
  <title>background</title>
  <rect fill="none" id="canvas_background" height="739" width="1422" y="-1" x="-1"/>
 </g>
 <g>
  <title>Layer 1</title>
  <g id="svg_2" clip-path="url(#clip0_4722_3496)">
   <path id="svg_3" fill="#7544FF" d="m7.50781,0.78125c0.82688,0 1.47657,0.6918 1.47657,1.56406c0,0.27071 -0.05907,0.48125 -0.17719,0.72188c-0.10019,0.20409 -0.21398,0.43589 -0.26756,0.66719l3.72597,0c0.3625,0 0.6563,0.29381 0.6563,0.65625l0,3.72901c0.2155,-0.04754 0.4191,-0.1481 0.6108,-0.24278c0.0189,-0.00934 0.0377,-0.01863 0.0564,-0.0278c0.2406,-0.11812 0.4511,-0.17718 0.7218,-0.17718c0.8723,0 1.5641,0.64968 1.5641,1.47656c0,0.82687 -0.6918,1.47656 -1.5641,1.47656c-0.2707,0 -0.4812,-0.0591 -0.7218,-0.1772c-0.2041,-0.1002 -0.4359,-0.214 -0.6672,-0.2675l0,3.7259c0,0.3625 -0.2938,0.6563 -0.6563,0.6563l-3.54701,0c-0.11812,-0.0301 -0.17718,-0.2105 -0.20672,-0.3309c-0.02953,-0.3308 0.14766,-0.6918 0.29532,-0.9925c0.11812,-0.2407 0.17719,-0.4512 0.17719,-0.7219c0,-0.8723 -0.64969,-1.5641 -1.47657,-1.5641c-0.82687,0 -1.47656,0.6918 -1.47656,1.5641c0,0.2707 0.05906,0.4812 0.17719,0.7219c0.00917,0.0186 0.01846,0.0374 0.0278,0.0564c0.14107,0.2856 0.29521,0.5976 0.26751,0.9361c0,0.1204 -0.05906,0.3008 -0.20672,0.3309l-3.54703,0c-0.36243,0 -0.65625,-0.2938 -0.65625,-0.6563l0,-3.547c0.03008,-0.1181 0.21055,-0.1772 0.33086,-0.2067c0.33086,-0.0295 0.6918,0.1477 0.99258,0.2953c0.24062,0.1181 0.45117,0.1772 0.72187,0.1772c0.87227,0 1.56406,-0.64969 1.56406,-1.47656c0,-0.82688 -0.69179,-1.47656 -1.56406,-1.47656c-0.2707,0 -0.48125,0.05906 -0.72187,0.17718l-0.05586,0.02753l-0.00054,0.00027c-0.2856,0.14107 -0.59767,0.29521 -0.93618,0.26752c-0.12031,0 -0.30078,-0.05907 -0.33086,-0.20672l0,-3.54703c0,-0.36244 0.29381,-0.65625 0.65625,-0.65625l3.72901,0c-0.04753,-0.21552 -0.14809,-0.41911 -0.24277,-0.61079c-0.00934,-0.01892 -0.01863,-0.03772 -0.0278,-0.0564c-0.11813,-0.24063 -0.17719,-0.45117 -0.17719,-0.72188c0,-0.87226 0.64969,-1.56406 1.47656,-1.56406z"/>
  </g>
 </g>
</svg>