<?xml version="1.0" encoding="UTF-8" standalone="no"?><svg width="16" height="16" xmlns="http://www.w3.org/2000/svg" fill="none">
 <defs>
  <clipPath id="clip0_4722_3486">
   <rect id="svg_1" x="0.125" y="0.125" fill="white" height="15.75" width="15.75"/>
  </clipPath>
 </defs>
 <g>
  <title>background</title>
  <rect fill="none" id="canvas_background" height="739" width="1422" y="-1" x="-1"/>
 </g>
 <g>
  <title>Layer 1</title>
  <g id="svg_2" clip-path="url(#clip0_4722_3486)">
   <path id="svg_3" fill="#7544FF" d="m6.35943,8c0,-0.90609 0.73453,-1.64062 1.64062,-1.64062c0.90609,0 1.64063,0.73453 1.64063,1.64062c0,0.90609 -0.73454,1.64062 -1.64063,1.64062c-0.90609,0 -1.64062,-0.73453 -1.64062,-1.64062z"/>
   <path id="svg_4" fill="#7544FF" d="m8.00006,2.75c-4.59205,0 -6.67375,4.01656 -7.123405,5.0233c-0.064707,0.14487 -0.064707,0.30853 0,0.4534c0.449655,1.00674 2.531355,5.0233 7.123405,5.0233c4.59204,0 6.67374,-4.01656 7.12344,-5.0233c0.0647,-0.14487 0.0647,-0.30853 0,-0.4534c-0.4497,-1.00674 -2.5314,-5.0233 -7.12344,-5.0233zm0,2.29688c1.63071,0 2.95314,1.3224 2.95314,2.95312c0,1.63072 -1.32243,2.9531 -2.95314,2.9531c-1.63072,0 -2.95313,-1.32238 -2.95313,-2.9531c0,-1.63072 1.32241,-2.95312 2.95313,-2.95312z" clip-rule="evenodd" fill-rule="evenodd"/>
  </g>
 </g>
</svg>