<svg width="1440" height="453" viewBox="0 0 1440 453" fill="none" xmlns="http://www.w3.org/2000/svg">
<g clip-path="url(#clip0_4302_4176)">
<path opacity="0.5" d="M643.438 40.2888C643.598 40.0635 643.545 39.7514 643.32 39.5917C643.094 39.4319 642.782 39.485 642.623 39.7102L643.438 40.2888ZM345.424 458.71C345.264 458.935 345.318 459.248 345.543 459.407C345.768 459.567 346.08 459.514 346.24 459.289L345.424 458.71ZM412.694 40.471C412.954 40.3791 413.091 40.0935 412.999 39.8331C412.907 39.5727 412.621 39.4361 412.361 39.528L412.694 40.471ZM-28.1664 194.993C-28.4268 195.085 -28.5634 195.37 -28.4715 195.631C-28.3796 195.891 -28.094 196.028 -27.8336 195.936L-28.1664 194.993ZM335.844 40.4807C336.11 40.4057 336.265 40.1294 336.19 39.8636C336.115 39.5979 335.838 39.4433 335.573 39.5183L335.844 40.4807ZM-28.1359 142.214C-28.4016 142.289 -28.5562 142.565 -28.4812 142.831C-28.4061 143.097 -28.1299 143.251 -27.8641 143.176L-28.1359 142.214ZM259.004 40.4862C259.273 40.423 259.439 40.1538 259.376 39.885C259.313 39.6162 259.044 39.4496 258.775 39.5128L259.004 40.4862ZM-28.1145 107.018C-28.3833 107.081 -28.55 107.351 -28.4867 107.619C-28.4235 107.888 -28.1543 108.055 -27.8855 107.991L-28.1145 107.018ZM489.582 40.4519C489.832 40.3344 489.939 40.0365 489.822 39.7867C489.704 39.5368 489.406 39.4295 489.157 39.5471L489.582 40.4519ZM-28.2129 282.955C-28.4627 283.072 -28.57 283.37 -28.4524 283.62C-28.3349 283.87 -28.037 283.977 -27.7871 283.86L-28.2129 282.955ZM182.146 40.4896C182.417 40.435 182.592 40.1714 182.538 39.9007C182.483 39.63 182.219 39.4548 181.949 39.5094L182.146 40.4896ZM-28.0988 81.8717C-28.3695 81.9263 -28.5447 82.19 -28.4901 82.4607C-28.4355 82.7314 -28.1718 82.9066 -27.9012 82.852L-28.0988 81.8717ZM28.4638 40.4935C28.7366 40.4507 28.9231 40.1949 28.8804 39.9221C28.8376 39.6493 28.5818 39.4628 28.309 39.5055L28.4638 40.4935ZM-28.0774 48.344C-28.3502 48.3867 -28.5367 48.6425 -28.494 48.9154C-28.4512 49.1882 -28.1954 49.3747 -27.9226 49.3319L-28.0774 48.344ZM105.292 40.4919C105.564 40.4439 105.746 40.1846 105.698 39.9126C105.65 39.6407 105.39 39.4591 105.118 39.5071L105.292 40.4919ZM-28.0869 63.0163C-28.3588 63.0643 -28.5404 63.3237 -28.4924 63.5956C-28.4444 63.8676 -28.185 64.0491 -27.9131 64.0011L-28.0869 63.0163ZM1257.77 39.5094C1257.5 39.4548 1257.24 39.6299 1257.18 39.9006C1257.13 40.1713 1257.3 40.435 1257.58 40.4896L1257.77 39.5094ZM1467.9 82.9337C1468.17 82.9883 1468.44 82.8131 1468.49 82.5424C1468.54 82.2718 1468.37 82.008 1468.1 81.9534L1467.9 82.9337ZM720.372 40.0001C720.373 39.724 720.149 39.4999 719.873 39.4995C719.597 39.4992 719.373 39.7227 719.372 39.9989L720.372 40.0001ZM718.84 458.999C718.839 459.275 719.063 459.499 719.339 459.5C719.615 459.5 719.839 459.276 719.84 459L718.84 458.999ZM1334.6 39.5071C1334.33 39.4591 1334.07 39.6407 1334.02 39.9126C1333.98 40.1846 1334.16 40.4439 1334.43 40.4919L1334.6 39.5071ZM1467.91 64.0501C1468.18 64.0981 1468.44 63.9166 1468.49 63.6446C1468.54 63.3727 1468.36 63.1133 1468.09 63.0654L1467.91 64.0501ZM1411.41 39.5056C1411.14 39.4628 1410.88 39.6492 1410.84 39.922C1410.8 40.1948 1410.99 40.4507 1411.26 40.4935L1411.41 39.5056ZM1467.92 49.3809C1468.2 49.4237 1468.45 49.2372 1468.49 48.9644C1468.54 48.6916 1468.35 48.4358 1468.08 48.393L1467.92 49.3809ZM1180.97 39.5128C1180.7 39.4495 1180.43 39.6161 1180.37 39.8849C1180.31 40.1537 1180.47 40.4229 1180.74 40.4862L1180.97 39.5128ZM1467.89 108.09C1468.15 108.153 1468.42 107.986 1468.49 107.717C1468.55 107.449 1468.38 107.179 1468.11 107.116L1467.89 108.09ZM1104.15 39.5183C1103.88 39.4433 1103.61 39.5978 1103.53 39.8636C1103.46 40.1293 1103.61 40.4056 1103.88 40.4807L1104.15 39.5183ZM1467.86 143.307C1468.13 143.382 1468.41 143.227 1468.48 142.962C1468.56 142.696 1468.4 142.42 1468.14 142.345L1467.86 143.307ZM950.565 39.5472C950.316 39.4295 950.018 39.5366 949.9 39.7865C949.782 40.0363 949.89 40.3342 950.139 40.4518L950.565 39.5472ZM1467.79 284.268C1468.04 284.386 1468.33 284.279 1468.45 284.029C1468.57 283.779 1468.46 283.481 1468.21 283.363L1467.79 284.268ZM1027.36 39.5281C1027.1 39.4361 1026.82 39.5726 1026.72 39.833C1026.63 40.0934 1026.77 40.379 1027.03 40.471L1027.36 39.5281ZM1467.83 196.164C1468.09 196.256 1468.38 196.12 1468.47 195.859C1468.56 195.599 1468.43 195.313 1468.17 195.222L1467.83 196.164ZM797.1 39.7109C796.94 39.4854 796.628 39.4318 796.403 39.5912C796.177 39.7506 796.124 40.0626 796.283 40.2881L797.1 39.7109ZM1092.46 459.288C1092.62 459.514 1092.93 459.567 1093.16 459.408C1093.38 459.248 1093.44 458.936 1093.28 458.711L1092.46 459.288ZM566.477 40.4081C566.702 40.2489 566.756 39.9369 566.597 39.7113C566.438 39.4856 566.126 39.4318 565.9 39.591L566.477 40.4081ZM-27.6989 459L-27.9871 458.591C-28.1651 458.717 -28.2413 458.943 -28.1754 459.151C-28.1095 459.358 -27.9167 459.5 -27.6989 459.5V459ZM873.799 39.5912C873.573 39.4318 873.261 39.4854 873.102 39.7109C872.943 39.9365 872.996 40.2485 873.222 40.4078L873.799 39.5912ZM1466.4 459V459.5C1466.62 459.5 1466.81 459.358 1466.88 459.151C1466.94 458.943 1466.87 458.717 1466.69 458.591L1466.4 459ZM1468 97.6797C1468.28 97.6797 1468.5 97.4558 1468.5 97.1797C1468.5 96.9035 1468.28 96.6797 1468 96.6797V97.6797ZM-28 96.6797C-28.2761 96.6797 -28.5 96.9035 -28.5 97.1797C-28.5 97.4558 -28.2761 97.6797 -28 97.6797V96.6797ZM1468 59.32C1468.28 59.32 1468.5 59.0961 1468.5 58.82C1468.5 58.5438 1468.28 58.32 1468 58.32V59.32ZM-28 58.32C-28.2761 58.32 -28.5 58.5438 -28.5 58.82C-28.5 59.0961 -28.2761 59.32 -28 59.32V58.32ZM1468 67.1455C1468.28 67.1455 1468.5 66.9216 1468.5 66.6455C1468.5 66.3693 1468.28 66.1455 1468 66.1455V67.1455ZM-28 66.1455C-28.2761 66.1455 -28.5 66.3693 -28.5 66.6455C-28.5 66.9216 -28.2761 67.1455 -28 67.1455V66.1455ZM1468 75.9839C1468.28 75.9839 1468.5 75.76 1468.5 75.4839C1468.5 75.2078 1468.28 74.9839 1468 74.9839V75.9839ZM-28 74.9839C-28.2761 74.9839 -28.5 75.2078 -28.5 75.4839C-28.5 75.76 -28.2761 75.9839 -28 75.9839V74.9839ZM1468 46.1195C1468.28 46.1195 1468.5 45.8956 1468.5 45.6195C1468.5 45.3434 1468.28 45.1195 1468 45.1195V46.1195ZM-28 45.1195C-28.2761 45.1195 -28.5 45.3434 -28.5 45.6195C-28.5 45.8956 -28.2761 46.1195 -28 46.1195V45.1195ZM1468 52.3603C1468.28 52.3603 1468.5 52.1365 1468.5 51.8603C1468.5 51.5842 1468.28 51.3603 1468 51.3603V52.3603ZM-28 51.3603C-28.2761 51.3603 -28.5 51.5842 -28.5 51.8603C-28.5 52.1365 -28.2761 52.3603 -28 52.3603V51.3603ZM1468 348.57C1468.28 348.57 1468.5 348.346 1468.5 348.07C1468.5 347.794 1468.28 347.57 1468 347.57V348.57ZM-28 347.57C-28.2761 347.57 -28.5 347.794 -28.5 348.07C-28.5 348.346 -28.2761 348.57 -28 348.57V347.57ZM1468 111.158C1468.28 111.158 1468.5 110.934 1468.5 110.658C1468.5 110.382 1468.28 110.158 1468 110.158V111.158ZM-28 110.158C-28.2761 110.158 -28.5 110.382 -28.5 110.658C-28.5 110.934 -28.2761 111.158 -28 111.158V110.158ZM1468 86.0803C1468.28 86.0803 1468.5 85.8564 1468.5 85.5803C1468.5 85.3041 1468.28 85.0803 1468 85.0803V86.0803ZM-28 85.0803C-28.2761 85.0803 -28.5 85.3041 -28.5 85.5803C-28.5 85.8564 -28.2761 86.0803 -28 86.0803V85.0803ZM1468 40.4995C1468.28 40.4995 1468.5 40.2757 1468.5 39.9995C1468.5 39.7234 1468.28 39.4995 1468 39.4995V40.4995ZM-28 39.4995C-28.2761 39.4995 -28.5 39.7234 -28.5 39.9995C-28.5 40.2757 -28.2761 40.4995 -28 40.4995V39.4995ZM1468 127.038C1468.28 127.038 1468.5 126.814 1468.5 126.538C1468.5 126.261 1468.28 126.038 1468 126.038V127.038ZM-28 126.038C-28.2761 126.038 -28.5 126.261 -28.5 126.538C-28.5 126.814 -28.2761 127.038 -28 127.038V126.038ZM1468 146.005C1468.28 146.005 1468.5 145.781 1468.5 145.505C1468.5 145.229 1468.28 145.005 1468 145.005V146.005ZM-28 145.005C-28.2761 145.005 -28.5 145.229 -28.5 145.505C-28.5 145.781 -28.2761 146.005 -28 146.005V145.005ZM1468 282.274C1468.28 282.274 1468.5 282.05 1468.5 281.774C1468.5 281.497 1468.28 281.274 1468 281.274V282.274ZM-28 281.274C-28.2761 281.274 -28.5 281.497 -28.5 281.774C-28.5 282.05 -28.2761 282.274 -28 282.274V281.274ZM1468 169.073C1468.28 169.073 1468.5 168.849 1468.5 168.573C1468.5 168.297 1468.28 168.073 1468 168.073V169.073ZM-28 168.073C-28.2761 168.073 -28.5 168.297 -28.5 168.573C-28.5 168.849 -28.2761 169.073 -28 169.073V168.073ZM1468 197.696C1468.28 197.696 1468.5 197.472 1468.5 197.196C1468.5 196.92 1468.28 196.696 1468 196.696V197.696ZM-28 196.696C-28.2761 196.696 -28.5 196.92 -28.5 197.196C-28.5 197.472 -28.2761 197.696 -28 197.696V196.696ZM1468 234.177C1468.28 234.177 1468.5 233.953 1468.5 233.677C1468.5 233.401 1468.28 233.177 1468 233.177V234.177ZM-28 233.177C-28.2761 233.177 -28.5 233.401 -28.5 233.677C-28.5 233.953 -28.2761 234.177 -28 234.177V233.177ZM642.623 39.7102L345.424 458.71L346.24 459.289L643.438 40.2888L642.623 39.7102ZM412.361 39.528L-28.1664 194.993L-27.8336 195.936L412.694 40.471L412.361 39.528ZM335.573 39.5183L-28.1359 142.214L-27.8641 143.176L335.844 40.4807L335.573 39.5183ZM258.775 39.5128L-28.1145 107.018L-27.8855 107.991L259.004 40.4862L258.775 39.5128ZM489.157 39.5471L-28.2129 282.955L-27.7871 283.86L489.582 40.4519L489.157 39.5471ZM181.949 39.5094L-28.0988 81.8717L-27.9012 82.852L182.146 40.4896L181.949 39.5094ZM28.309 39.5055L-28.0774 48.344L-27.9226 49.3319L28.4638 40.4935L28.309 39.5055ZM105.118 39.5071L-28.0869 63.0163L-27.9131 64.0011L105.292 40.4919L105.118 39.5071ZM1257.58 40.4896L1467.9 82.9337L1468.1 81.9534L1257.77 39.5094L1257.58 40.4896ZM719.372 39.9989L718.84 458.999L719.84 459L720.372 40.0001L719.372 39.9989ZM1334.43 40.4919L1467.91 64.0501L1468.09 63.0654L1334.6 39.5071L1334.43 40.4919ZM1411.26 40.4935L1467.92 49.3809L1468.08 48.393L1411.41 39.5056L1411.26 40.4935ZM1180.74 40.4862L1467.89 108.09L1468.11 107.116L1180.97 39.5128L1180.74 40.4862ZM1103.88 40.4807L1467.86 143.307L1468.14 142.345L1104.15 39.5183L1103.88 40.4807ZM950.139 40.4518L1467.79 284.268L1468.21 283.363L950.565 39.5472L950.139 40.4518ZM1027.03 40.471L1467.83 196.164L1468.17 195.222L1027.36 39.5281L1027.03 40.471ZM796.283 40.2881L1092.46 459.288L1093.28 458.711L797.1 39.7109L796.283 40.2881ZM565.9 39.591L-27.9871 458.591L-27.4106 459.408L566.477 40.4081L565.9 39.591ZM873.222 40.4078L1466.11 459.408L1466.69 458.591L873.799 39.5912L873.222 40.4078ZM1466.4 458.5H-27.6989V459.5H1466.4V458.5ZM1468 96.6797H-28V97.6797H1468V96.6797ZM1468 58.32H-28V59.32H1468V58.32ZM1468 66.1455H-28V67.1455H1468V66.1455ZM1468 74.9839H-28V75.9839H1468V74.9839ZM1468 45.1195H-28V46.1195H1468V45.1195ZM1468 51.3603H-28V52.3603H1468V51.3603ZM1468 347.57H-28V348.57H1468V347.57ZM1468 110.158H-28V111.158H1468V110.158ZM1468 85.0803H-28V86.0803H1468V85.0803ZM1468 39.4995H-28V40.4995H1468V39.4995ZM1468 126.038H-28V127.038H1468V126.038ZM1468 145.005H-28V146.005H1468V145.005ZM1468 281.274H-28V282.274H1468V281.274ZM1468 168.073H-28V169.073H1468V168.073ZM1468 196.696H-28V197.696H1468V196.696ZM1468 233.177H-28V234.177H1468V233.177Z" fill="url(#paint0_linear_4302_4176)"/>
<path opacity="0.05" d="M48 168.5L113.5 145.5H268L218 168.5H48Z" fill="#78B7FF"/>
<path opacity="0.05" d="M1216.5 282L1148.5 233.5H1361L1464.5 282H1216.5Z" fill="#78B7FF"/>
<path d="M22 424L202 297" stroke="url(#paint1_linear_4302_4176)"/>
<path d="M1324 216L1091 106.5" stroke="url(#paint2_linear_4302_4176)"/>
<path d="M55 197.199H212" stroke="url(#paint3_linear_4302_4176)"/>
<path d="M1227 348H1384" stroke="url(#paint4_linear_4302_4176)"/>
</g>
<defs>
<linearGradient id="paint0_linear_4302_4176" x1="720" y1="39.9995" x2="720" y2="459" gradientUnits="userSpaceOnUse">
<stop stop-color="#3C9DF8" stop-opacity="0.06"/>
<stop offset="1" stop-color="#3C9DF8"/>
</linearGradient>
<linearGradient id="paint1_linear_4302_4176" x1="201.345" y1="296.341" x2="21.365" y2="423.098" gradientUnits="userSpaceOnUse">
<stop stop-color="#2261DA" stop-opacity="0"/>
<stop offset="0.520833" stop-color="#2261DA" stop-opacity="0.482735"/>
<stop offset="1" stop-color="#2261DA" stop-opacity="0"/>
</linearGradient>
<linearGradient id="paint2_linear_4302_4176" x1="1324" y1="216" x2="1091" y2="106" gradientUnits="userSpaceOnUse">
<stop stop-color="#2261DA" stop-opacity="0"/>
<stop offset="0.520833" stop-color="#2364E1" stop-opacity="0.5"/>
<stop offset="0.994422" stop-color="#2261DA" stop-opacity="0"/>
</linearGradient>
<linearGradient id="paint3_linear_4302_4176" x1="55" y1="197" x2="212" y2="197" gradientUnits="userSpaceOnUse">
<stop stop-color="#224ADA" stop-opacity="0"/>
<stop offset="0.536458" stop-color="#1D32EE" stop-opacity="0.7"/>
<stop offset="1" stop-color="#1A47E7" stop-opacity="0"/>
</linearGradient>
<linearGradient id="paint4_linear_4302_4176" x1="1227" y1="347.8" x2="1384" y2="347.8" gradientUnits="userSpaceOnUse">
<stop stop-color="#227BDA" stop-opacity="0"/>
<stop offset="0.536458" stop-color="#227BDA" stop-opacity="0.7"/>
<stop offset="1" stop-color="#227BDA" stop-opacity="0"/>
</linearGradient>
<clipPath id="clip0_4302_4176">
<rect width="1440" height="460" fill="white" transform="translate(0 -0.000488281)"/>
</clipPath>
</defs>
</svg>
