<?xml version="1.0" encoding="UTF-8" standalone="no"?><svg width="834" height="266" viewBox="0 0 834 266" fill="none" xmlns="http://www.w3.org/2000/svg">
<g opacity="0.3">
<rect opacity="0.15" x="133" y="177" width="44" height="44" fill="#F2E1FB"/>
<rect opacity="0.15" x="701" y="133" width="44" height="44" fill="#F2E1FB"/>
<path d="M745 89H833V177H745M745 89V177M745 89V45M745 89H701M745 89H789V45H745M745 89V111M745 177V133M745 177H701M745 177H789V221M745 177V221M745 177H717M745 177V199M657 221H701M657 221V265M657 221V177M657 221H613V265H657M701 221V265M701 221H789M701 221V177M701 221H717M701 221V199M701 265H657M701 265H789V221M789 221H745M657 133H701M657 133V177M657 133V89M657 133H613M701 133V177M701 133H745M701 133V89M701 133V111M701 177H657M701 177H717M701 177V199M745 133V111M657 89H701M657 89H613M657 89V45M657 89H635M657 89H679M701 89V45M701 89V111M701 89H679M745 221V199M745 221H731M701 45H745M701 45H679M745 111H701M613 89V133M613 89H635M613 89V45M613 133V45M613 133H525V45M481 45H525M481 45V89M481 45H437M525 45V89H481M525 45H613M481 89H437V45M437 45V1H393M437 45H393M393 1V45M393 1H349M393 45H349M349 1V45M349 1H305V45M349 45H305M305 45H261M305 45V89M261 45V89M261 45H217V89M305 89H261M305 89H217M305 89V177M261 89H217M217 89H173M217 89V111M217 89V177M173 89V111M173 89H129V133H173M173 89V133M217 111H173M217 111V133M173 111V133M217 133H173M217 133V177M173 133V177M217 177H173M217 177V221M217 177H195M217 177V199H195M217 177H206M217 177V188H206M217 177H211M217 177V182H211M217 177H261M217 177H305M173 177V221H217M173 177H195M173 177V199H195M217 221H261M195 177V199M195 177H206M195 177V188H206M206 177V188M206 177H211M206 177V182H211M211 177V182M261 177V221M261 177H305M261 221H305M261 221V265H305M305 177V221M305 221V265M305 221H349V265H305M613 45H635M635 45V89M635 45H657M657 45H679M679 45V89M717 177V199M717 199H701M717 199V221M717 199H731M717 199H745M717 221H731M731 199V221M731 199H745" stroke="url(#paint0_radial_4762_3688)"/>
<path d="M617 89H705V177H617M617 89V177M617 89V45M617 89H573M617 89H661V45H617M617 89V111M617 177V133M617 177H573M617 177H661V221M617 177V221M617 177H589M617 177V199M529 221H573M529 221V265M529 221V177M529 221H485V265H529M573 221V265M573 221H661M573 221V177M573 221H589M573 221V199M573 265H529M573 265H661V221M661 221H617M529 133H573M529 133V177M529 133V89M529 133H485M573 133V177M573 133H617M573 133V89M573 133V111M573 177H529M573 177H589M573 177V199M617 133V111M529 89H573M529 89H485M529 89V45M529 89H507M529 89H551M573 89V45M573 89V111M573 89H551M617 221V199M617 221H603M573 45H617M573 45H551M617 111H573M485 89V133M485 89H507M485 89V45M485 133V45M485 133H397V45M353 45H397M353 45V89M353 45H309M397 45V89H353M397 45H485M353 89H309V45M309 45V1H265M309 45H265M265 1V45M265 1H221M265 45H221M221 1V45M221 1H177V45M221 45H177M177 45H133M177 45V89M133 45V89M133 45H89V89M177 89H133M177 89H89M177 89V177M133 89H89M89 89H45M89 89V111M89 89V177M45 89V111M45 89H1V133H45M45 89V133M89 111H45M89 111V133M45 111V133M89 133H45M89 133V177M45 133V177M89 177H45M89 177V221M89 177H67M89 177V199H67M89 177H78M89 177V188H78M89 177H83M89 177V182H83M89 177H133M89 177H177M45 177V221H89M45 177H67M45 177V199H67M89 221H133M67 177V199M67 177H78M67 177V188H78M78 177V188M78 177H83M78 177V182H83M83 177V182M133 177V221M133 177H177M133 221H177M133 221V265H177M177 177V221M177 221V265M177 221H221V265H177M485 45H507M507 45V89M507 45H529M529 45H551M551 45V89M589 177V199M589 199H573M589 199V221M589 199H603M589 199H617M589 221H603M603 199V221M603 199H617" stroke="url(#paint1_radial_4762_3688)"/>
</g>
<defs>
<radialGradient id="paint0_radial_4762_3688" cx="0" cy="0" r="1" gradientUnits="userSpaceOnUse" gradientTransform="translate(741 174) rotate(108.225) scale(86.3307 230.215)">
<stop stop-color="white"/>
<stop offset="1" stop-color="#C617F1" stop-opacity="0"/>
<stop offset="1" stop-color="#F5CCFF" stop-opacity="0"/>
</radialGradient>
<radialGradient id="paint1_radial_4762_3688" cx="0" cy="0" r="1" gradientUnits="userSpaceOnUse" gradientTransform="translate(158 171) rotate(102.836) scale(81.0247 216.066)">
<stop stop-color="#FCEEFF"/>
<stop offset="1" stop-color="#F1B9FF" stop-opacity="0"/>
</radialGradient>
</defs>
</svg>
